SplineFontDB: 3.0
FontName: Vazir-Medium
FullName: Vazir Medium
FamilyName: Vazir
Weight: Medium
Copyright: Copyright (c) 2003 by Bitstream, Inc. All Rights Reserved.\nDejaVu changes are in public domain\nChanges by Saber Rastikerdar are in public domain.
Version: 3.1.0
ItalicAngle: 0
UnderlinePosition: -100
UnderlineWidth: 100
Ascent: 1536
Descent: 512
InvalidEm: 0
LayerCount: 2
Layer: 0 1 "Back" 1
Layer: 1 1 "Fore" 0
XUID: [1021 502 1027637223 1353962]
UniqueID: 4158846
UseUniqueID: 1
FSType: 0
OS2Version: 1
OS2_WeightWidthSlopeOnly: 0
OS2_UseTypoMetrics: 1
CreationTime: 1431850356
ModificationTime: 1466745709
PfmFamily: 33
TTFWeight: 500
TTFWidth: 5
LineGap: 0
VLineGap: 0
Panose: 2 11 6 3 3 8 4 2 2 4
OS2TypoAscent: 2100
OS2TypoAOffset: 0
OS2TypoDescent: -900
OS2TypoDOffset: 0
OS2TypoLinegap: 0
OS2WinAscent: 2100
OS2WinAOffset: 0
OS2WinDescent: 900
OS2WinDOffset: 0
HheadAscent: 2100
HheadAOffset: 0
HheadDescent: -900
HheadDOffset: 0
OS2SubXSize: 1331
OS2SubYSize: 1433
OS2SubXOff: 0
OS2SubYOff: 286
OS2SupXSize: 1331
OS2SupYSize: 1433
OS2SupXOff: 0
OS2SupYOff: 983
OS2StrikeYSize: 102
OS2StrikeYPos: 530
OS2Vendor: 'PfEd'
OS2CodePages: 00000040.20080000
OS2UnicodeRanges: 80002003.80000000.00000008.00000000
Lookup: 1 9 0 "'fina' Terminal Forms in Arabic lookup 9" { "'fina' Terminal Forms in Arabic lookup 9 subtable"  } ['fina' ('arab' <'KUR ' 'SND ' 'URD ' 'dflt' > ) ]
Lookup: 1 9 0 "'medi' Medial Forms in Arabic lookup 11" { "'medi' Medial Forms in Arabic lookup 11 subtable"  } ['medi' ('arab' <'KUR ' 'SND ' 'URD ' 'dflt' > ) ]
Lookup: 1 9 0 "'init' Initial Forms in Arabic lookup 13" { "'init' Initial Forms in Arabic lookup 13 subtable"  } ['init' ('arab' <'KUR ' 'SND ' 'URD ' 'dflt' > ) ]
Lookup: 4 1 1 "'rlig' Required Ligatures in Arabic lookup 14" { "'rlig' Required Ligatures in Arabic lookup 14 subtable"  } ['rlig' ('arab' <'KUR ' 'dflt' > ) ]

StartChar: exclam
Encoding: 33 33 1
Width: 846
VWidth: 2241
GlyphClass: 2
Flags: W
LayerCount: 2
Fore
SplineSet
281.595703125 0 m 1,0,-1
 281.595703125 283.336914062 l 1,1,-1
 564.404296875 283.336914062 l 1,2,-1
 564.404296875 0 l 1,3,-1
 281.595703125 0 l 1,0,-1
302.99609375 832.631835938 m 1,4,-1
 303.0078125 1486.97265625 l 5,5,-1
 548.25390625 1486.97265625 l 5,6,-1
 548.25390625 832.245117188 l 1,7,-1
 526.633789062 446.55859375 l 1,8,-1
 325.70703125 446.55859375 l 1,9,-1
 302.99609375 832.631835938 l 1,4,-1
EndSplineSet
EndChar

StartChar: parenleft
Encoding: 40 40 2
Width: 849
GlyphClass: 2
Flags: W
GlyphCompositionVertical: 3  uni239D%0,0,48,2968 uni239C%1,48,48,2999 uni239B%0,48,0,3009
LayerCount: 2
Fore
SplineSet
478.926757812 -270 m 1,0,1
 176 198.847397507 176 198.847397507 176 642.221915739 c 128,-1,2
 176 1085.59643397 176 1085.59643397 478.94140625 1554 c 1,3,-1
 703.499023438 1554 l 1,4,-1
 681.6015625 1528.83007812 l 1,5,6
 421 1094.05602886 421 1094.05602886 421 643 c 0,7,8
 421 191.322604115 421 191.322604115 681.618164062 -244.888671875 c 1,9,-1
 703.430664062 -270 l 1,10,-1
 478.926757812 -270 l 1,0,1
EndSplineSet
EndChar

StartChar: parenright
Encoding: 41 41 3
Width: 849
GlyphClass: 2
Flags: W
GlyphCompositionVertical: 3  uni23A0%0,0,48,2968 uni239F%1,48,48,2999 uni239E%0,48,0,3009
LayerCount: 2
Fore
SplineSet
388.529296875 1554 m 1,0,1
 691.430664062 1082.23302436 691.430664062 1082.23302436 691.430664062 640.970433854 c 128,-1,2
 691.430664062 199.707843353 691.430664062 199.707843353 388.502929688 -270 c 1,3,-1
 164 -270 l 1,4,-1
 185.811523438 -244.888671875 l 1,5,6
 446.430664062 191.320998122 446.430664062 191.320998122 446.430664062 643 c 0,7,8
 446.430664062 1090.78375921 446.430664062 1090.78375921 185.788085938 1528.97070312 c 1,9,-1
 164.094726562 1554 l 1,10,-1
 388.529296875 1554 l 1,0,1
EndSplineSet
EndChar

StartChar: period
Encoding: 46 46 4
Width: 704
VWidth: 2241
GlyphClass: 2
Flags: W
LayerCount: 2
Fore
SplineSet
210.381835938 0 m 5,0,-1
 210.381835938 283.336914062 l 5,1,-1
 493.19140625 283.336914062 l 5,2,-1
 493.19140625 0 l 5,3,-1
 210.381835938 0 l 5,0,-1
EndSplineSet
EndChar

StartChar: colon
Encoding: 58 58 5
Width: 760
VWidth: 2241
GlyphClass: 2
Flags: W
LayerCount: 2
Fore
SplineSet
238.381835938 619.759765625 m 1,0,-1
 238.381835938 903.096679688 l 1,1,-1
 521.19140625 903.096679688 l 1,2,-1
 521.19140625 619.759765625 l 1,3,-1
 238.381835938 619.759765625 l 1,0,-1
238.381835938 0 m 1,4,-1
 238.381835938 283.336914062 l 1,5,-1
 521.19140625 283.336914062 l 1,6,-1
 521.19140625 0 l 1,7,-1
 238.381835938 0 l 1,4,-1
EndSplineSet
EndChar

StartChar: afii57388
Encoding: 1548 1548 7
Width: 790
VWidth: 2248
GlyphClass: 2
Flags: W
LayerCount: 2
Fore
SplineSet
546.8671875 28.9970703125 m 128,-1,1
 501.07421875 0 501.07421875 0 426.235351562 0 c 0,2,3
 359.768554688 0.7177734375 359.768554688 0.7177734375 316.814453125 32.833984375 c 128,-1,4
 273.860351562 64.9501953125 273.860351562 64.9501953125 259.788085938 124.494140625 c 0,5,6
 246.861328125 179.8203125 246.861328125 179.8203125 269.560546875 270.577148438 c 0,7,8
 309.963867188 434.661132812 309.963867188 434.661132812 497.873046875 600.646484375 c 2,9,-1
 512.068359375 614.229492188 l 1,10,-1
 614.69921875 553.56640625 l 1,11,-1
 588.661132812 533.329101562 l 2,12,13
 463.620117188 436.145507812 463.620117188 436.145507812 444.00390625 288.594726562 c 1,14,15
 444.6640625 288.56640625 444.6640625 288.56640625 445.004882812 288.55078125 c 128,-1,16
 445.345703125 288.534179688 445.345703125 288.534179688 445.859375 288.5078125 c 0,17,18
 455.318359375 288.020507812 455.318359375 288.020507812 464.206054688 287.037109375 c 0,19,20
 539.213867188 278.73828125 539.213867188 278.73828125 574.368164062 233.506835938 c 128,-1,21
 609.5234375 188.275390625 609.5234375 188.275390625 600.006835938 114.75 c 0,22,0
 592.66015625 57.9951171875 592.66015625 57.9951171875 546.8671875 28.9970703125 c 128,-1,1
EndSplineSet
EndChar

StartChar: uni0615
Encoding: 1557 1557 8
Width: -27
VWidth: 2304
GlyphClass: 4
Flags: W
AnchorPoint: "Anchor-10" 557.519 1383.15 mark 0
AnchorPoint: "Anchor-9" 557.519 1383.15 mark 0
AnchorPoint: "Anchor-1" 569.519 2080.6 basemark 0
AnchorPoint: "Anchor-1" 557.519 1383.15 mark 0
LayerCount: 2
Fore
SplineSet
474.836914062 1530.54980469 m 1,0,-1
 574.0390625 1530.54980469 l 2,1,2
 660.237513606 1530.54980469 660.237513606 1530.54980469 713.122809335 1561.77490235 c 0,3,4
 768 1595 768 1595 768 1638 c 0,5,6
 768 1668 768 1668 744 1681 c 0,7,8
 701 1705 701 1705 635 1667 c 0,9,10
 562 1625 562 1625 474.836914062 1530.54980469 c 1,0,-1
846.700195312 1640.93164062 m 0,11,12
 847.000184408 1451.88378906 847.000184408 1451.88378906 600.02734375 1451.88378906 c 2,13,-1
 293.467773438 1451.88378906 l 1,14,-1
 293.467773438 1530.54980469 l 1,15,-1
 384.991210938 1530.54980469 l 1,16,-1
 384.991210938 1981.38769531 l 1,17,-1
 464.787109375 1980.38769531 l 1,18,-1
 464 1605 l 1,19,20
 561 1715 561 1715 647.014648438 1747.5234375 c 0,21,22
 717.794865592 1773.35384839 717.794865592 1773.35384839 766 1756 c 0,23,24
 847 1726 847 1726 846.700195312 1640.93164062 c 0,11,12
EndSplineSet
EndChar

StartChar: uni061B
Encoding: 1563 1563 9
Width: 779
VWidth: 2248
GlyphClass: 2
Flags: W
LayerCount: 2
Fore
SplineSet
271.423828125 0 m 1,0,-1
 271.423828125 283.336914062 l 1,1,-1
 554.233398438 283.336914062 l 1,2,-1
 554.233398438 0 l 1,3,-1
 271.423828125 0 l 1,0,-1
529.07421875 456.520507812 m 128,-1,5
 483.090820312 425.001953125 483.090820312 425.001953125 423.140625 425.9921875 c 128,-1,6
 363.190429688 426.982421875 363.190429688 426.982421875 329.143554688 442.736328125 c 0,7,8
 200.797851562 502.123046875 200.797851562 502.123046875 250.80859375 719.305664062 c 0,9,10
 291.366210938 897.465820312 291.366210938 897.465820312 493.197265625 1090.31054688 c 1,11,-1
 597.252929688 1025.5859375 l 1,12,-1
 571.317382812 1003.39160156 l 2,13,14
 445.075195312 895.36328125 445.075195312 895.36328125 425.278320312 737.993164062 c 1,15,16
 509.779296875 732.911132812 509.779296875 732.911132812 549.40234375 684.265625 c 128,-1,17
 589.024414062 635.619140625 589.024414062 635.619140625 582.041015625 561.829101562 c 128,-1,4
 575.056640625 488.0390625 575.056640625 488.0390625 529.07421875 456.520507812 c 128,-1,5
EndSplineSet
EndChar

StartChar: uni061F
Encoding: 1567 1567 10
Width: 1233
VWidth: 2241
GlyphClass: 2
Flags: W
LayerCount: 2
Fore
SplineSet
548.381835938 0 m 1,0,-1
 548.381835938 283.336914062 l 1,1,-1
 831.19140625 283.336914062 l 1,2,-1
 831.19140625 0 l 1,3,-1
 548.381835938 0 l 1,0,-1
817.454101562 444.142578125 m 1,4,-1
 553.400390625 444.142578125 l 1,5,-1
 553.400390625 478.750976562 l 6,6,7
 553 553 553 553 530.76171875 590.9296875 c 4,8,9
 506 631 506 631 435.40234375 692.374023438 c 5,10,-1
 342.200195312 781.123046875 l 6,11,12
 249 870 249 870 208.376953125 945.76953125 c 4,13,14
 169 1020 169 1020 169.409179688 1104.75585938 c 4,15,16
 170 1274 170 1274 290.8515625 1379.68164062 c 4,17,18
 424 1495 424 1495 642.716796875 1495.16210938 c 4,19,20
 850.953440502 1495.00003624 850.953440502 1495.00003624 1064.30761719 1368.67480469 c 6,21,-1
 1084.1640625 1356.91796875 l 5,22,-1
 996.083984375 1176.69824219 l 5,23,-1
 972.418945312 1192.01074219 l 6,24,25
 932 1218 932 1218 854.923828125 1246.83789062 c 4,26,27
 624 1332 624 1332 484.295898438 1227.32421875 c 4,28,29
 415 1175 415 1175 414.977539062 1088.171875 c 4,30,31
 415 1001 415 1001 534.944335938 902.811523438 c 5,32,-1
 640.407226562 810.840820312 l 5,33,34
 817.454101564 681.658782446 817.454101564 681.658782446 817.454101562 510.791992188 c 6,35,-1
 817.454101562 444.142578125 l 1,4,-1
EndSplineSet
EndChar

StartChar: uni0621
Encoding: 1569 1569 11
Width: 886
VWidth: 2418
GlyphClass: 2
Flags: W
AnchorPoint: "Anchor-7" 337.995 -245.737 basechar 0
AnchorPoint: "Anchor-10" 364.902 1353.84 basechar 0
LayerCount: 2
Fore
SplineSet
123.530273438 -8.150390625 m 1,0,-1
 123.530273438 208.196289062 l 1,1,-1
 314.715820312 276.768554688 l 1,2,3
 204.995117188 310.028320312 204.995117188 310.028320312 148.561523438 385.654296875 c 128,-1,4
 92.12890625 461.280273438 92.12890625 461.280273438 92.7216796875 574.415039062 c 0,5,6
 93.748046875 769.358398438 93.748046875 769.358398438 264.453125 862.21875 c 0,7,8
 431.107421875 952.874023438 431.107421875 952.874023438 663.915039062 887.4921875 c 2,9,-1
 682.155273438 882.370117188 l 1,10,-1
 682.155273438 683.71875 l 1,11,-1
 652.311523438 689.612304688 l 2,12,13
 385.649414062 742.275390625 385.649414062 742.275390625 315.337890625 644.454101562 c 0,14,15
 294.443359375 615.384765625 294.443359375 615.384765625 294.235351562 573.171875 c 0,16,17
 294.4453125 513.745117188 294.4453125 513.745117188 336.061523438 475.716796875 c 128,-1,18
 377.678710938 437.6875 377.678710938 437.6875 468.927734375 419.73046875 c 0,19,20
 551.176757812 403.763671875 551.176757812 403.763671875 622.524414062 413.104492188 c 128,-1,21
 693.873046875 422.4453125 693.873046875 422.4453125 756.8046875 457.009765625 c 2,22,-1
 793.83984375 477.349609375 l 1,23,-1
 793.83984375 250.075195312 l 1,24,-1
 123.530273438 -8.150390625 l 1,0,-1
EndSplineSet
EndChar

StartChar: uni0627
Encoding: 1575 1575 17
Width: 511
VWidth: 2418
GlyphClass: 2
Flags: W
AnchorPoint: "Anchor-10" 254.532 1629.3 basechar 0
AnchorPoint: "Anchor-7" 257.827 -241.836 basechar 0
LayerCount: 2
Fore
SplineSet
154.939453125 1483.23046875 m 5,0,-1
 373.89453125 1483.23046875 l 5,1,-1
 373.89453125 0.607421875 l 1,2,-1
 154.939453125 0.607421875 l 1,3,-1
 154.939453125 1483.23046875 l 5,0,-1
EndSplineSet
Substitution2: "'fina' Terminal Forms in Arabic lookup 9 subtable" uniFE8E
EndChar

StartChar: uni062D
Encoding: 1581 1581 23
Width: 1327
VWidth: 2418
GlyphClass: 2
Flags: W
AnchorPoint: "Anchor-10" 496.889 1320.9 basechar 0
AnchorPoint: "Anchor-7" 431.367 -737.2 basechar 0
LayerCount: 2
Fore
SplineSet
889.430664062 475.456054688 m 0,0,1
 582.703125 429.474609375 582.703125 429.474609375 435.727539062 285.678710938 c 0,2,3
 313.020507812 166.453125 313.020507812 166.453125 313.096679688 3.75634765625 c 0,4,5
 313.251082538 -326.035274073 313.251082538 -326.035274073 815.262695312 -326.734375 c 0,6,7
 1006.7416912 -326.993604504 1006.7416912 -326.993604504 1158.24707031 -273.5859375 c 2,8,-1
 1183.56542969 -264.661132812 l 1,9,-1
 1239.15527344 -467.30078125 l 1,10,-1
 1219.10742188 -475.874023438 l 2,11,12
 1054.9637009 -546.067750183 1054.9637009 -546.067750183 783.276367188 -542.427734375 c 0,13,14
 433.393554688 -537.876953125 433.393554688 -537.876953125 262.678710938 -386.010253906 c 128,-1,15
 91.9638671875 -234.143554688 91.9638671875 -234.143554688 93.009765625 18.5834960938 c 128,-1,16
 94.0556640625 271.310546875 94.0556640625 271.310546875 309.15625 461.623046875 c 0,17,18
 478.690429688 612.188476562 478.690429688 612.188476562 740.557617188 658.100585938 c 1,19,20
 687.686523438 684.7421875 687.686523438 684.7421875 665.228515625 697.776855469 c 128,-1,21
 642.770507812 710.811523438 642.770507812 710.811523438 623.579873111 721.438102972 c 128,-1,22
 604.389238409 732.064682507 604.389238409 732.064682507 578.678017642 743.590446722 c 128,-1,23
 552.966796875 755.116210938 552.966796875 755.116210938 524.747558594 755.677734375 c 0,24,25
 400.59058028 758.148284875 400.59058028 758.148284875 276.333984375 594.529296875 c 2,26,-1
 260.30078125 573.416992188 l 1,27,-1
 98.5185546875 711.939453125 l 1,28,-1
 113.857421875 730.845703125 l 2,29,30
 201.441518269 838.807774647 201.441518269 838.807774647 226.86328125 863.93359375 c 0,31,32
 348.741210938 982.922851562 348.741210938 982.922851562 510.423828125 984.145507812 c 0,33,34
 604.164092707 985.072253831 604.164092707 985.072253831 735.224609375 901.69140625 c 0,35,36
 1006.07226562 730.114257812 1006.07226562 730.114257812 1205.72753906 733.248046875 c 2,37,-1
 1232.08886719 733.662109375 l 1,38,-1
 1223.24609375 497.498046875 l 1,39,-1
 1198.11328125 498.595703125 l 2,40,41
 1076.34863281 503.916992188 1076.34863281 503.916992188 889.430664062 475.456054688 c 0,0,1
EndSplineSet
Substitution2: "'fina' Terminal Forms in Arabic lookup 9 subtable" uniFEA2
Substitution2: "'medi' Medial Forms in Arabic lookup 11 subtable" uniFEA4
Substitution2: "'init' Initial Forms in Arabic lookup 13 subtable" uniFEA3
EndChar

StartChar: uni062F
Encoding: 1583 1583 25
Width: 1014
VWidth: 2418
GlyphClass: 2
Flags: W
AnchorPoint: "Anchor-10" 322.274 1245.12 basechar 0
AnchorPoint: "Anchor-7" 371.608 -254.523 basechar 0
LayerCount: 2
Fore
SplineSet
121.658203125 255.194335938 m 2,0,1
 268.310546875 231.447265625 268.310546875 231.447265625 382.731445312 231.447265625 c 0,2,3
 698.705078125 231.447265625 698.705078125 231.447265625 698.705078125 356.295898438 c 0,4,5
 698.705078125 395.315429688 698.705078125 395.315429688 649.444335938 469.205078125 c 0,6,7
 547.46484375 622.17578125 547.46484375 622.17578125 325.787109375 779.036132812 c 2,8,-1
 306.029296875 793.016601562 l 1,9,-1
 428.814453125 979.018554688 l 1,10,-1
 449.963867188 963.678710938 l 2,11,12
 921.74609375 621.4765625 921.74609375 621.4765625 921.74609375 321.72265625 c 0,13,14
 921.74609375 189.592773438 921.74609375 189.592773438 804.336914062 94.734375 c 0,15,16
 689.341796875 1.8271484375 689.341796875 1.8271484375 452.302734375 1.8271484375 c 0,17,18
 221.67578125 1.8271484375 221.67578125 1.8271484375 112.860351562 23.125 c 2,19,-1
 92.662109375 27.078125 l 1,20,-1
 92.662109375 259.889648438 l 1,21,-1
 121.658203125 255.194335938 l 2,0,1
EndSplineSet
Substitution2: "'fina' Terminal Forms in Arabic lookup 9 subtable" uniFEAA
EndChar

StartChar: uni0631
Encoding: 1585 1585 27
Width: 826
VWidth: 2418
GlyphClass: 2
Flags: W
AnchorPoint: "Anchor-10" 469.335 913.338 basechar 0
AnchorPoint: "Anchor-7" 282.636 -668.411 basechar 0
LayerCount: 2
Fore
SplineSet
446.020507812 538.18359375 m 1,0,-1
 648.893554688 617.225585938 l 1,1,-1
 658.3671875 594.875 l 2,2,3
 735.036132812 413.995117188 735.036132812 413.995117188 733.490234375 194.565429688 c 0,4,5
 731.169921875 -97.21484375 731.169921875 -97.21484375 558.952148438 -262.922851562 c 128,-1,6
 386.733398438 -428.630859375 386.733398438 -428.630859375 52.439453125 -463.919921875 c 2,7,-1
 29.3330078125 -466.358398438 l 1,8,-1
 -9.3505859375 -251.701171875 l 1,9,-1
 17.8916015625 -249.28125 l 2,10,11
 102.677734375 -241.75 102.677734375 -241.75 172.577148438 -224.596679688 c 128,-1,12
 242.4765625 -207.442382812 242.4765625 -207.442382812 297.762695312 -180.521484375 c 128,-1,13
 353.048828125 -153.599609375 353.048828125 -153.599609375 394.071289062 -117.143554688 c 128,-1,14
 435.09375 -80.6875 435.09375 -80.6875 462.196289062 -34.2080078125 c 128,-1,15
 489.299804688 12.271484375 489.299804688 12.271484375 502.7578125 68.17578125 c 128,-1,16
 516.21484375 124.080078125 516.21484375 124.080078125 516.443359375 190.240234375 c 0,17,18
 516.984375 383.5703125 516.984375 383.5703125 457.081054688 514.0859375 c 2,19,-1
 446.020507812 538.18359375 l 1,0,-1
EndSplineSet
PairPos2: "'kern' Horizontal Kerning lookup 15-1" uniFEE7 dx=-150 dy=0 dh=-150 dv=0 dx=0 dy=0 dh=0 dv=0
PairPos2: "'kern' Horizontal Kerning lookup 15-2" uniFB90 dx=-190 dy=0 dh=-190 dv=0 dx=0 dy=0 dh=0 dv=0
PairPos2: "'kern' Horizontal Kerning lookup 15-2" uniFB8E dx=-190 dy=0 dh=-190 dv=0 dx=0 dy=0 dh=0 dv=0
PairPos2: "'kern' Horizontal Kerning lookup 15-2" uni06A9 dx=-190 dy=0 dh=-190 dv=0 dx=0 dy=0 dh=0 dv=0
PairPos2: "'kern' Horizontal Kerning lookup 15-2" uni064A dx=-50 dy=0 dh=-50 dv=0 dx=0 dy=0 dh=0 dv=0
PairPos2: "'kern' Horizontal Kerning lookup 15-2" afii57414 dx=-50 dy=0 dh=-50 dv=0 dx=0 dy=0 dh=0 dv=0
PairPos2: "'kern' Horizontal Kerning lookup 15-2" uni0649 dx=-50 dy=0 dh=-50 dv=0 dx=0 dy=0 dh=0 dv=0
PairPos2: "'kern' Horizontal Kerning lookup 15-2" uniFEEB dx=-150 dy=0 dh=-150 dv=0 dx=0 dy=0 dh=0 dv=0
PairPos2: "'kern' Horizontal Kerning lookup 15-2" uni0647 dx=-150 dy=0 dh=-150 dv=0 dx=0 dy=0 dh=0 dv=0
PairPos2: "'kern' Horizontal Kerning lookup 15-2" uni0646 dx=-50 dy=0 dh=-50 dv=0 dx=0 dy=0 dh=0 dv=0
PairPos2: "'kern' Horizontal Kerning lookup 15-2" uniFEE3 dx=-150 dy=0 dh=-150 dv=0 dx=0 dy=0 dh=0 dv=0
PairPos2: "'kern' Horizontal Kerning lookup 15-2" uni0645 dx=-150 dy=0 dh=-150 dv=0 dx=0 dy=0 dh=0 dv=0
PairPos2: "'kern' Horizontal Kerning lookup 15-2" uniFEFB dx=-120 dy=0 dh=-120 dv=0 dx=0 dy=0 dh=0 dv=0
PairPos2: "'kern' Horizontal Kerning lookup 15-2" uniFEDF dx=-120 dy=0 dh=-120 dv=0 dx=0 dy=0 dh=0 dv=0
PairPos2: "'kern' Horizontal Kerning lookup 15-2" uni0644 dx=-50 dy=0 dh=-50 dv=0 dx=0 dy=0 dh=0 dv=0
PairPos2: "'kern' Horizontal Kerning lookup 15-2" uniFEDB dx=-190 dy=0 dh=-190 dv=0 dx=0 dy=0 dh=0 dv=0
PairPos2: "'kern' Horizontal Kerning lookup 15-2" uni0643 dx=-120 dy=0 dh=-120 dv=0 dx=0 dy=0 dh=0 dv=0
PairPos2: "'kern' Horizontal Kerning lookup 15-2" uniFED7 dx=-150 dy=0 dh=-150 dv=0 dx=0 dy=0 dh=0 dv=0
PairPos2: "'kern' Horizontal Kerning lookup 15-2" uni0642 dx=-50 dy=0 dh=-50 dv=0 dx=0 dy=0 dh=0 dv=0
PairPos2: "'kern' Horizontal Kerning lookup 15-2" uniFED3 dx=-150 dy=0 dh=-150 dv=0 dx=0 dy=0 dh=0 dv=0
PairPos2: "'kern' Horizontal Kerning lookup 15-2" uni0641 dx=-150 dy=0 dh=-150 dv=0 dx=0 dy=0 dh=0 dv=0
PairPos2: "'kern' Horizontal Kerning lookup 15-2" uniFECF dx=-150 dy=0 dh=-150 dv=0 dx=0 dy=0 dh=0 dv=0
PairPos2: "'kern' Horizontal Kerning lookup 15-2" uniFECB dx=-150 dy=0 dh=-150 dv=0 dx=0 dy=0 dh=0 dv=0
PairPos2: "'kern' Horizontal Kerning lookup 15-2" uniFEC7 dx=-150 dy=0 dh=-150 dv=0 dx=0 dy=0 dh=0 dv=0
PairPos2: "'kern' Horizontal Kerning lookup 15-2" uni0638 dx=-150 dy=0 dh=-150 dv=0 dx=0 dy=0 dh=0 dv=0
PairPos2: "'kern' Horizontal Kerning lookup 15-2" uniFEC3 dx=-150 dy=0 dh=-150 dv=0 dx=0 dy=0 dh=0 dv=0
PairPos2: "'kern' Horizontal Kerning lookup 15-2" uni0637 dx=-150 dy=0 dh=-150 dv=0 dx=0 dy=0 dh=0 dv=0
PairPos2: "'kern' Horizontal Kerning lookup 15-2" uniFEBF dx=-150 dy=0 dh=-150 dv=0 dx=0 dy=0 dh=0 dv=0
PairPos2: "'kern' Horizontal Kerning lookup 15-2" uni0636 dx=-150 dy=0 dh=-150 dv=0 dx=0 dy=0 dh=0 dv=0
PairPos2: "'kern' Horizontal Kerning lookup 15-2" uniFEBB dx=-150 dy=0 dh=-150 dv=0 dx=0 dy=0 dh=0 dv=0
PairPos2: "'kern' Horizontal Kerning lookup 15-2" uni0635 dx=-150 dy=0 dh=-150 dv=0 dx=0 dy=0 dh=0 dv=0
PairPos2: "'kern' Horizontal Kerning lookup 15-2" uniFEB7 dx=-150 dy=0 dh=-150 dv=0 dx=0 dy=0 dh=0 dv=0
PairPos2: "'kern' Horizontal Kerning lookup 15-2" uni0634 dx=-150 dy=0 dh=-150 dv=0 dx=0 dy=0 dh=0 dv=0
PairPos2: "'kern' Horizontal Kerning lookup 15-2" uniFEB3 dx=-150 dy=0 dh=-150 dv=0 dx=0 dy=0 dh=0 dv=0
PairPos2: "'kern' Horizontal Kerning lookup 15-2" uni0633 dx=-150 dy=0 dh=-150 dv=0 dx=0 dy=0 dh=0 dv=0
PairPos2: "'kern' Horizontal Kerning lookup 15-2" uni0630 dx=-150 dy=0 dh=-150 dv=0 dx=0 dy=0 dh=0 dv=0
PairPos2: "'kern' Horizontal Kerning lookup 15-2" uni062F dx=-150 dy=0 dh=-150 dv=0 dx=0 dy=0 dh=0 dv=0
PairPos2: "'kern' Horizontal Kerning lookup 15-2" uniFEA7 dx=-150 dy=0 dh=-150 dv=0 dx=0 dy=0 dh=0 dv=0
PairPos2: "'kern' Horizontal Kerning lookup 15-2" uniFEA3 dx=-150 dy=0 dh=-150 dv=0 dx=0 dy=0 dh=0 dv=0
PairPos2: "'kern' Horizontal Kerning lookup 15-2" uniFE9F dx=-150 dy=0 dh=-150 dv=0 dx=0 dy=0 dh=0 dv=0
PairPos2: "'kern' Horizontal Kerning lookup 15-2" uniFE9B dx=-150 dy=0 dh=-150 dv=0 dx=0 dy=0 dh=0 dv=0
PairPos2: "'kern' Horizontal Kerning lookup 15-2" uni062B dx=-150 dy=0 dh=-150 dv=0 dx=0 dy=0 dh=0 dv=0
PairPos2: "'kern' Horizontal Kerning lookup 15-2" uniFE97 dx=-150 dy=0 dh=-150 dv=0 dx=0 dy=0 dh=0 dv=0
PairPos2: "'kern' Horizontal Kerning lookup 15-2" uni062A dx=-150 dy=0 dh=-150 dv=0 dx=0 dy=0 dh=0 dv=0
PairPos2: "'kern' Horizontal Kerning lookup 15-2" uni0629 dx=-150 dy=0 dh=-150 dv=0 dx=0 dy=0 dh=0 dv=0
PairPos2: "'kern' Horizontal Kerning lookup 15-2" uniFE91 dx=-50 dy=0 dh=-50 dv=0 dx=0 dy=0 dh=0 dv=0
PairPos2: "'kern' Horizontal Kerning lookup 15-2" uni0628 dx=-150 dy=0 dh=-150 dv=0 dx=0 dy=0 dh=0 dv=0
PairPos2: "'kern' Horizontal Kerning lookup 15-2" uni0627 dx=-120 dy=0 dh=-120 dv=0 dx=0 dy=0 dh=0 dv=0
PairPos2: "'kern' Horizontal Kerning lookup 15-2" uni0623 dx=-120 dy=0 dh=-120 dv=0 dx=0 dy=0 dh=0 dv=0
PairPos2: "'kern' Horizontal Kerning lookup 15-2" uni0622 dx=-120 dy=0 dh=-120 dv=0 dx=0 dy=0 dh=0 dv=0
PairPos2: "'kern' Horizontal Kerning lookup 15-2" uni0621 dx=-150 dy=0 dh=-150 dv=0 dx=0 dy=0 dh=0 dv=0
PairPos2: "'kern' Horizontal Kerning lookup 15-2" uniFB94 dx=-190 dy=0 dh=-190 dv=0 dx=0 dy=0 dh=0 dv=0
PairPos2: "'kern' Horizontal Kerning lookup 15-2" uniFB92 dx=-190 dy=0 dh=-190 dv=0 dx=0 dy=0 dh=0 dv=0
PairPos2: "'kern' Horizontal Kerning lookup 15-2" afii57509 dx=-190 dy=0 dh=-190 dv=0 dx=0 dy=0 dh=0 dv=0
PairPos2: "'kern' Horizontal Kerning lookup 15-2" afii57506 dx=-150 dy=0 dh=-150 dv=0 dx=0 dy=0 dh=0 dv=0
PairPos2: "'kern' Horizontal Kerning lookup 15-2" afii57440 dx=-150 dy=0 dh=-150 dv=0 dx=0 dy=0 dh=0 dv=0
PairPos2: "'kern' Horizontal Kerning lookup 15-2" uniFE8B dx=-150 dy=0 dh=-150 dv=0 dx=0 dy=0 dh=0 dv=0
Substitution2: "'fina' Terminal Forms in Arabic lookup 9 subtable" uniFEAE
EndChar

StartChar: uni0633
Encoding: 1587 1587 29
Width: 2575
VWidth: 2418
GlyphClass: 2
Flags: W
AnchorPoint: "Anchor-10" 611.938 952.991 basechar 0
AnchorPoint: "Anchor-7" 385.709 -709.993 basechar 0
LayerCount: 2
Fore
SplineSet
1835.0234375 127.51171875 m 1,0,1
 1797.07910156 63.2265625 1797.07910156 63.2265625 1732.18847656 31.61328125 c 128,-1,2
 1667.29785156 0 1667.29785156 0 1577.95410156 0 c 0,3,4
 1473.96679688 0 1473.96679688 0 1407.84082031 41.0126953125 c 1,5,6
 1387.79101562 -218.447265625 1387.79101562 -218.447265625 1220.953125 -349.444335938 c 128,-1,7
 1054.11425781 -480.44140625 1054.11425781 -480.44140625 749.252929688 -479.88671875 c 0,8,9
 251.90234375 -479.188476562 251.90234375 -479.188476562 130.407226562 -128.82421875 c 0,10,11
 93.0771484375 -20.044921875 93.0771484375 -20.044921875 92.90234375 119.115234375 c 0,12,13
 93.0029296875 287.17578125 93.0029296875 287.17578125 171.21875 515.18359375 c 2,14,-1
 178.896484375 537.564453125 l 1,15,-1
 388.094726562 478.435546875 l 1,16,-1
 379.686523438 453.530273438 l 2,17,18
 315.983398438 264.84375 315.983398438 264.84375 315.358398438 112.168945312 c 0,19,20
 315.663085938 -76.2470703125 315.663085938 -76.2470703125 422.494140625 -168.041015625 c 128,-1,21
 529.326171875 -259.834960938 529.326171875 -259.834960938 752.319335938 -259.6796875 c 0,22,23
 980.873046875 -259.834960938 980.873046875 -259.834960938 1090.00488281 -170.915039062 c 128,-1,24
 1199.13671875 -81.994140625 1199.13671875 -81.994140625 1199.25976562 99.76171875 c 0,25,26
 1199.00488281 277.829101562 1199.00488281 277.829101562 1132.97363281 535.452148438 c 2,27,-1
 1126.43457031 560.963867188 l 1,28,-1
 1345.94140625 605.1953125 l 1,29,-1
 1350.68359375 580.396484375 l 2,30,31
 1356.61328125 549.391601562 1356.61328125 549.391601562 1362.74023438 512.415039062 c 0,32,33
 1382.53808594 401.798828125 1382.53808594 401.798828125 1388.19433594 375.1484375 c 0,34,35
 1404.93945312 301.91796875 1404.93945312 301.91796875 1451.32617188 267.087890625 c 128,-1,36
 1497.71191406 232.2578125 1497.71191406 232.2578125 1579.81445312 232.477539062 c 0,37,38
 1651.18652344 232.709960938 1651.18652344 232.709960938 1687.45898438 266.671875 c 128,-1,39
 1723.73144531 300.633789062 1723.73144531 300.633789062 1731.01855469 374.71875 c 2,40,-1
 1755.67285156 625.380859375 l 1,41,-1
 1932.60839844 625.380859375 l 1,42,-1
 1955.88867188 373.938476562 l 2,43,44
 1962.640625 299.857421875 1962.640625 299.857421875 1999.33691406 266.1875 c 128,-1,45
 2036.03320312 232.516601562 2036.03320312 232.516601562 2109.30371094 232.9375 c 0,46,47
 2167.52441406 232.991210938 2167.52441406 232.991210938 2200.46582031 262.111328125 c 0,48,49
 2276.56347656 329.041992188 2276.56347656 329.041992188 2260.09277344 461.90625 c 0,50,51
 2257.24902344 484.8515625 2257.24902344 484.8515625 2251.88867188 510.697265625 c 128,-1,52
 2246.52929688 536.543945312 2246.52929688 536.543945312 2238.64453125 565.30859375 c 128,-1,53
 2230.75976562 594.073242188 2230.75976562 594.073242188 2220.26269531 625.850585938 c 128,-1,54
 2209.76660156 657.626953125 2209.76660156 657.626953125 2196.76660156 692.032226562 c 2,55,-1
 2188.30371094 714.430664062 l 1,56,-1
 2387.50976562 799.690429688 l 1,57,-1
 2398 778.477539062 l 2,58,59
 2408.5546875 757.13671875 2408.5546875 757.13671875 2417.82128906 734.95703125 c 128,-1,60
 2427.08789062 712.778320312 2427.08789062 712.778320312 2435.04980469 689.81640625 c 128,-1,61
 2443.01171875 666.85546875 2443.01171875 666.85546875 2449.69042969 643.065429688 c 128,-1,62
 2456.37011719 619.275390625 2456.37011719 619.275390625 2461.75488281 594.713867188 c 128,-1,63
 2467.13964844 570.15234375 2467.13964844 570.15234375 2471.24609375 544.770507812 c 128,-1,64
 2475.35253906 519.389648438 2475.35253906 519.389648438 2478.17480469 493.247070312 c 128,-1,65
 2480.99707031 467.103515625 2480.99707031 467.103515625 2482.54492188 440.151367188 c 0,66,67
 2493.53125 243.165039062 2493.53125 243.165039062 2378.80273438 112.883789062 c 0,68,69
 2346.14160156 75.427734375 2346.14160156 75.427734375 2305.41503906 50.2421875 c 128,-1,70
 2264.6875 25.0556640625 2264.6875 25.0556640625 2217.01660156 12.52734375 c 128,-1,71
 2169.34570312 0 2169.34570312 0 2115.0546875 0 c 0,72,73
 1909.953125 -0.9033203125 1909.953125 -0.9033203125 1835.0234375 127.51171875 c 1,0,1
EndSplineSet
Substitution2: "'fina' Terminal Forms in Arabic lookup 9 subtable" uniFEB2
Substitution2: "'medi' Medial Forms in Arabic lookup 11 subtable" uniFEB4
Substitution2: "'init' Initial Forms in Arabic lookup 13 subtable" uniFEB3
EndChar

StartChar: uni0635
Encoding: 1589 1589 31
Width: 2529
VWidth: 2418
GlyphClass: 2
Flags: W
AnchorPoint: "Anchor-10" 539.816 952.991 basechar 0
AnchorPoint: "Anchor-7" 420.904 -627.235 basechar 0
LayerCount: 2
Fore
SplineSet
1420.92871094 335.341796875 m 1,0,1
 1760.50097656 823.997070312 1760.50097656 823.997070312 2079.13183594 824.103515625 c 0,2,3
 2257.98339844 824.048828125 2257.98339844 824.048828125 2348.65136719 720.372070312 c 128,-1,4
 2439.31933594 616.6953125 2439.31933594 616.6953125 2436.40722656 418.809570312 c 0,5,6
 2432.76953125 184.983398438 2432.76953125 184.983398438 2236.34472656 78.611328125 c 0,7,8
 2089.25097656 -1.044921875 2089.25097656 -1.044921875 1728.00195312 -0.828125 c 2,9,-1
 1726.57421875 -0.8271484375 l 2,10,11
 1724.44335938 -0.8544921875 1724.44335938 -0.8544921875 1718.91015625 -0.83203125 c 128,-1,12
 1713.37597656 -0.80859375 1713.37597656 -0.80859375 1703.53417969 -0.7353515625 c 2,13,-1
 1604.59179688 0.0009765625 l 2,14,15
 1464.00292969 0.9267578125 1464.00292969 0.9267578125 1403.46679688 65.1767578125 c 1,16,17
 1397.04101562 -113.256835938 1397.04101562 -113.256835938 1321.38574219 -234.25390625 c 128,-1,18
 1245.72949219 -355.251953125 1245.72949219 -355.251953125 1103.99316406 -416.592773438 c 128,-1,19
 962.255859375 -477.934570312 962.255859375 -477.934570312 756.52734375 -479.885742188 c 0,20,21
 749.915039062 -479.94921875 749.915039062 -479.94921875 743.3671875 -479.950195312 c 0,22,23
 422.53515625 -480.025390625 422.53515625 -480.025390625 257.744140625 -328.786132812 c 128,-1,24
 92.9521484375 -177.547851562 92.9521484375 -177.547851562 92.90234375 119.115234375 c 0,25,26
 93.0029296875 287.17578125 93.0029296875 287.17578125 171.21875 515.18359375 c 2,27,-1
 178.883789062 537.528320312 l 1,28,-1
 389.106445312 478.475585938 l 1,29,-1
 380.686523438 453.532226562 l 2,30,31
 315.982421875 261.84375 315.982421875 261.84375 315.358398438 112.16796875 c 0,32,33
 315.663085938 -76.228515625 315.663085938 -76.228515625 422.724609375 -168.03125 c 128,-1,34
 529.787109375 -259.834960938 529.787109375 -259.834960938 753.26953125 -259.680664062 c 0,35,36
 982.34765625 -259.834960938 982.34765625 -259.834960938 1091.21484375 -170.947265625 c 128,-1,37
 1200.08203125 -82.05859375 1200.08203125 -82.05859375 1199.25976562 99.6484375 c 0,38,39
 1198.02148438 284.727539062 1198.02148438 284.727539062 1133.00097656 535.383789062 c 2,40,-1
 1126.36914062 560.951171875 l 1,41,-1
 1347.21191406 605.447265625 l 1,42,-1
 1350.72265625 578.94140625 l 2,43,44
 1354.63769531 549.3828125 1354.63769531 549.3828125 1359.10742188 522.59375 c 128,-1,45
 1363.57714844 495.805664062 1363.57714844 495.805664062 1368.30273438 473.275390625 c 128,-1,46
 1373.02832031 450.745117188 1373.02832031 450.745117188 1378.05761719 431.421875 c 128,-1,47
 1383.0859375 412.09765625 1383.0859375 412.09765625 1388.25390625 396.76953125 c 128,-1,48
 1393.421875 381.44140625 1393.421875 381.44140625 1398.6328125 369.801757812 c 128,-1,49
 1403.84375 358.162109375 1403.84375 358.162109375 1409.06835938 350.301757812 c 0,50,51
 1415.02246094 341.416015625 1415.02246094 341.416015625 1420.92871094 335.341796875 c 1,0,1
1598.59179688 243.618164062 m 1,52,-1
 1759.34082031 243.618164062 l 2,53,54
 1834.59863281 243.807617188 1834.59863281 243.807617188 1899.17089844 246.002929688 c 128,-1,55
 1963.74316406 248.19921875 1963.74316406 248.19921875 2017.0546875 252.366210938 c 0,56,57
 2113.91894531 260.623046875 2113.91894531 260.623046875 2161.34863281 295.263671875 c 128,-1,58
 2208.77832031 329.904296875 2208.77832031 329.904296875 2215.22851562 391.331054688 c 0,59,60
 2217.34375 412.04296875 2217.34375 412.04296875 2217.37109375 430.625 c 0,61,62
 2217.45117188 485.658203125 2217.45117188 485.658203125 2200.55566406 520.161132812 c 128,-1,63
 2183.66015625 554.663085938 2183.66015625 554.663085938 2148.03320312 571.314453125 c 128,-1,64
 2112.40527344 587.96484375 2112.40527344 587.96484375 2055.38769531 587.951171875 c 0,65,66
 1868.45117188 587.994140625 1868.45117188 587.994140625 1598.59179688 243.618164062 c 1,52,-1
EndSplineSet
Substitution2: "'fina' Terminal Forms in Arabic lookup 9 subtable" uniFEBA
Substitution2: "'medi' Medial Forms in Arabic lookup 11 subtable" uniFEBC
Substitution2: "'init' Initial Forms in Arabic lookup 13 subtable" uniFEBB
EndChar

StartChar: uni0637
Encoding: 1591 1591 33
Width: 1448
VWidth: 2418
GlyphClass: 2
Flags: W
AnchorPoint: "Anchor-10" 403.599 1591.85 basechar 0
AnchorPoint: "Anchor-7" 665.982 -295.158 basechar 0
LayerCount: 2
Fore
SplineSet
517.334960938 244.35546875 m 1,0,-1
 678.14453125 244.35546875 l 2,1,2
 881.893554688 244.018554688 881.893554688 244.018554688 958.328125 251.956054688 c 0,3,4
 1042.99511719 260.749023438 1042.99511719 260.749023438 1085.04589844 295.26171875 c 128,-1,5
 1127.09667969 329.775390625 1127.09667969 329.775390625 1133.99511719 392.263671875 c 0,6,7
 1136.66992188 415.215820312 1136.66992188 415.215820312 1136.69335938 435.451171875 c 0,8,9
 1136.75585938 488.934570312 1136.75585938 488.934570312 1119.69238281 522.522460938 c 128,-1,10
 1102.62988281 556.110351562 1102.62988281 556.110351562 1066.26367188 572.482421875 c 128,-1,11
 1029.89746094 588.854492188 1029.89746094 588.854492188 971.595703125 588.799804688 c 0,12,13
 787.328125 588.977539062 787.328125 588.977539062 517.334960938 244.35546875 c 1,0,-1
532.616210938 583.879882812 m 1,14,15
 608 662 608 662 683.736328125 714.653320312 c 0,16,17
 759 767 759 767 836.186523438 794.01171875 c 0,18,19
 913 821 913 821 990.025390625 820.83984375 c 0,20,21
 996 821 996 821 1001.29101562 820.748046875 c 0,22,23
 1179 818 1179 818 1268.80859375 715.180664062 c 0,24,25
 1359 613 1359 613 1355.15136719 419.470703125 c 0,26,27
 1354 340 1354 340 1331.92480469 274.443359375 c 128,-1,28
 1310 209 1310 209 1267.76171875 159.192382812 c 0,29,30
 1225 109 1225 109 1163.14160156 76.0458984375 c 0,31,32
 1016 -3 1016 -3 646.59765625 -0.0908203125 c 0,33,34
 644 0 644 0 642.206054688 -0.05078125 c 0,35,36
 640 0 640 0 637.811523438 -0.0224609375 c 0,37,38
 636 0 636 0 633.400390625 -0.005859375 c 128,-1,39
 631 0 631 0 628.94921875 0 c 2,40,-1
 92.7392578125 0 l 1,41,-1
 92.7392578125 232.119140625 l 1,42,-1
 259.744140625 232.256835938 l 1,43,44
 285 274 285 274 313.662109375 314.733398438 c 1,45,-1
 313.662109375 1483.81542969 l 5,46,-1
 532.616210938 1483.81542969 l 5,47,-1
 532.616210938 583.879882812 l 1,14,15
EndSplineSet
Substitution2: "'fina' Terminal Forms in Arabic lookup 9 subtable" uniFEC2
Substitution2: "'medi' Medial Forms in Arabic lookup 11 subtable" uniFEC4
Substitution2: "'init' Initial Forms in Arabic lookup 13 subtable" uniFEC3
EndChar

StartChar: uni0639
Encoding: 1593 1593 35
Width: 1294
VWidth: 2418
GlyphClass: 2
Flags: W
AnchorPoint: "Anchor-10" 487.555 1479.15 basechar 0
AnchorPoint: "Anchor-7" 385.631 -765.218 basechar 0
LayerCount: 2
Fore
SplineSet
311.174804688 -11.6162109375 m 4,0,1
 311 -326 311 -326 813.5 -326 c 0,2,3
 1006.83018263 -326 1006.83018263 -326 1124.32617188 -285.668945312 c 2,4,-1
 1149.58984375 -276.997070312 l 1,5,-1
 1205.09570312 -481.928710938 l 1,6,-1
 1184.4921875 -490.219726562 l 2,7,8
 1051 -544 1051 -544 778.627929688 -543.674804688 c 0,9,10
 435 -543 435 -543 264.234863281 -390.59765625 c 0,11,12
 93 -238 93 -238 92.97265625 -7.66015625 c 4,13,14
 94 283 94 283 396.81640625 477.936523438 c 1,15,16
 347 504 347 504 311.763671875 536.890625 c 0,17,18
 207 638 207 638 205.926757812 767.177734375 c 0,19,20
 204 989 204 989 372.109375 1097.30859375 c 0,21,22
 596.543973279 1240.70862671 596.543973279 1240.70862671 920.951171875 1078.01074219 c 2,23,-1
 939.217773438 1068.84960938 l 1,24,-1
 885.365234375 870.075195312 l 1,25,-1
 858.405273438 882.719726562 l 2,26,27
 706 954 706 954 621.124023438 949.233398438 c 0,28,29
 504 944 504 944 460.0078125 892.172851562 c 0,30,31
 416 841 416 841 416.25390625 775.000976562 c 0,32,33
 416 682 416 682 589.565429688 590.206054688 c 1,34,35
 777.810354112 655.93378311 777.810354112 655.93378311 1041.24414062 650.538085938 c 2,36,-1
 1064.94042969 650.052734375 l 1,37,-1
 1071.51855469 449.98046875 l 1,38,-1
 1046.16015625 449.510742188 l 2,39,40
 807 445 807 445 667.193359375 384.45703125 c 0,41,42
 311 230 311 230 311.174804688 -11.6162109375 c 4,0,1
EndSplineSet
Substitution2: "'fina' Terminal Forms in Arabic lookup 9 subtable" uniFECA
Substitution2: "'medi' Medial Forms in Arabic lookup 11 subtable" uniFECC
Substitution2: "'init' Initial Forms in Arabic lookup 13 subtable" uniFECB
EndChar

StartChar: afii57440
Encoding: 1600 1600 37
Width: 676
VWidth: 2418
GlyphClass: 2
Flags: W
AnchorPoint: "Anchor-10" 343.175 1423.04 basechar 0
AnchorPoint: "Anchor-7" 343.175 -104.613 basechar 0
LayerCount: 2
Fore
SplineSet
-11.42578125 0 m 1,0,-1
 -11.42578125 232.2421875 l 1,1,-1
 686.775390625 232.2421875 l 5,2,-1
 686.775390625 0 l 5,3,-1
 -11.42578125 0 l 1,0,-1
EndSplineSet
EndChar

StartChar: uni0643
Encoding: 1603 1603 40
Width: 1909
VWidth: 2418
GlyphClass: 2
Flags: W
AnchorPoint: "Anchor-10" 648.485 1462.58 basechar 0
AnchorPoint: "Anchor-7" 549.645 -248.483 basechar 0
LayerCount: 2
Fore
SplineSet
737.37890625 853.11328125 m 2,0,1
 817.650390625 842.684570312 817.650390625 842.684570312 862.333984375 842.684570312 c 0,2,3
 935.449016846 842.684570312 935.449016846 842.684570312 992.697164673 864.966796875 c 128,-1,4
 1049.9453125 887.249023438 1049.9453125 887.249023438 1049.9453125 920.810058594 c 128,-1,5
 1049.9453125 954.37109375 1049.9453125 954.37109375 972.958984375 966.500488281 c 128,-1,6
 895.97265625 978.629882812 895.97265625 978.629882812 854.043945312 1024.96386719 c 128,-1,7
 812.115234375 1071.29785156 812.115234375 1071.29785156 813.749023438 1146.50683594 c 0,8,9
 818.466796875 1337.27734375 818.466796875 1337.27734375 1149.6953125 1359.63378906 c 2,10,-1
 1176.37890625 1361.43457031 l 1,11,-1
 1176.37890625 1227.82519531 l 1,12,-1
 1153.25683594 1226.08398438 l 2,13,14
 1018.24282309 1215.91425349 1018.24282309 1215.91425349 964.39453125 1170.375 c 0,15,16
 950.756835938 1158.84082031 950.756835938 1158.84082031 950.756835938 1140.07128906 c 0,17,18
 950.756835938 1097.27929688 950.756835938 1097.27929688 1028.42138672 1085.86083984 c 0,19,20
 1186.5703125 1062.60934743 1186.5703125 1062.60934743 1186.5703125 943.983398438 c 0,21,22
 1186.5703125 816.083007812 1186.5703125 816.083007812 1064.52929688 747.067871094 c 128,-1,23
 942.48828125 678.052734375 942.48828125 678.052734375 730.103515625 712.96484375 c 2,24,-1
 709.158203125 716.407226562 l 1,25,-1
 709.158203125 856.780273438 l 1,26,-1
 737.37890625 853.11328125 l 2,0,1
447.937011719 50.0502929688 m 128,-1,28
 274 97 274 97 173.133300781 230.30078125 c 0,29,30
 72 364 72 364 71.0078125 553.829101562 c 0,31,32
 70.9999795245 682.335918129 70.9999795245 682.335918129 108.309570312 786.698242188 c 2,33,-1
 115.908203125 807.953125 l 1,34,-1
 313.923828125 759.208984375 l 1,35,-1
 309.131835938 735.68359375 l 2,36,37
 293 656 293 656 289.809570312 608.821289062 c 0,38,39
 280 466 280 466 351.969726562 379.5625 c 0,40,41
 423 293 423 293 582.212890625 258.168945312 c 0,42,43
 688 235 688 235 927.331542969 234.999023438 c 0,44,45
 1167 235 1167 235 1231.00878906 240.379882812 c 0,46,47
 1589 270 1589 270 1584.390625 502.458007812 c 1,48,-1
 1584.390625 1484.27050781 l 5,49,-1
 1801.7265625 1484.27050781 l 5,50,-1
 1801.7265625 470.25 l 1,51,52
 1803 348 1803 348 1733.28444435 233.069255421 c 0,53,54
 1663 118 1663 118 1454.06054688 51.89453125 c 0,55,56
 1288 -0 1288 -0 954.682943101 1.48675419944 c 0,57,27
 622 3 622 3 447.937011719 50.0502929688 c 128,-1,28
EndSplineSet
Substitution2: "'fina' Terminal Forms in Arabic lookup 9 subtable" uniFEDA
Substitution2: "'medi' Medial Forms in Arabic lookup 11 subtable" uniFEDC
Substitution2: "'init' Initial Forms in Arabic lookup 13 subtable" uniFEDB
EndChar

StartChar: uni0644
Encoding: 1604 1604 41
Width: 1406
VWidth: 2418
GlyphClass: 2
Flags: W
AnchorPoint: "Anchor-10" 492.778 1197.9 basechar 0
AnchorPoint: "Anchor-7" 457.788 -544.038 basechar 0
LayerCount: 2
Fore
SplineSet
1060.19042969 1483.19140625 m 5,0,-1
 1278.04589844 1483.19140625 l 5,1,-1
 1278.04589844 513.487304688 l 2,2,3
 1278 423 1278 423 1278 344.764648438 c 0,4,5
 1278 320 1278 320 1275.44921875 230.143554688 c 0,6,7
 1267 -58 1267 -58 1124.5 -216.5 c 0,8,9
 980 -377 980 -377 664.4453125 -376.479492188 c 0,10,11
 416 -376 416 -376 251.946289062 -233.517578125 c 128,-1,12
 88 -91 88 -91 87.9619140625 175.0859375 c 0,13,14
 88 323.672851562 88 323.672851562 142.072265625 463.421875 c 2,15,-1
 149.811523438 483.423828125 l 1,16,-1
 344.185546875 440.669921875 l 1,17,-1
 336.7265625 415.014648438 l 1,18,19
 304 309 304 309 303.930664062 183.438476562 c 0,20,21
 304 11 304 11 396.5 -72 c 128,-1,22
 489 -155 489 -155 681.516601562 -155.413085938 c 0,23,24
 923.397460938 -156.989257812 923.397460938 -156.989257812 1012.72167969 -10.1015625 c 0,25,26
 1058.57617188 64.3115234375 1058.57617188 64.3115234375 1058.75683594 223.267578125 c 2,27,-1
 1060.19042969 1483.19140625 l 5,0,-1
EndSplineSet
Substitution2: "'fina' Terminal Forms in Arabic lookup 9 subtable" uniFEDE
Substitution2: "'medi' Medial Forms in Arabic lookup 11 subtable" uniFEE0
Substitution2: "'init' Initial Forms in Arabic lookup 13 subtable" uniFEDF
EndChar

StartChar: uni0645
Encoding: 1605 1605 42
Width: 1157
VWidth: 2418
GlyphClass: 2
Flags: W
AnchorPoint: "Anchor-10" 611.078 1115.98 basechar 0
AnchorPoint: "Anchor-7" 196.936 -718.918 basechar 0
LayerCount: 2
Fore
SplineSet
553.723632812 590.357421875 m 0,0,1
 539.667480174 572.711792907 539.667480174 572.711792907 526.116004582 532.922590706 c 128,-1,2
 512.56452899 493.133388505 512.56452899 493.133388505 513.5625 372.543945312 c 1,3,4
 780.377159041 337.802769585 780.377159041 337.802769585 843.559570312 367.72265625 c 0,5,6
 864.329101562 377.556640625 864.329101562 377.556640625 866.510742188 398.482421875 c 128,-1,7
 868.69140625 419.409179688 868.69140625 419.409179688 845.950195312 472.227539062 c 0,8,9
 770.419921875 626.928710938 770.419921875 626.928710938 627.331054688 626.2734375 c 0,10,11
 581.318359375 626.057617188 581.318359375 626.057617188 553.723632812 590.357421875 c 0,0,1
303.53515625 357.2109375 m 0,12,13
 303.437434509 360.68951626 303.437434509 360.68951626 303.172851562 364.287109375 c 2,14,-1
 303.17578125 365.245117188 l 2,15,16
 304.033203125 654.366210938 304.033203125 654.366210938 433.658203125 767.899414062 c 0,17,18
 513.650390625 838.052734375 513.650390625 838.052734375 621.77734375 837.447265625 c 0,19,20
 936.374862309 838.035044835 936.374862309 838.035044835 1045.84375 487.38671875 c 0,21,22
 1074.47820379 395.672305797 1074.47820379 395.672305797 1068.24511719 370.904296875 c 0,23,24
 1020.90867416 182.632900661 1020.90867416 182.632900661 899.208007812 147.05859375 c 0,25,26
 856.807617188 133.823242188 856.807617188 133.823242188 745.6640625 139.880859375 c 0,27,28
 523.193466581 152.006094251 523.193466581 152.006094251 494.926757812 154.711914062 c 0,29,30
 373.978515625 165.715820312 373.978515625 165.715820312 342.353027344 115.537597656 c 128,-1,31
 310.727539062 65.359375 310.727539062 65.359375 310.727539062 -121.63671875 c 2,32,-1
 310.727539062 -564.821289062 l 1,33,-1
 92.7392578125 -564.821289062 l 1,34,-1
 92.7392578125 -36.26171875 l 2,35,36
 92.7392578125 304.639648438 92.7392578125 304.639648438 303.53515625 357.2109375 c 0,12,13
EndSplineSet
Substitution2: "'init' Initial Forms in Arabic lookup 13 subtable" uniFEE3
Substitution2: "'medi' Medial Forms in Arabic lookup 11 subtable" uniFEE4
Substitution2: "'fina' Terminal Forms in Arabic lookup 9 subtable" uniFEE2
EndChar

StartChar: uni0647
Encoding: 1607 1607 44
Width: 919
VWidth: 2418
GlyphClass: 2
Flags: W
AnchorPoint: "Anchor-10" 415.621 1206.85 basechar 0
AnchorPoint: "Anchor-7" 311.632 -277.353 basechar 0
LayerCount: 2
Fore
SplineSet
474.0390625 201.005859375 m 1,0,1
 549.634765625 201.276367188 549.634765625 201.276367188 582.944335938 232.784179688 c 128,-1,2
 616.254882812 264.291992188 616.254882812 264.291992188 616.314453125 333.6015625 c 0,3,4
 616.196289062 454.298828125 616.196289062 454.298828125 457.181640625 587.115234375 c 1,5,6
 404.588867188 538.927734375 404.588867188 538.927734375 369.919921875 494.672851562 c 128,-1,7
 335.251953125 450.41796875 335.251953125 450.41796875 319.33984375 413.25390625 c 128,-1,8
 303.427734375 376.090820312 303.427734375 376.090820312 303.33203125 343.28515625 c 0,9,10
 303.483398438 272.713867188 303.483398438 272.713867188 343.823242188 238.239257812 c 128,-1,11
 384.162109375 203.763671875 384.162109375 203.763671875 474.0390625 201.005859375 c 1,0,1
412.145507812 917.678710938 m 2,12,13
 832.76953125 574.163085938 832.76953125 574.163085938 832.572265625 307.110351562 c 0,14,15
 832.646484375 139.893554688 832.646484375 139.893554688 683.260742188 48.658203125 c 0,16,17
 595.861328125 -5.0322265625 595.861328125 -5.0322265625 475.177734375 -5.03125 c 0,18,19
 355.797851562 -5.0302734375 355.797851562 -5.0302734375 267.735351562 37.84375 c 0,20,21
 178.6171875 82.2314453125 178.6171875 82.2314453125 132.799804688 154.424804688 c 128,-1,22
 86.982421875 226.618164062 86.982421875 226.618164062 86.9638671875 323.151367188 c 0,23,24
 87.0009765625 462.317382812 87.0009765625 462.317382812 233.609375 640.319335938 c 2,25,-1
 306.962890625 730.819335938 l 1,26,-1
 254.505859375 775.045898438 l 1,27,-1
 393.486328125 932.916992188 l 1,28,-1
 412.145507812 917.678710938 l 2,12,13
EndSplineSet
Substitution2: "'fina' Terminal Forms in Arabic lookup 9 subtable" uniFEEA
Substitution2: "'medi' Medial Forms in Arabic lookup 11 subtable" uniFEEC
Substitution2: "'init' Initial Forms in Arabic lookup 13 subtable" uniFEEB
EndChar

StartChar: uni0648
Encoding: 1608 1608 45
Width: 907
VWidth: 2418
GlyphClass: 2
Flags: W
AnchorPoint: "Anchor-10" 393.293 1156.9 basechar 0
AnchorPoint: "Anchor-7" 354.53 -632.771 basechar 0
LayerCount: 2
Fore
SplineSet
599.716796875 225.254882812 m 1,0,1
 596.099609375 537.095703125 596.099609375 537.095703125 471.881835938 537.522460938 c 0,2,3
 397.155273438 537.915039062 397.155273438 537.915039062 354.747070312 443.268554688 c 0,4,5
 329.994140625 388.591796875 329.994140625 388.591796875 329.942382812 341.219726562 c 0,6,7
 329.991210938 278.84375 329.991210938 278.84375 367.196289062 248.361328125 c 0,8,9
 428.1484375 198.684570312 428.1484375 198.684570312 599.716796875 225.254882812 c 1,0,1
814.108398438 137.2890625 m 0,10,11
 799.413085938 -140.76171875 799.413085938 -140.76171875 615.901367188 -303.557617188 c 0,12,13
 467.430664062 -436.205078125 467.430664062 -436.205078125 137.491210938 -464.174804688 c 2,14,-1
 114.76171875 -466.1015625 l 1,15,-1
 76.8349609375 -252.899414062 l 1,16,-1
 103.752929688 -250.267578125 l 2,17,18
 293.27734375 -231.734375 293.27734375 -231.734375 410.034179688 -166.629882812 c 128,-1,19
 526.790039062 -101.524414062 526.790039062 -101.524414062 574.8984375 8.40625 c 1,20,21
 497.569335938 -0.9521484375 497.569335938 -0.9521484375 454.41796875 -0.732421875 c 0,22,23
 263.764648438 1.1279296875 263.764648438 1.1279296875 180.564453125 122.087890625 c 0,24,25
 59.4970703125 297.271484375 59.4970703125 297.271484375 163.79296875 534.750976562 c 0,26,27
 271.646484375 780.973632812 271.646484375 780.973632812 464.633789062 781.28125 c 0,28,29
 650.680664062 780.974609375 650.680664062 780.974609375 753.668945312 568.377929688 c 0,30,31
 828.294921875 413.08203125 828.294921875 413.08203125 814.108398438 137.2890625 c 0,10,11
EndSplineSet
Substitution2: "'fina' Terminal Forms in Arabic lookup 9 subtable" uniFEEE
EndChar

StartChar: uni0649
Encoding: 1609 1609 46
Width: 1495
VWidth: 2418
GlyphClass: 2
Flags: W
AnchorPoint: "Anchor-10" 483.206 1099.7 basechar 0
AnchorPoint: "Anchor-7" 460.913 -619.935 basechar 0
LayerCount: 2
Fore
SplineSet
386.2578125 504.830078125 m 2,0,1
 215.625400421 72.071896182 215.625400421 72.071896182 405.078125 -92.111328125 c 0,2,3
 508.421875 -182.994140625 508.421875 -182.994140625 726.123046875 -182.850585938 c 0,4,5
 893.101987741 -182.996416526 893.101987741 -182.996416526 1014.92480469 -133.263671875 c 0,6,7
 1182.06738281 -64.248046875 1182.06738281 -64.248046875 1182.50195312 43.6845703125 c 0,8,9
 1182.68164062 66.1533203125 1182.68164062 66.1533203125 1174.43554688 74.6865234375 c 128,-1,10
 1166.18945312 83.2197265625 1166.18945312 83.2197265625 1142.48828125 84.4990234375 c 0,11,12
 978.516601562 92.23046875 978.516601562 92.23046875 900.59765625 124.1328125 c 0,13,14
 757.077148438 181.885742188 757.077148438 181.885742188 781.762207031 405.671875 c 128,-1,15
 806.447265625 629.458007812 806.447265625 629.458007812 987.299804688 747.911132812 c 0,16,17
 1109.54199219 828.001953125 1109.54199219 828.001953125 1246.75585938 827.973632812 c 0,18,19
 1289.60305831 828.000921539 1289.60305831 828.000921539 1335.29882812 822.098632812 c 2,20,-1
 1358.9609375 819.04296875 l 1,21,-1
 1341.94824219 611.31640625 l 1,22,-1
 1296.16015625 611.31640625 l 2,23,24
 1109.36449056 611.020855634 1109.36449056 611.020855634 1027.76464844 489.077148438 c 0,25,26
 989.000976562 431.3828125 989.000976562 431.3828125 989.005859375 365.536132812 c 0,27,28
 989.001953125 340.153320312 989.001953125 340.153320312 1002.72900391 331.917480469 c 128,-1,29
 1016.45605469 323.681640625 1016.45605469 323.681640625 1037.80371094 318.189453125 c 0,30,31
 1086.65315742 305.624016824 1086.65315742 305.624016824 1185.2670084 299.310055287 c 128,-1,32
 1283.88085938 292.99609375 1283.88085938 292.99609375 1343.3671875 241.845703125 c 128,-1,33
 1402.85351562 190.6953125 1402.85351562 190.6953125 1402.93505859 94.4565429688 c 0,34,35
 1403.16767671 -180.084375851 1403.16767671 -180.084375851 1137.50878906 -317.706054688 c 0,36,37
 971.094900795 -404 971.094900795 -404 735 -404 c 0,38,39
 247.515625 -404 247.515625 -404 134.969726562 -95.8369140625 c 0,40,41
 31.2890625 185.170898438 31.2890625 185.170898438 184.4921875 584.573242188 c 2,42,-1
 193.551757812 608.19140625 l 1,43,-1
 395.405273438 528.030273438 l 1,44,-1
 386.2578125 504.830078125 l 2,0,1
EndSplineSet
Substitution2: "'fina' Terminal Forms in Arabic lookup 9 subtable" uniFEF0
Substitution2: "'medi' Medial Forms in Arabic lookup 11 subtable" uniFBE9
Substitution2: "'init' Initial Forms in Arabic lookup 13 subtable" uniFBE8
EndChar

StartChar: uni064B
Encoding: 1611 1611 48
Width: -27
VWidth: 2304
GlyphClass: 4
Flags: W
AnchorPoint: "Anchor-10" 609.519 1111.82 mark 0
AnchorPoint: "Anchor-9" 609.519 1111.82 mark 0
AnchorPoint: "Anchor-1" 569.519 1660.78 basemark 0
AnchorPoint: "Anchor-1" 609.519 1111.82 mark 0
LayerCount: 2
Fore
SplineSet
302.015625 1058.01181702 m 1,0,-1
 302.015625 1172.7510716 l 1,1,-1
 805.6796875 1378.70301363 l 1,2,-1
 805.6796875 1263.96280149 l 1,3,-1
 302.015625 1058.01181702 l 1,0,-1
302.015625 1331.51572327 m 1,4,-1
 302.015625 1446.25497785 l 1,5,-1
 805.6796875 1652.20691988 l 1,6,-1
 805.6796875 1537.46670774 l 1,7,-1
 302.015625 1331.51572327 l 1,4,-1
EndSplineSet
EndChar

StartChar: uni064C
Encoding: 1612 1612 49
Width: -27
VWidth: 2304
GlyphClass: 4
Flags: W
AnchorPoint: "Anchor-10" 676.432 1216.14 mark 0
AnchorPoint: "Anchor-9" 676.432 1216.14 mark 0
AnchorPoint: "Anchor-1" 567.983 1908.35 basemark 0
AnchorPoint: "Anchor-1" 676.432 1216.14 mark 0
LayerCount: 2
Fore
SplineSet
652.655273437 1732.86425781 m 0,0,1
 569.463867188 1732.86425781 569.463867188 1732.86425781 569.463867188 1658.640625 c 0,2,3
 569.463867188 1604.83203125 569.463867188 1604.83203125 631.455078125 1580.03515625 c 0,4,5
 654.595973423 1570.77996279 654.595973423 1570.77996279 700.032226562 1556.78613281 c 1,6,-1
 713.090820312 1587.25292969 l 2,7,8
 724.69140625 1614.32226562 724.69140625 1614.32226562 724.69140625 1653.09667969 c 128,-1,9
 724.69140625 1691.87109375 724.69140625 1691.87109375 699.799316406 1712.36767578 c 128,-1,10
 674.907226562 1732.86425781 674.907226562 1732.86425781 652.655273437 1732.86425781 c 0,0,1
322.107421875 1515.49121094 m 1,11,12
 324.455667462 1290.57604303 324.455667462 1290.57604303 449.545331419 1291.76660156 c 0,13,14
 518 1292 518 1292 592.768554688 1364.57714844 c 0,15,16
 636.118126436 1406.1131846 636.118126436 1406.1131846 661.806640625 1457.5 c 2,17,-1
 672.059570312 1478.00976562 l 1,18,-1
 649.625 1482.76953125 l 2,19,20
 547 1504 547 1504 510.5 1554 c 128,-1,21
 474 1604 474 1604 474.5 1640 c 0,22,23
 475.662853297 1723.72543742 475.662853297 1723.72543742 509 1765 c 4,24,25
 553 1822 553 1822 635 1822 c 128,-1,26
 717 1822 717 1822 765 1775 c 128,-1,27
 813 1728 813 1728 813.52734375 1645.08105469 c 0,28,29
 813.997428752 1605.21804078 813.997428752 1605.21804078 800.791015625 1563.41113281 c 2,30,-1
 793.893554688 1541.57617188 l 1,31,-1
 816.765625 1540.37597656 l 2,32,33
 842 1539 842 1539 880.192382812 1538.27148438 c 1,34,-1
 880.192382812 1449.32617188 l 1,35,36
 838.775681949 1450.00366941 838.775681949 1450.00366941 823.913085938 1451.43261719 c 2,37,-1
 752.243164062 1458.32324219 l 1,38,39
 719 1380 719 1380 655.074213481 1314.56331625 c 128,-1,40
 591 1249 591 1249 543.5 1226 c 128,-1,41
 496 1203 496 1203 447.08203125 1202.93164062 c 0,42,43
 332 1203 332 1203 279 1347 c 0,44,45
 257 1407 257 1407 255.86328125 1515.49121094 c 1,46,-1
 322.107421875 1515.49121094 l 1,11,12
854.4921875 1539.21972656 m 2,47,-1
 854.388671875 1539.22558594 l 2,48,49
 854.440429688 1539.22265625 854.440429688 1539.22265625 854.4921875 1539.21972656 c 2,47,-1
EndSplineSet
EndChar

StartChar: uni064D
Encoding: 1613 1613 50
Width: -27
VWidth: 2304
GlyphClass: 4
Flags: W
AnchorPoint: "Anchor-7" 552.623 75.7275 mark 0
AnchorPoint: "Anchor-6" 552.623 75.7275 mark 0
AnchorPoint: "Anchor-0" 635.519 -468.112 basemark 0
AnchorPoint: "Anchor-0" 552.623 75.7275 mark 0
LayerCount: 2
Fore
SplineSet
307.295898438 -515.428599567 m 1,0,-1
 307.295898438 -400.688387431 l 1,1,-1
 810.959960938 -194.737402955 l 1,2,-1
 810.959960938 -309.47665754 l 1,3,-1
 307.295898438 -515.428599567 l 1,0,-1
307.295898438 -241.924693317 m 1,4,-1
 307.295898438 -127.184481181 l 1,5,-1
 810.959960938 78.7665032954 l 1,6,-1
 810.959960938 -35.9727512898 l 1,7,-1
 307.295898438 -241.924693317 l 1,4,-1
EndSplineSet
EndChar

StartChar: uni064E
Encoding: 1614 1614 51
Width: -27
VWidth: 2304
GlyphClass: 4
Flags: W
AnchorPoint: "Anchor-10" 577.839 1361.15 mark 0
AnchorPoint: "Anchor-9" 577.839 1361.15 mark 0
AnchorPoint: "Anchor-1" 537.839 1686.13 basemark 0
AnchorPoint: "Anchor-1" 577.839 1361.15 mark 0
LayerCount: 2
Fore
SplineSet
271.391601562 1330.45909574 m 1,0,-1
 271.391601562 1445.19931378 l 1,1,-1
 775.055664062 1651.15125582 l 1,2,-1
 775.055664062 1536.41103778 l 1,3,-1
 271.391601562 1330.45909574 l 1,0,-1
EndSplineSet
EndChar

StartChar: uni064F
Encoding: 1615 1615 52
Width: -27
VWidth: 2304
GlyphClass: 4
Flags: W
AnchorPoint: "Anchor-10" 615.623 1281.01 mark 0
AnchorPoint: "Anchor-9" 615.623 1281.01 mark 0
AnchorPoint: "Anchor-1" 546.519 1923.2 basemark 0
AnchorPoint: "Anchor-1" 615.623 1281.01 mark 0
LayerCount: 2
Fore
SplineSet
822.727539062 1464.22460938 m 1,0,1
 766 1465 766 1465 690.735351562 1473.01953125 c 1,2,3
 638 1399 638 1399 563.377929688 1352.99902344 c 0,4,5
 445 1279 445 1279 311 1274 c 1,6,-1
 311 1362.74121094 l 1,7,8
 469.98114436 1367.90966253 469.98114436 1367.90966253 569.69921875 1477.09472656 c 1,9,-1
 591.280273438 1499.82519531 l 1,10,-1
 560.689453125 1506.61621094 l 2,11,12
 554 1508 554 1508 515.5 1528 c 128,-1,13
 477 1548 477 1548 449 1586.5 c 128,-1,14
 421 1625 421 1625 420.904296875 1671.78222656 c 0,15,16
 421 1763 421 1763 491.776367188 1816.36425781 c 0,17,18
 519 1837 519 1837 589 1837 c 128,-1,19
 659 1837 659 1837 707.5 1789.5 c 128,-1,20
 756 1742 756 1742 756.0625 1659.92871094 c 0,21,22
 756 1626.25097656 756 1626.25097656 741.043945312 1578.18945312 c 2,23,-1
 734.313476562 1556.56152344 l 1,24,-1
 756.931640625 1555.22460938 l 2,25,26
 795 1553 795 1553 822.727539062 1553.02832031 c 1,27,-1
 822.727539062 1464.22460938 l 1,0,1
642.567382812 1571.63476562 m 1,28,-1
 655.625976562 1602.09960938 l 2,29,30
 667.227539062 1629.17382812 667.227539062 1629.17382812 667.227539062 1667.94628906 c 128,-1,31
 667.227539062 1706.71875 667.227539062 1706.71875 642.33203125 1727.21582031 c 128,-1,32
 617.435546875 1747.71191406 617.435546875 1747.71191406 587.264648438 1747.71191406 c 128,-1,33
 557.09375 1747.71191406 557.09375 1747.71191406 534.546875 1730.53710938 c 128,-1,34
 512 1713.36230469 512 1713.36230469 512 1666.52148438 c 128,-1,35
 512 1619.6796875 512 1619.6796875 573.990234375 1594.88183594 c 0,36,37
 597.16015625 1585.61523438 597.16015625 1585.61523438 642.567382812 1571.63476562 c 1,28,-1
EndSplineSet
EndChar

StartChar: uni0650
Encoding: 1616 1616 53
Width: -27
VWidth: 2304
GlyphClass: 4
Flags: W
AnchorPoint: "Anchor-7" 567.391 -16.2002 mark 0
AnchorPoint: "Anchor-6" 567.391 -16.2002 mark 0
AnchorPoint: "Anchor-0" 615.023 -326.944 basemark 0
AnchorPoint: "Anchor-0" 567.391 -16.2002 mark 0
LayerCount: 2
Fore
SplineSet
317.856445312 -352.804583874 m 1,0,-1
 317.856445312 -238.064361577 l 1,1,-1
 821.51953125 -32.1133848752 l 1,2,-1
 821.51953125 -146.853607173 l 1,3,-1
 317.856445312 -352.804583874 l 1,0,-1
EndSplineSet
EndChar

StartChar: uni0651
Encoding: 1617 1617 54
Width: -27
VWidth: 2304
GlyphClass: 4
Flags: W
AnchorPoint: "Anchor-10" 609.519 1390.22 mark 0
AnchorPoint: "Anchor-9" 609.519 1390.22 mark 0
AnchorPoint: "Anchor-1" 578.847 1840.34 basemark 0
AnchorPoint: "Anchor-1" 609.519 1390.22 mark 0
LayerCount: 2
Fore
SplineSet
897.322265625 1812.33496094 m 1,0,1
 910 1721.33076883 910 1721.33076883 910 1636.02050781 c 0,2,3
 910 1483.54199219 910 1483.54199219 818.0546875 1446.34765625 c 0,4,5
 754.688893893 1420.8066864 754.688893893 1420.8066864 689.727389865 1434.45580336 c 128,-1,6
 624.765885837 1448.10492032 624.765885837 1448.10492032 592.666015625 1495.33691406 c 1,7,8
 550.591474249 1366.98634553 550.591474249 1366.98634553 414.973632812 1366.87597656 c 0,9,10
 258.059166187 1367.0085596 258.059166187 1367.0085596 257.186523438 1555.04785156 c 0,11,12
 256.995390961 1591.01781347 256.995390961 1591.01781347 274.46484375 1700.06152344 c 1,13,-1
 374.7421875 1700.06152344 l 1,14,15
 360 1602.6122094 360 1602.6122094 360 1576.96484375 c 0,16,17
 360 1481.91460159 360 1481.91460159 427.458007812 1481.9765625 c 0,18,19
 525.475481591 1481.91087881 525.475481591 1481.91087881 530.614257812 1607.15234375 c 0,20,21
 532.995958328 1671.07026553 532.995958328 1671.07026553 531.670898438 1753.33105469 c 1,22,-1
 630.487304688 1753.33105469 l 1,23,24
 632.997736932 1707.8898552 632.997736932 1707.8898552 633.07455206 1653.44443932 c 0,25,26
 633.233535371 1540.75944219 633.233535371 1540.75944219 743.526367188 1540.93359375 c 0,27,28
 805.0234375 1541.39941406 805.0234375 1541.39941406 805.507324219 1640.94726562 c 128,-1,29
 805.991189363 1740.49067871 805.991189363 1740.49067871 791.764648438 1812.33496094 c 1,30,-1
 897.322265625 1812.33496094 l 1,0,1
EndSplineSet
EndChar

StartChar: uni0652
Encoding: 1618 1618 55
Width: -27
VWidth: 2304
GlyphClass: 4
Flags: W
AnchorPoint: "Anchor-10" 588.527 1187.7 mark 0
AnchorPoint: "Anchor-9" 588.527 1187.7 mark 0
AnchorPoint: "Anchor-1" 573.743 1793.31 basemark 0
AnchorPoint: "Anchor-1" 588.527 1187.7 mark 0
LayerCount: 2
Fore
SplineSet
673.299804688 1373.69140625 m 128,-1,1
 707.344726562 1407.73535156 707.344726562 1407.73535156 707.344726562 1456.75927734 c 128,-1,2
 707.344726562 1505.78320312 707.344726562 1505.78320312 673.299804688 1539.828125 c 128,-1,3
 639.258789062 1573.87304688 639.258789062 1573.87304688 589.5390625 1573.87304688 c 128,-1,4
 539.819335938 1573.87304688 539.819335938 1573.87304688 506.124023438 1540.17675781 c 128,-1,5
 472.427734375 1506.48046875 472.427734375 1506.48046875 472.427734375 1456.75927735 c 128,-1,6
 472.427734375 1407.03808594 472.427734375 1407.03808594 506.124023438 1373.34277344 c 128,-1,7
 539.819335938 1339.64648438 539.819335938 1339.64648438 589.540039063 1339.64648438 c 128,-1,0
 639.260742188 1339.64648438 639.260742188 1339.64648438 673.299804688 1373.69140625 c 128,-1,1
779.41796875 1457.21875 m 128,-1,9
 779.41796875 1377.71484375 779.41796875 1377.71484375 724.528320312 1322.47265625 c 128,-1,10
 669.673828125 1267.2734375 669.673828125 1267.2734375 590.212890625 1267.2734375 c 128,-1,11
 510.752661133 1267.2734375 510.752661133 1267.2734375 455.8984375 1322.47265625 c 128,-1,12
 401.006835938 1377.71515236 401.006835938 1377.71515236 401.006835938 1457.21875 c 128,-1,13
 401.006835938 1536.6953125 401.006835938 1536.6953125 455.8671875 1591.56542969 c 128,-1,14
 510.7265625 1646.42480469 510.7265625 1646.42480469 590.212890625 1646.42480469 c 128,-1,15
 669.698242188 1646.42480469 669.698242188 1646.42480469 724.556640625 1591.56542969 c 128,-1,8
 779.41796875 1536.6953125 779.41796875 1536.6953125 779.41796875 1457.21875 c 128,-1,9
EndSplineSet
EndChar

StartChar: uni0653
Encoding: 1619 1619 56
Width: -28
VWidth: 2393
GlyphClass: 4
Flags: W
AnchorPoint: "Anchor-10" 412.188 1381.58 mark 0
AnchorPoint: "Anchor-9" 412.188 1381.58 mark 0
AnchorPoint: "Anchor-1" 412.188 1762.58 basemark 0
AnchorPoint: "Anchor-1" 412.188 1381.58 mark 0
LayerCount: 2
Fore
SplineSet
336.818403994 1438.61880293 m 2,0,1
 246.595250201 1448.2845166 246.595250201 1448.2845166 168.480470703 1351.16713853 c 2,2,-1
 147.891590198 1325.56970223 l 1,3,-1
 39.7314742228 1475.9037241 l 1,4,-1
 49.4951628403 1490.3498021 l 2,5,6
 157.966725029 1650.84126287 157.966725029 1650.84126287 329.068889102 1629.12327678 c 2,7,-1
 497.85073738 1607.69980823 l 2,8,9
 603.149905882 1594.09302958 603.149905882 1594.09302958 677.439758178 1649.63324894 c 2,10,-1
 700.545654931 1666.9075675 l 1,11,-1
 787.012431937 1508.348184 l 1,12,-1
 773.470934166 1495.11798503 l 2,13,14
 678.208301162 1402.04529761 678.208301162 1402.04529761 498.21879462 1421.32778731 c 2,15,-1
 336.818403994 1438.61880293 l 2,0,1
EndSplineSet
EndChar

StartChar: uni0657
Encoding: 1623 1623 59
Width: -27
VWidth: 2304
GlyphClass: 4
Flags: W
AnchorPoint: "Anchor-10" 569.519 1347.15 mark 0
AnchorPoint: "Anchor-9" 569.519 1347.15 mark 0
AnchorPoint: "Anchor-1" 569.519 2081.6 basemark 0
AnchorPoint: "Anchor-1" 569.519 1347.15 mark 0
LayerCount: 2
Fore
SplineSet
659.133789062 1603.78173828 m 0,0,1
 659 1430 659 1430 491.074544274 1431.54492188 c 0,2,3
 421 1432 421 1432 372.388183594 1478.93945313 c 0,4,5
 324 1526 324 1526 323.975585938 1608.16308594 c 0,6,7
 323.99979061 1641.70979344 323.99979061 1641.70979344 338.994140625 1689.90234375 c 2,8,-1
 345.723632812 1711.53125 l 1,9,-1
 323.10546875 1712.8671875 l 2,10,11
 287 1715 287 1715 257.310546875 1715.06347656 c 1,12,-1
 257.310546875 1803.8671875 l 1,13,14
 314 1803 314 1803 389.303710938 1795.07324219 c 1,15,16
 442 1870 442 1870 516.661132812 1915.09375 c 0,17,18
 698 2026 698 2026 785 2030.74121094 c 5,19,-1
 785 1942 l 5,20,21
 692 1939 692 1939 559.72265625 1835.68164062 c 0,22,23
 533 1815 533 1815 510.338867188 1790.99804688 c 2,24,-1
 488.760742188 1768.28125 l 1,25,-1
 519.344726562 1761.47558594 l 2,26,27
 528 1760 528 1760 565.5 1740 c 128,-1,28
 603 1720 603 1720 631.176757812 1681.52148438 c 0,29,30
 659 1643 659 1643 659.133789062 1603.78173828 c 0,0,1
480.167480469 1520.38085938 m 0,31,32
 568.038085938 1520.38085938 568.038085938 1520.38085938 568.038085938 1594.60449219 c 0,33,34
 568.038085938 1648.41148902 568.038085938 1648.41148902 506.048828125 1673.20996094 c 0,35,36
 482.976628637 1682.4430983 482.976628637 1682.4430983 437.471679688 1696.45898438 c 1,37,-1
 424.413085938 1665.99316406 l 2,38,39
 412.810546875 1638.92285156 412.810546875 1638.92285156 412.810546875 1600.15429688 c 128,-1,40
 412.810546875 1561.38574219 412.810546875 1561.38574219 437.703125 1540.88330078 c 128,-1,41
 462.595703125 1520.38085938 462.595703125 1520.38085938 480.167480469 1520.38085938 c 0,31,32
EndSplineSet
EndChar

StartChar: uni065A
Encoding: 1626 1626 60
Width: 1129
VWidth: 2304
GlyphClass: 4
Flags: W
AnchorPoint: "Anchor-10" 569.519 1347.15 mark 0
AnchorPoint: "Anchor-9" 569.519 1347.15 mark 0
AnchorPoint: "Anchor-1" 567.259 1855.62 basemark 0
AnchorPoint: "Anchor-1" 569.519 1347.15 mark 0
LayerCount: 2
Fore
SplineSet
495.958007812 1434.93457031 m 1,0,-1
 296.83203125 1767.83300781 l 1,1,-1
 413.142578125 1767.83300781 l 1,2,-1
 569.518554688 1533.26269531 l 1,3,-1
 725.89453125 1767.83300781 l 1,4,-1
 842.206054688 1767.83300781 l 1,5,-1
 643.077148438 1434.93457031 l 1,6,-1
 495.958007812 1434.93457031 l 1,0,-1
EndSplineSet
EndChar

StartChar: afii57392
Encoding: 1632 1632 61
Width: 997
VWidth: 2418
GlyphClass: 2
Flags: W
LayerCount: 2
Fore
SplineSet
410.161132812 593.8203125 m 0,0,1
 409.981445312 574.275390625 409.981445312 574.275390625 416.385742188 558.7109375 c 128,-1,2
 422.7890625 543.146484375 422.7890625 543.146484375 436.717773438 529.217773438 c 128,-1,3
 450.630859375 515.3046875 450.630859375 515.3046875 466.264648438 508.828125 c 128,-1,4
 481.899414062 502.3515625 481.899414062 502.3515625 501.3203125 502.440429688 c 0,5,6
 538.97265625 502.267578125 538.97265625 502.267578125 565.921875 529.217773438 c 128,-1,7
 592.872070312 556.16796875 592.872070312 556.16796875 592.700195312 593.8203125 c 0,8,9
 592.744140625 603.5703125 592.744140625 603.5703125 591.180664062 612.227539062 c 128,-1,10
 589.616210938 620.883789062 589.616210938 620.883789062 586.310546875 628.865234375 c 128,-1,11
 583.004882812 636.846679688 583.004882812 636.846679688 577.95703125 644.140625 c 128,-1,12
 572.909179688 651.434570312 572.909179688 651.434570312 565.921875 658.421875 c 0,13,14
 538.97265625 685.372070312 538.97265625 685.372070312 501.3203125 685.200195312 c 0,15,16
 488.326171875 685.259765625 488.326171875 685.259765625 477.151367188 682.418945312 c 128,-1,17
 465.977539062 679.578125 465.977539062 679.578125 456.002929688 673.655273438 c 128,-1,18
 446.029296875 667.733398438 446.029296875 667.733398438 436.717773438 658.421875 c 128,-1,19
 427.447265625 649.151367188 427.447265625 649.151367188 421.541015625 639.122070312 c 128,-1,20
 415.634765625 629.092773438 415.634765625 629.092773438 412.838867188 617.912109375 c 128,-1,21
 410.04296875 606.732421875 410.04296875 606.732421875 410.161132812 593.8203125 c 0,0,1
210.999023438 592.5 m 0,22,23
 210.458007812 651.435546875 210.458007812 651.435546875 231.774414062 703.19140625 c 128,-1,24
 253.090820312 754.946289062 253.090820312 754.946289062 295.322265625 797.177734375 c 0,25,26
 380.692382812 882.547851562 380.692382812 882.547851562 500 882 c 0,27,28
 619.307617188 882.547851562 619.307617188 882.547851562 704.677734375 797.177734375 c 128,-1,29
 790.047851562 711.807617188 790.047851562 711.807617188 789.5 592.5 c 0,30,31
 790.047851562 473.192382812 790.047851562 473.192382812 704.677734375 387.822265625 c 0,32,33
 662.430664062 345.575195312 662.430664062 345.575195312 610.745117188 324.15234375 c 128,-1,34
 559.05859375 302.728515625 559.05859375 302.728515625 500 303 c 0,35,36
 380.692382812 302.452148438 380.692382812 302.452148438 295.322265625 387.822265625 c 128,-1,37
 209.905273438 473.240234375 209.905273438 473.240234375 210.999023438 592.5 c 0,22,23
EndSplineSet
EndChar

StartChar: afii57393
Encoding: 1633 1633 62
Width: 729
VWidth: 2418
GlyphClass: 2
Flags: W
LayerCount: 2
Fore
SplineSet
522.954101562 9.3349609375 m 1,0,-1
 304.389648438 9.3349609375 l 1,1,-1
 304.299804688 34.2451171875 l 2,2,3
 303 343 303 343 259.07421875 755.122070312 c 0,4,5
 215.018821909 1160.8266697 215.018821909 1160.8266697 106.84765625 1362.43261719 c 2,6,-1
 93.0126953125 1388.21777344 l 1,7,-1
 293.126953125 1458.03027344 l 5,8,-1
 303.423828125 1439.91992188 l 2,9,10
 422 1231 422 1231 485.536132812 680.020507812 c 0,11,12
 522.994736468 356.045523655 522.994736468 356.045523655 522.95703125 34.33203125 c 2,13,-1
 522.954101562 9.3349609375 l 1,0,-1
EndSplineSet
EndChar

StartChar: afii57394
Encoding: 1634 1634 63
Width: 1197
VWidth: 2418
GlyphClass: 2
Flags: W
LayerCount: 2
Fore
SplineSet
1094.67871094 1429.30273438 m 2,0,1
 1109.09598344 928.03459231 1109.09598344 928.03459231 827.744140625 826.635742188 c 0,2,3
 760 802 760 802 665 802 c 128,-1,4
 570 802 570 802 501.104492188 826.061523438 c 1,5,6
 534 696 534 696 554.5 439.5 c 0,7,8
 579.333437746 128.779181372 579.333437746 128.779181372 572.763671875 32.630859375 c 2,9,-1
 571.171875 9.3349609375 l 1,10,-1
 354.03125 9.3349609375 l 1,11,-1
 353.950195312 34.25390625 l 2,12,13
 353 273 353 273 304.048276253 648.629108568 c 128,-1,14
 255.096552506 1024.25821714 255.096552506 1024.25821714 105.287109375 1364.12792969 c 2,15,-1
 94.099609375 1389.50878906 l 1,16,-1
 308.616210938 1458.56738281 l 1,17,-1
 402.65234375 1197.67773438 l 2,18,19
 466 1023 466 1023 670.442382812 1022.76757812 c 0,20,21
 774 1023 774 1023 825 1093 c 128,-1,22
 876 1163 876 1163 875.732421875 1314.50195312 c 0,23,24
 875.963865598 1388.45413557 875.963865598 1388.45413557 875.14453125 1428.58007812 c 2,25,-1
 874.622070312 1454.16699219 l 1,26,-1
 1093.98242188 1453.51171875 l 1,27,-1
 1094.67871094 1429.30273438 l 2,0,1
EndSplineSet
EndChar

StartChar: afii57395
Encoding: 1635 1635 64
Width: 1316
VWidth: 2418
GlyphClass: 2
Flags: W
LayerCount: 2
Fore
SplineSet
739.444335938 881.356445312 m 5,0,1
 656 802 656 802 501.846679688 807.927734375 c 5,2,3
 516 743 516 743 543.34375 559.090820312 c 4,4,5
 571.188077296 372.741283402 571.188077296 372.741283402 572.42578125 34.4267578125 c 2,6,-1
 572.517578125 9.3349609375 l 1,7,-1
 353.861328125 9.3349609375 l 1,8,-1
 353.788085938 34.26171875 l 2,9,10
 353 250 353 250 311.291992188 618.013671875 c 4,11,12
 270.222472143 983.02275864 270.222472143 983.02275864 105.453125 1363.9609375 c 6,13,-1
 94.615234375 1389.01757812 l 5,14,-1
 305.123046875 1458.84472656 l 5,15,-1
 397.146484375 1183.57519531 l 6,16,17
 447 1036 447 1036 542.883789062 1035.57226562 c 4,18,19
 586 1035 586 1035 604.416992188 1052.3515625 c 4,20,21
 623 1069 623 1069 625.27734375 1109.484375 c 4,22,23
 631.007532442 1240.1717911 631.007532442 1240.1717911 632.240234375 1377.33691406 c 6,24,-1
 632.462890625 1402.11230469 l 5,25,-1
 826.494140625 1402.11230469 l 5,26,-1
 826.540039062 1377.15820312 l 6,27,28
 827 1129 827 1129 831.981445312 1105.70605469 c 4,29,30
 837 1083 837 1083 842.751953125 1071.58398438 c 4,31,32
 849 1060 849 1060 860.970703125 1050.41015625 c 4,33,34
 886 1030 886 1030 918.201171875 1030.078125 c 4,35,36
 950 1030 950 1030 963.477539062 1034.63085938 c 4,37,38
 977 1039 977 1039 987.341796875 1049.39160156 c 4,39,40
 1034.88582338 1095.88833844 1034.88582338 1095.88833844 1027.19433594 1428.54199219 c 6,41,-1
 1026.60351562 1454.09472656 l 5,42,-1
 1229.484375 1454.296875 l 5,43,-1
 1229.31835938 1429.10742188 l 6,44,45
 1227 1070 1227 1070 1163.31835938 936.532226562 c 4,46,47
 1100 803 1100 803 957.251953125 804.366210938 c 4,48,49
 815 806 815 806 739.444335938 881.356445312 c 5,0,1
EndSplineSet
EndChar

StartChar: afii57396
Encoding: 1636 1636 65
Width: 1023
VWidth: 2418
GlyphClass: 2
Flags: W
LayerCount: 2
Fore
SplineSet
102.008789062 357.458984375 m 0,0,1
 96 572 96 572 404.32421875 751.984375 c 1,2,3
 291 790 291 790 233.706054688 866.365234375 c 0,4,5
 176 943 176 943 178.309570312 1054.25488281 c 0,6,7
 182 1237 182 1237 314.75 1333.31933594 c 0,8,9
 440.487271388 1425.62360374 440.487271388 1425.62360374 697.915039062 1421.84765625 c 2,10,-1
 722.548828125 1421.48632812 l 1,11,-1
 722.548828125 1199.80273438 l 1,12,-1
 698.40625 1198.97460938 l 2,13,14
 403 1189 403 1189 403.0625 1048.42871094 c 0,15,16
 402.999975328 881.934302959 402.999975328 881.934302959 730.517578125 881.127929688 c 2,17,-1
 755.109375 881.067382812 l 1,18,-1
 757.75 692.452148438 l 1,19,-1
 740.459960938 686.642578125 l 2,20,21
 304 540 304 540 312.373046875 365.7265625 c 0,22,23
 319.000915068 236.982225072 319.000915068 236.982225072 532.982421875 237.599609375 c 6,24,-1
 919.515625 238.71484375 l 1,25,-1
 922.086914062 -0.0244140625 l 1,26,-1
 553.700195312 0.37890625 l 2,27,28
 408.650757056 1.01468024695 408.650757056 1.01468024695 311.029296875 40.224609375 c 0,29,30
 212 80 212 80 158.448242188 159.71875 c 0,31,32
 105 240 105 240 102.008789062 357.458984375 c 0,0,1
EndSplineSet
EndChar

StartChar: afii57397
Encoding: 1637 1637 66
Width: 1228
VWidth: 2418
GlyphClass: 2
Flags: W
LayerCount: 2
Fore
SplineSet
592.017578125 959.309570312 m 5,0,1
 455.649759292 825.019273039 455.649759292 825.019273039 390.819508552 715.089226363 c 132,-1,2
 325.989257812 605.159179688 325.989257812 605.159179688 325.945800781 485.952636719 c 4,3,4
 325.856145895 240.021223576 325.856145895 240.021223576 643.514648438 240.290039062 c 4,5,6
 833.515625 240.943359375 833.515625 240.943359375 892.80859375 378.763671875 c 4,7,8
 964.355752882 547.488300257 964.355752882 547.488300257 804.661132812 759.75 c 4,9,10
 703.574508751 893.960028558 703.574508751 893.960028558 592.017578125 959.309570312 c 5,0,1
374.303710938 1121.78710938 m 5,11,-1
 495.721679688 1305.75292969 l 5,12,-1
 515.653320312 1295.53515625 l 6,13,14
 630.083007812 1236.87402344 630.083007812 1236.87402344 772 1114.05957031 c 4,15,16
 1126.00097656 805.369140625 1126.00097656 805.369140625 1125.96484375 484.541015625 c 4,17,18
 1126.00238964 276.93596887 1126.00238964 276.93596887 1025.34277344 172.227539062 c 4,19,20
 888.720703125 27.962890625 888.720703125 27.962890625 619.694335938 28.8994140625 c 4,21,22
 257.8984375 29.0048828125 257.8984375 29.0048828125 139.133789062 290.337890625 c 4,23,24
 101.987304688 372.6484375 101.987304688 372.6484375 102.227539062 475.169921875 c 4,25,26
 103.999023438 771.993164062 103.999023438 771.993164062 419.478515625 1093.78125 c 5,27,-1
 374.303710938 1121.78710938 l 5,11,-1
EndSplineSet
EndChar

StartChar: afii57398
Encoding: 1638 1638 67
Width: 1241
VWidth: 2418
GlyphClass: 2
Flags: W
LayerCount: 2
Fore
SplineSet
740.494140625 1170.87597656 m 5,0,1
 426.010409951 1091.03483696 426.010409951 1091.03483696 55.22265625 1198.14550781 c 5,2,-1
 55.22265625 1430.05175781 l 5,3,-1
 86.58984375 1421.79101562 l 6,4,5
 283 1370 283 1370 489.928710938 1370.39648438 c 4,6,7
 694.462021143 1369.609706 694.462021143 1369.609706 926.07421875 1422.8828125 c 6,8,-1
 956.545898438 1429.89160156 l 5,9,-1
 956.677734375 1398.62304688 l 6,10,11
 959.03977483 889.425530047 959.03977483 889.425530047 1047.24609375 438.3671875 c 0,12,13
 1082.0889661 258.697801585 1082.0889661 258.697801585 1137.15722656 40.4521484375 c 2,14,-1
 1145.00878906 9.3349609375 l 1,15,-1
 907.458007812 9.3349609375 l 1,16,17
 848.842225073 235.979504714 848.842225073 235.979504714 825.921112537 359.989752357 c 128,-1,18
 803 484 803 484 792.021972656 538.51953125 c 128,-1,19
 781 593 781 593 763 791 c 132,-1,20
 745 989 745 989 740.494140625 1170.87597656 c 5,0,1
EndSplineSet
EndChar

StartChar: afii57399
Encoding: 1639 1639 68
Width: 1241
VWidth: 2418
GlyphClass: 2
Flags: W
LayerCount: 2
Fore
SplineSet
509.280273438 32.2705078125 m 6,0,1
 495.723515444 195.885111226 495.723515444 195.885111226 375.763671875 579.913085938 c 4,2,3
 200.959886891 1140.12855548 200.959886891 1140.12855548 85.8349609375 1362.69042969 c 6,4,-1
 72.556640625 1388.36035156 l 5,5,-1
 274.5546875 1458.203125 l 5,6,-1
 284.407226562 1438.73046875 l 6,7,8
 522 969 522 969 620.045898438 455.41015625 c 5,9,10
 716.837283635 964.144764319 716.837283635 964.144764319 955.715820312 1438.69238281 c 6,11,-1
 965.528320312 1458.18554688 l 5,12,-1
 1168.47070312 1388.47460938 l 5,13,-1
 1155.48925781 1362.859375 l 6,14,15
 1038.3040428 1132.46215536 1038.3040428 1132.46215536 864.180664062 579.279296875 c 4,16,17
 742.726377943 193.130051691 742.726377943 193.130051691 730.6640625 22.255859375 c 6,18,-1
 729.751953125 9.3349609375 l 5,19,-1
 511.180664062 9.3349609375 l 5,20,-1
 509.280273438 32.2705078125 l 6,0,1
EndSplineSet
EndChar

StartChar: afii57400
Encoding: 1640 1640 69
Width: 1241
VWidth: 2418
GlyphClass: 2
Flags: W
LayerCount: 2
Fore
SplineSet
731.747070312 1435.26757812 m 6,0,1
 745.303710938 1271.65332031 745.303710938 1271.65332031 865.263671875 887.625 c 4,2,3
 1040.06738281 327.409179688 1040.06738281 327.409179688 1155.19238281 104.84765625 c 6,4,-1
 1168.47070312 79.177734375 l 5,5,-1
 966.47265625 9.3349609375 l 5,6,-1
 956.620117188 28.8076171875 l 6,7,8
 719.02734375 498.538085938 719.02734375 498.538085938 620.981445312 1012.12792969 c 5,9,10
 524.190429688 503.393554688 524.190429688 503.393554688 285.311523438 28.845703125 c 6,11,-1
 275.499023438 9.3525390625 l 5,12,-1
 72.556640625 79.0634765625 l 5,13,-1
 85.5380859375 104.678710938 l 6,14,15
 202.723632812 335.076171875 202.723632812 335.076171875 376.846679688 888.258789062 c 4,16,17
 498.30078125 1274.40820312 498.30078125 1274.40820312 510.36328125 1445.28222656 c 6,18,-1
 511.275390625 1458.203125 l 5,19,-1
 729.846679688 1458.203125 l 5,20,-1
 731.747070312 1435.26757812 l 6,0,1
EndSplineSet
EndChar

StartChar: afii57401
Encoding: 1641 1641 70
Width: 1254
VWidth: 2418
GlyphClass: 2
Flags: W
LayerCount: 2
Fore
SplineSet
919.365234375 9.3349609375 m 1,0,1
 839 379 839 379 811.765625 620.8828125 c 5,2,3
 581 621 581 621 403.44140625 661.625976562 c 4,4,5
 282 689 282 689 198.155273438 781.520507812 c 4,6,7
 103 887 103 887 103.01953125 1051.86328125 c 4,8,9
 103 1216 103 1216 217.221679688 1331.15625 c 4,10,11
 355 1470 355 1470 550.352539062 1469.48828125 c 4,12,13
 746 1469 746 1469 844.297851562 1374.37207031 c 4,14,15
 981 1241 981 1241 997.03515625 1027.79199219 c 4,16,17
 1009 869 1009 869 1047.31835938 553.931640625 c 4,18,19
 1073.78013809 334.82051971 1073.78013809 334.82051971 1149.20996094 40.5419921875 c 2,20,-1
 1157.20898438 9.3349609375 l 1,21,-1
 919.365234375 9.3349609375 l 1,0,1
790.98046875 840.903320312 m 5,22,-1
 783.1796875 937.3671875 l 6,23,24
 770 1099 770 1099 741.8125 1141.39257812 c 4,25,26
 713 1184 713 1184 686.985351562 1205.38476562 c 4,27,28
 636 1247 636 1247 571.15234375 1247.33398438 c 4,29,30
 452 1248 452 1248 386.666015625 1184.61035156 c 4,31,32
 322 1121 322 1121 321.934570312 1058.89941406 c 4,33,34
 322 950 322 950 382.07421875 900.865234375 c 4,35,36
 442 852 442 852 602.647460938 846.755859375 c 4,37,38
 763 842 763 842 790.98046875 840.903320312 c 5,22,-1
EndSplineSet
EndChar

StartChar: afii57381
Encoding: 1642 1642 71
Width: 1303
VWidth: 2418
GlyphClass: 2
Flags: W
LayerCount: 2
Fore
SplineSet
153 1282 m 128,-1,1
 153 1350.35546875 153 1350.35546875 200.322265625 1397.67773438 c 128,-1,2
 247.646484375 1445 247.646484375 1445 316 1445 c 128,-1,3
 384.353515625 1445 384.353515625 1445 431.677734375 1397.67773438 c 128,-1,4
 479 1350.35351562 479 1350.35351562 479 1282.00097656 c 128,-1,5
 479 1213.6484375 479 1213.6484375 431.677734375 1166.32226562 c 128,-1,6
 384.35546875 1119 384.35546875 1119 316 1119 c 128,-1,7
 247.64453125 1119 247.64453125 1119 200.322265625 1166.32226562 c 128,-1,0
 153 1213.64453125 153 1213.64453125 153 1282 c 128,-1,1
842.078125 215.817382812 m 128,-1,9
 842.078125 284.172851562 842.078125 284.172851562 889.400390625 331.495117188 c 128,-1,10
 936.724637753 378.817382813 936.724637753 378.817382813 1005.0781267 378.817382812 c 128,-1,11
 1073.43161564 378.817382812 1073.43161564 378.817382812 1120.75585938 331.495117188 c 128,-1,12
 1168.078125 284.170870059 1168.078125 284.170870059 1168.078125 215.818371244 c 128,-1,13
 1168.078125 147.465872429 1168.078125 147.465872429 1120.75585938 100.139648438 c 128,-1,14
 1073.43359375 52.8173828125 1073.43359375 52.8173828125 1005.078125 52.8173828125 c 128,-1,15
 936.72265625 52.8173828125 936.72265625 52.8173828125 889.400390625 100.139648438 c 128,-1,8
 842.078125 147.461914062 842.078125 147.461914062 842.078125 215.817382812 c 128,-1,9
898.286132812 1420.7265625 m 1,16,-1
 1066 1332 l 1,17,-1
 370.454101562 3.3134765625 l 1,18,-1
 202.35546875 87.162109375 l 1,19,-1
 898.286132812 1420.7265625 l 1,16,-1
EndSplineSet
EndChar

StartChar: uni066B
Encoding: 1643 1643 72
Width: 716
VWidth: 2418
GlyphClass: 2
Flags: W
LayerCount: 2
Fore
SplineSet
451.180664062 593.5234375 m 1,0,-1
 599.296875 518.098632812 l 1,1,-1
 216.474609375 -261.822265625 l 1,2,-1
 66.7353515625 -183.8671875 l 1,3,-1
 451.180664062 593.5234375 l 1,0,-1
EndSplineSet
EndChar

StartChar: uni066C
Encoding: 1644 1644 73
Width: 632
VWidth: 2329
GlyphClass: 2
Flags: W
LayerCount: 2
Fore
SplineSet
319.794921875 397.98828125 m 0,0,1
 385.91015625 396.287109375 385.91015625 396.287109375 428.810546875 361.53125 c 128,-1,2
 471.709960938 326.776367188 471.709960938 326.776367188 485.59375 263.142578125 c 0,3,4
 499.6640625 197.90625 499.6640625 197.90625 475.669921875 104.275390625 c 0,5,6
 447.49609375 -5.6611328125 447.49609375 -5.6611328125 389.876953125 -95.533203125 c 128,-1,7
 332.2578125 -185.40625 332.2578125 -185.40625 245.782226562 -254.153320312 c 2,8,-1
 231.8046875 -265.264648438 l 1,9,-1
 130.682617188 -200.627929688 l 1,10,-1
 156.720703125 -178.744140625 l 2,11,12
 281.76171875 -73.6494140625 281.76171875 -73.6494140625 301.377929688 85.912109375 c 1,13,14
 300.357421875 85.9599609375 300.357421875 85.9599609375 299.522460938 86.0068359375 c 0,15,16
 284.240234375 86.8583984375 284.240234375 86.8583984375 270.444335938 89.0126953125 c 0,17,18
 198.116210938 100.306640625 198.116210938 100.306640625 165.78125 149.154296875 c 128,-1,19
 133.446289062 198.000976562 133.446289062 198.000976562 145.500976562 274.814453125 c 0,20,21
 155.412109375 337.971679688 155.412109375 337.971679688 201.134765625 369.361328125 c 128,-1,22
 246.857421875 400.750976562 246.857421875 400.750976562 319.794921875 397.98828125 c 0,0,1
EndSplineSet
EndChar

StartChar: afii63167
Encoding: 1645 1645 74
Width: 1322
VWidth: 2418
GlyphClass: 2
Flags: W
LayerCount: 2
Fore
SplineSet
101.965820312 908.374023438 m 1,0,-1
 532.162109375 908.374023438 l 1,1,-1
 666.35546875 1316.94433594 l 1,2,-1
 800.548828125 908.374023438 l 1,3,-1
 1230.74609375 908.374023438 l 1,4,-1
 883.23828125 654.333984375 l 1,5,-1
 1016.26074219 245.682617188 l 1,6,-1
 666.35546875 498.526367188 l 1,7,-1
 316.451171875 245.682617188 l 1,8,-1
 449.471679688 654.333984375 l 1,9,-1
 101.965820312 908.374023438 l 1,0,-1
EndSplineSet
EndChar

StartChar: uni066E
Encoding: 1646 1646 75
Width: 1921
VWidth: 2418
GlyphClass: 2
Flags: W
AnchorPoint: "Anchor-10" 850.918 1178.13 basechar 0
AnchorPoint: "Anchor-7" 850.918 -173.254 basechar 0
LayerCount: 2
Fore
SplineSet
1351.10061336 262.852475702 m 128,-1,1
 1467.16113281 290.704101562 1467.16113281 290.704101562 1534.07519531 363.920898438 c 128,-1,2
 1600.98925781 437.138671875 1600.98925781 437.138671875 1600.98046875 553.631835938 c 0,3,4
 1600.99855883 616.684815397 1600.99855883 616.684815397 1576.84863281 745.69140625 c 2,5,-1
 1572.34863281 769.729492188 l 1,6,-1
 1781.86914062 813.752929688 l 1,7,-1
 1788.71875 792.21875 l 2,8,9
 1826.99489283 671.896278895 1826.99489283 671.896278895 1827.13867188 570.499023438 c 0,10,11
 1826.99272357 154.114421171 1826.99272357 154.114421171 1425.86230469 40.0693359375 c 0,12,13
 1285.49804688 0 1285.49804688 0 968.572753906 0 c 128,-1,14
 651.647460938 0 651.647460938 0 472.934082031 48.5483398438 c 128,-1,15
 294.220703125 97.0966796875 294.220703125 97.0966796875 193.133300781 230.30078125 c 128,-1,16
 92.0458984375 363.504882812 92.0458984375 363.504882812 91.0078125 553.829101562 c 0,17,18
 91 682.333984375 91 682.333984375 128.309570312 786.698242188 c 2,19,-1
 135.908203125 807.953125 l 1,20,-1
 333.923828125 759.208984375 l 1,21,-1
 329.131835938 735.68359375 l 2,22,23
 312.840676332 655.713577448 312.840676332 655.713577448 309.809570312 608.821289062 c 0,24,25
 300.456054688 465.919921875 300.456054688 465.919921875 371.969726562 379.5625 c 128,-1,26
 443.483398438 293.205078125 443.483398438 293.205078125 602.212890625 258.168945312 c 0,27,28
 707.717773438 234.999023438 707.717773438 234.999023438 971.37893367 234.999936639 c 128,-1,0
 1235.0400939 235.000849841 1235.0400939 235.000849841 1351.10061336 262.852475702 c 128,-1,1
EndSplineSet
Substitution2: "'init' Initial Forms in Arabic lookup 13 subtable" uni066E.init
Substitution2: "'medi' Medial Forms in Arabic lookup 11 subtable" uni066E.medi
Substitution2: "'fina' Terminal Forms in Arabic lookup 9 subtable" uni066E.fina
EndChar

StartChar: uni066F
Encoding: 1647 1647 76
Width: 1555
VWidth: 2418
GlyphClass: 2
Flags: W
AnchorPoint: "Anchor-10" 287.586 1171.54 basechar 0
AnchorPoint: "Anchor-7" 460.01 -615.719 basechar 0
LayerCount: 2
Fore
SplineSet
1459.20800781 322.432617188 m 0,0,1
 1463.0390625 182.920898438 1463.0390625 182.920898438 1453.85644531 102.462890625 c 0,2,3
 1439.50292969 -22.3193359375 1439.50292969 -22.3193359375 1387.76269531 -116.52734375 c 128,-1,4
 1336.02148438 -210.736328125 1336.02148438 -210.736328125 1248.37207031 -273.034179688 c 128,-1,5
 1160.72167969 -335.333007812 1160.72167969 -335.333007812 1038.23535156 -366.624023438 c 128,-1,6
 915.749023438 -397.916015625 915.749023438 -397.916015625 759.291015625 -397.88671875 c 0,7,8
 430.688476562 -397.944335938 430.688476562 -397.944335938 261.8203125 -246.833984375 c 128,-1,9
 92.953125 -95.72265625 92.953125 -95.72265625 92.90234375 201.11328125 c 0,10,11
 93.0029296875 369.17578125 93.0029296875 369.17578125 171.219726562 597.182617188 c 2,12,-1
 178.420898438 618.173828125 l 1,13,-1
 392.35546875 572.215820312 l 1,14,-1
 383.211914062 545.57421875 l 2,15,16
 315.009765625 346.857421875 315.009765625 346.857421875 315.358398438 194.244140625 c 0,17,18
 315.561523438 69.029296875 315.561523438 69.029296875 363.501953125 -12.9150390625 c 128,-1,19
 411.443359375 -94.8603515625 411.443359375 -94.8603515625 510.513671875 -136.020507812 c 128,-1,20
 609.583984375 -177.181640625 609.583984375 -177.181640625 762.173828125 -177.268554688 c 0,21,22
 1191.07324219 -177.028320312 1191.07324219 -177.028320312 1235.69238281 76.3623046875 c 1,23,24
 1219.64257812 73.46875 1219.64257812 73.46875 1202.96289062 71.2744140625 c 128,-1,25
 1186.28222656 69.0810546875 1186.28222656 69.0810546875 1168.97265625 67.5849609375 c 128,-1,26
 1151.66210938 66.0888671875 1151.66210938 66.0888671875 1133.73632812 65.279296875 c 128,-1,27
 1115.80957031 64.4697265625 1115.80957031 64.4697265625 1097.14355469 64.3369140625 c 0,28,29
 917.546875 62.8994140625 917.546875 62.8994140625 830.75390625 179.057617188 c 0,30,31
 707.383789062 343.483398438 707.383789062 343.483398438 808.8984375 584.178710938 c 0,32,33
 915.169921875 837.506835938 915.169921875 837.506835938 1101.49316406 843.09375 c 0,34,35
 1297.4609375 848.459960938 1297.4609375 848.459960938 1402.44726562 597.0234375 c 0,36,37
 1428.67871094 533.602539062 1428.67871094 533.602539062 1442.85644531 464.924804688 c 128,-1,38
 1457.03515625 396.248046875 1457.03515625 396.248046875 1459.20800781 322.432617188 c 0,0,1
1246.49316406 294.510742188 m 1,39,40
 1233.50683594 601.296875 1233.50683594 601.296875 1099.55957031 597.91015625 c 0,41,42
 1042.07421875 596.411132812 1042.07421875 596.411132812 996.868164062 500.12109375 c 0,43,44
 973.032226562 449.479492188 973.032226562 449.479492188 973.313476562 401.314453125 c 0,45,46
 973.083007812 381.354492188 973.083007812 381.354492188 976.401367188 364.979492188 c 0,47,48
 1000.84179688 244.373046875 1000.84179688 244.373046875 1246.49316406 294.510742188 c 1,39,40
EndSplineSet
Substitution2: "'init' Initial Forms in Arabic lookup 13 subtable" uni066F.init
Substitution2: "'medi' Medial Forms in Arabic lookup 11 subtable" uni066F.medi
Substitution2: "'fina' Terminal Forms in Arabic lookup 9 subtable" uni066F.fina
EndChar

StartChar: uni0670
Encoding: 1648 1648 77
Width: -27
VWidth: 2304
GlyphClass: 4
Flags: W
AnchorPoint: "Anchor-10" 569.519 1347.15 mark 0
AnchorPoint: "Anchor-9" 569.519 1347.15 mark 0
AnchorPoint: "Anchor-1" 569.519 1871.6 basemark 0
AnchorPoint: "Anchor-1" 569.519 1347.15 mark 0
LayerCount: 2
Fore
SplineSet
638.936523438 1377.16699219 m 1,0,-1
 525.1015625 1377.16699219 l 1,1,-1
 525.1015625 1816.58496094 l 1,2,-1
 638.936523438 1816.58496094 l 1,3,-1
 638.936523438 1377.16699219 l 1,0,-1
EndSplineSet
EndChar

StartChar: uni0674
Encoding: 1652 1652 78
Width: 672
VWidth: 2418
GlyphClass: 2
Flags: W
LayerCount: 2
Fore
SplineSet
179.658334924 1737.85896683 m 2,0,1
 122.291015625 1795.79032293 122.291015625 1795.79032293 122.291015625 1889.99999068 c 0,2,3
 122.291015625 2016.87191297 122.291015625 2016.87191297 241.61659744 2079.9514062 c 0,4,5
 292.922029583 2107.07317347 292.922029583 2107.07317347 369.691747277 2107.33520267 c 128,-1,6
 446.458490227 2107.59722171 446.458490227 2107.59722171 526.454101562 2062.65022352 c 1,7,-1
 526.454101562 1917.31566109 l 1,8,9
 374.427556921 1987.03780408 374.427556921 1987.03780408 299.583675556 1943.65286141 c 1,10,11
 246.713896218 1906.21453061 246.713896218 1906.21453061 264.694472738 1850.1696918 c 0,12,13
 275.46849571 1816.58743263 275.46849571 1816.58743263 311.137241677 1797.65961505 c 0,14,15
 354.162978962 1774.82776928 354.162978962 1774.82776928 395.958036972 1776.42422988 c 128,-1,16
 437.753094981 1778.02069047 437.753094981 1778.02069047 551.131835938 1803.52346194 c 1,17,-1
 551.131835938 1655.03608155 l 1,18,-1
 119.94140625 1558.23171216 l 1,19,-1
 119.94140625 1704.50508115 l 1,20,-1
 195.43685103 1721.92531599 l 1,21,-1
 179.658334924 1737.85896683 l 2,0,1
EndSplineSet
EndChar

StartChar: uni06A1
Encoding: 1697 1697 82
Width: 1909
VWidth: 2418
GlyphClass: 2
Flags: W
AnchorPoint: "Anchor-10" 579.034 1368.99 basechar 0
AnchorPoint: "Anchor-7" 564.757 -249.998 basechar 0
LayerCount: 2
Fore
SplineSet
1527.95996094 78.0439453125 m 0,0,1
 1339.03380826 -0.9990234375 1339.03380826 -0.9990234375 997.341611162 -0.9990234375 c 128,-1,2
 655.649414062 -0.9990234375 655.649414062 -0.9990234375 474.935058594 48.048828125 c 128,-1,3
 294.220703125 97.0966796875 294.220703125 97.0966796875 193.133300781 230.30078125 c 128,-1,4
 92.0458984375 363.504882812 92.0458984375 363.504882812 91.0078125 553.829101562 c 0,5,6
 91 682.333984375 91 682.333984375 128.309570312 786.698242188 c 2,7,-1
 135.908203125 807.953125 l 1,8,-1
 333.923828125 759.208984375 l 1,9,-1
 329.131835938 735.68359375 l 2,10,11
 312.840676332 655.713577448 312.840676332 655.713577448 309.809570312 608.821289062 c 0,12,13
 300.456054688 465.921875 300.456054688 465.921875 371.970703125 379.563476562 c 0,14,15
 472.407339876 258.27831714 472.407339876 258.27831714 755.061523438 239.373046875 c 0,16,17
 1060.79592252 218.920954066 1060.79592252 218.920954066 1310.34960938 245.868164062 c 0,18,19
 1481.63644211 264.367176479 1481.63644211 264.367176479 1558.19921875 340.181640625 c 1,20,21
 1507.61336337 333.482640681 1507.61336337 333.482640681 1447.94433594 332.659179688 c 0,22,23
 1269.72070312 329.799804688 1269.72070312 329.799804688 1180.61230469 447.515625 c 0,24,25
 1058.38183594 608.001953125 1058.38183594 608.001953125 1161.24511719 855.2421875 c 128,-1,26
 1264.10839844 1102.48242188 1264.10839844 1102.48242188 1455.74804688 1108.50537109 c 128,-1,27
 1647.38769531 1114.52832031 1647.38769531 1114.52832031 1753.50976562 862.0703125 c 0,28,29
 1804.82226562 739.444335938 1804.82226562 739.444335938 1810.11425781 590.549804688 c 0,30,31
 1824.890625 203.53515625 1824.890625 203.53515625 1527.95996094 78.0439453125 c 0,0,1
1597.37109375 562.625 m 1,32,33
 1584.78630051 867.18445404 1584.78630051 867.18445404 1450.78515625 863.2265625 c 0,34,35
 1391.20214844 861.467773438 1391.20214844 861.467773438 1346.96289062 765.76171875 c 0,36,37
 1314.15759049 694.035484159 1314.15759049 694.035484159 1326.40722656 633.416992188 c 0,38,39
 1350.87988281 512.370117188 1350.87988281 512.370117188 1597.37109375 562.625 c 1,32,33
EndSplineSet
Substitution2: "'init' Initial Forms in Arabic lookup 13 subtable" uni06A1.init
Substitution2: "'medi' Medial Forms in Arabic lookup 11 subtable" uni06A1.medi
Substitution2: "'fina' Terminal Forms in Arabic lookup 9 subtable" uni06A1.fina
EndChar

StartChar: uni06A9
Encoding: 1705 1705 83
Width: 1847
VWidth: 2418
GlyphClass: 2
Flags: W
AnchorPoint: "Anchor-10" 435.659 1343.79 basechar 0
AnchorPoint: "Anchor-7" 548.777 -257.467 basechar 0
LayerCount: 2
Fore
SplineSet
867.146484375 232.243164062 m 2,0,-1
 1166.87304688 232.26953125 l 2,1,2
 1396.07593663 232.081743742 1396.07593663 232.081743742 1432.88664454 313.730936459 c 128,-1,3
 1469.69735245 395.380129176 1469.69735245 395.380129176 1370.16970999 522.073106556 c 128,-1,4
 1270.64206753 648.766083936 1270.64206753 648.766083936 980.668945312 812.700195312 c 0,5,6
 883.988376962 867.431707709 883.988376962 867.431707709 883.988935955 1003.82676204 c 128,-1,7
 883.989494947 1140.22181636 883.989494947 1140.22181636 1019.63964844 1198.96972656 c 2,8,-1
 1811.63867188 1541.96289062 l 5,9,-1
 1811.63867188 1309.27734375 l 5,10,-1
 1110.95996094 1010.55273438 l 1,11,12
 1422.41796875 782.744140625 1422.41796875 782.744140625 1489.66308594 710.076171875 c 0,13,14
 1639.06933594 547.765625 1639.06933594 547.765625 1652.39404297 411.857421875 c 128,-1,15
 1665.71875 275.94921875 1665.71875 275.94921875 1606.63769531 181.813476562 c 0,16,17
 1491.77734375 0 1491.77734375 0 1212.22460938 0 c 2,18,-1
 867.314453125 0 l 2,19,20
 651.647460938 0 651.647460938 0 472.934082031 48.5483398438 c 128,-1,21
 294.220703125 97.0966796875 294.220703125 97.0966796875 193.133300781 230.30078125 c 128,-1,22
 92.0458984375 363.504882812 92.0458984375 363.504882812 91.0078125 553.829101562 c 0,23,24
 91 682.333984375 91 682.333984375 128.309570312 786.698242188 c 2,25,-1
 135.908203125 807.953125 l 1,26,-1
 333.923828125 759.208984375 l 1,27,-1
 329.131835938 735.68359375 l 2,28,29
 312.840676332 655.713577448 312.840676332 655.713577448 309.809570312 608.821289062 c 0,30,31
 300.455078125 465.909179688 300.455078125 465.909179688 371.965820312 379.55859375 c 0,32,33
 494.460064985 231.640762775 494.460064985 231.640762775 867.146484375 232.243164062 c 2,0,-1
EndSplineSet
Substitution2: "'init' Initial Forms in Arabic lookup 13 subtable" uniFB90
Substitution2: "'medi' Medial Forms in Arabic lookup 11 subtable" uniFB91
Substitution2: "'fina' Terminal Forms in Arabic lookup 9 subtable" uniFB8F
EndChar

StartChar: afii57514
Encoding: 1722 1722 85
Width: 1508
VWidth: 2418
GlyphClass: 2
Flags: W
AnchorPoint: "Anchor-10" 666.929 994.235 basechar 0
AnchorPoint: "Anchor-7" 691.607 -557.659 basechar 0
LayerCount: 2
Fore
SplineSet
1199.25976562 199.7265625 m 0,0,1
 1199.00488281 355.84765625 1199.00488281 355.84765625 1130.7734375 623.831054688 c 2,2,-1
 1124.625 647.978515625 l 1,3,-1
 1349.04199219 705.913085938 l 1,4,-1
 1354.35742188 680.20703125 l 2,5,6
 1419.04882812 367.323242188 1419.04882812 367.323242188 1415.49511719 179.51171875 c 0,7,8
 1410.04785156 -99.087890625 1410.04785156 -99.087890625 1241.07226562 -240.028320312 c 128,-1,9
 1072.09667969 -380.96875 1072.09667969 -380.96875 749.212890625 -379.88671875 c 0,10,11
 250.885742188 -378.397460938 250.885742188 -378.397460938 129.930664062 -27.0927734375 c 0,12,13
 93.076171875 81.0751953125 93.076171875 81.0751953125 92.90234375 219.115234375 c 0,14,15
 93.0029296875 387.17578125 93.0029296875 387.17578125 171.21875 615.18359375 c 2,16,-1
 178.951171875 637.723632812 l 1,17,-1
 389.0546875 576.7265625 l 1,18,-1
 380.680664062 551.985351562 l 2,19,20
 315.982421875 360.833007812 315.982421875 360.833007812 315.358398438 212.16796875 c 0,21,22
 315.663085938 23.765625 315.663085938 23.765625 422.66796875 -68.1171875 c 128,-1,23
 529.673828125 -160 529.673828125 -160 753 -160 c 0,24,25
 981.69921875 -160 981.69921875 -160 1090.65429688 -71.01953125 c 128,-1,26
 1199.609375 17.9619140625 1199.609375 17.9619140625 1199.25976562 199.7265625 c 0,0,1
EndSplineSet
Substitution2: "'init' Initial Forms in Arabic lookup 13 subtable" uni06BA.init
Substitution2: "'medi' Medial Forms in Arabic lookup 11 subtable" uni06BA.medi
Substitution2: "'fina' Terminal Forms in Arabic lookup 9 subtable" uniFB9F
EndChar

StartChar: uni06F4
Encoding: 1780 1780 92
Width: 1220
VWidth: 2418
GlyphClass: 2
Flags: W
LayerCount: 2
Fore
SplineSet
635.47265625 1194.87011719 m 4,0,1
 538 1087 538 1087 586.505859375 1007.1640625 c 0,2,3
 639 923 639 923 821.274414062 923.07421875 c 0,4,5
 903.176984235 922.999839273 903.176984235 922.999839273 1086.51757812 949.896484375 c 2,6,-1
 1114.70214844 954.03125 l 1,7,-1
 1117.7265625 738.794921875 l 1,8,-1
 1096.97167969 734.936523438 l 2,9,10
 947 707 947 707 833.325195312 706.890625 c 0,11,12
 633 706 633 706 503.782226562 782.016601562 c 1,13,14
 524 704 524 704 550.344726562 526.140625 c 0,15,16
 576.183400847 344.712235779 576.183400847 344.712235779 572.685546875 34.0537109375 c 2,17,-1
 572.407226562 9.3349609375 l 1,18,-1
 353.853515625 9.3349609375 l 1,19,-1
 353.774414062 34.255859375 l 2,20,21
 352 540 352 540 270.966796875 871.819335938 c 0,22,23
 214.626844035 1100.51471631 214.626844035 1100.51471631 105.853515625 1364.29882812 c 2,24,-1
 95.58203125 1389.20800781 l 1,25,-1
 307.87890625 1458.70019531 l 1,26,-1
 315.900390625 1435.43261719 l 2,27,28
 347 1344 347 1344 403.044921875 1180.98730469 c 1,29,30
 498 1495 498 1495 869.181640625 1478.25683594 c 0,31,32
 966 1474 966 1474 1051.890625 1442.09179688 c 1,33,-1
 1051.890625 1231.88769531 l 5,34,-1
 1019.93652344 1241.140625 l 6,35,36
 900 1276 900 1276 779.041992188 1258.62207031 c 4,37,38
 682 1245 682 1245 635.47265625 1194.87011719 c 4,0,1
EndSplineSet
EndChar

StartChar: uni06F5
Encoding: 1781 1781 93
Width: 1368
VWidth: 2418
GlyphClass: 2
Flags: W
LayerCount: 2
Fore
SplineSet
467.612304688 239.551757812 m 0,0,1
 563.604632766 239.998161381 563.604632766 239.998161381 605.467773438 444.315429688 c 2,2,-1
 609.565429688 464.314453125 l 1,3,-1
 767.641601562 464.181640625 l 1,4,-1
 771.006835938 443.149414062 l 2,5,6
 804 236 804 236 926.977539062 235.5625 c 0,7,8
 993 235 993 235 1021.390625 263.12109375 c 0,9,10
 1050 291 1050 291 1050.14257812 376.272949219 c 0,11,12
 1050 664 1050 664 656.32421875 1022.76757812 c 5,13,14
 309 620 309 620 322.336914062 366.908203125 c 0,15,16
 327 280 327 280 387.104492188 253.364257812 c 0,17,18
 418 240 418 240 467.612304688 239.551757812 c 0,0,1
686.943359375 148.801757812 m 1,19,20
 604 2 604 2 411.340820312 9.6923828125 c 0,21,22
 247 16 247 16 166.3046875 112.9375 c 0,23,24
 85 210 85 210 92.2377929688 369.833007812 c 0,25,26
 97 486 97 486 155.465820312 636.13671875 c 4,27,28
 237 848 237 848 498.40234375 1174.859375 c 5,29,-1
 452.708984375 1217.63085938 l 5,30,-1
 597.790039062 1394.91796875 l 5,31,-1
 617.27734375 1375.13085938 l 6,32,33
 621 1372 621 1372 728.512695312 1270.15527344 c 4,34,35
 1275 756 1275 756 1275.11090788 365.460474369 c 0,36,37
 1275 189 1275 189 1186.01171875 99.640625 c 0,38,39
 1097 10 1097 10 926.889748833 9.42777735301 c 0,40,41
 757 9 757 9 686.943359375 148.801757812 c 1,19,20
EndSplineSet
EndChar

StartChar: uni06F6
Encoding: 1782 1782 94
Width: 1106
VWidth: 2418
GlyphClass: 2
Flags: W
LayerCount: 2
Fore
SplineSet
426.477539062 645.571289062 m 5,0,1
 106 719 106 719 106 1016.5 c 4,2,3
 106 1110.03751926 106 1110.03751926 144.451171875 1188.46777344 c 4,4,5
 260 1425 260 1425 597.71875 1422.43554688 c 4,6,7
 647.05496061 1421.99951426 647.05496061 1421.99951426 728.086914062 1408.67382812 c 6,8,-1
 752.53515625 1404.65332031 l 5,9,-1
 719.747070312 1193.43457031 l 5,10,-1
 690.25 1208.35253906 l 5,11,12
 674 1212 674 1212 599.469726562 1212.20117188 c 4,13,14
 402 1212 402 1212 334.3125 1075.12304688 c 4,15,16
 319 1044 319 1044 319 996.791992188 c 4,17,18
 319 949 319 949 343.884765625 916.703125 c 4,19,20
 406 837 406 837 557.158203125 828.692382812 c 5,21,22
 597.695263402 839.915629452 597.695263402 839.915629452 964.52734375 975.83203125 c 6,23,-1
 996.772460938 987.779296875 l 5,24,-1
 1006.06054688 762.875 l 5,25,-1
 985.634765625 758.341796875 l 6,26,27
 726 701 726 701 522.944335938 407.107421875 c 4,28,29
 397 225 397 225 332.283203125 9.3349609375 c 1,30,-1
 93.7373046875 9.3349609375 l 1,31,-1
 104.129882812 41.9296875 l 2,32,33
 213 382 213 382 426.477539062 645.571289062 c 5,0,1
EndSplineSet
EndChar

StartChar: uniFB8F
Encoding: 64399 64399 109
Width: 1896
VWidth: 2418
GlyphClass: 2
Flags: W
AnchorPoint: "Anchor-10" 466.178 1313.21 basechar 0
AnchorPoint: "Anchor-7" 550.742 -207.299 basechar 0
LayerCount: 2
Fore
SplineSet
1583.98339844 132.711914062 m 1,0,1
 1458.57280296 0.5498046875 1458.57280296 0.5498046875 1224.92578125 0.5498046875 c 2,2,-1
 849.130859375 0.5498046875 l 1,3,4
 602 3 602 3 452.841796875 46.2529296875 c 0,5,6
 69 156 69 156 70.6923828125 577.784179688 c 0,7,8
 71.0001796467 682.060861441 71.0001796467 682.060861441 108.938476562 796.114257812 c 2,9,-1
 115.928710938 817.12890625 l 1,10,-1
 324.221679688 774.860351562 l 1,11,-1
 317.225585938 749.111328125 l 2,12,13
 297 674 297 674 295.727539062 591.416992188 c 0,14,15
 291.059143973 329.320504654 291.059143973 329.320504654 571.365234375 258.133789062 c 0,16,17
 671.890738057 232.775303105 671.890738057 232.775303105 880.174804688 232.79296875 c 2,18,-1
 1179.5390625 232.818359375 l 2,19,20
 1428 233 1428 233 1452.8203125 333.448242188 c 0,21,22
 1488 477 1488 477 1186.36035156 690.716796875 c 0,23,24
 1102 750 1102 750 993.204101562 813.345703125 c 0,25,26
 898 869 898 869 897.515625 1000.66308594 c 0,27,28
 898.001177136 1141.34104899 898.001177136 1141.34104899 1032.33984375 1199.51953125 c 2,29,-1
 1824.33789062 1542.51269531 l 5,30,-1
 1824.33789062 1309.82519531 l 5,31,-1
 1123.70507812 1011.12207031 l 1,32,33
 1436 783 1436 783 1502.40917969 710.573242188 c 0,34,35
 1622 581 1622 581 1679.66894531 395.454101562 c 0,36,37
 1729.92829429 233.23144531 1729.92829429 233.23144531 1868.54394531 233.231445312 c 2,38,-1
 1907.05175781 233.231445312 l 1,39,-1
 1907.05175781 1.09765625 l 1,40,-1
 1876.56152344 1.09765625 l 2,41,42
 1672 1 1672 1 1583.98339844 132.711914062 c 1,0,1
EndSplineSet
EndChar

StartChar: uniFB9F
Encoding: 64415 64415 117
Width: 1568
VWidth: 2418
GlyphClass: 2
Flags: W
AnchorPoint: "Anchor-10" 646.411 776.724 basechar 0
AnchorPoint: "Anchor-7" 559.05 -628.475 basechar 0
LayerCount: 2
Fore
SplineSet
1561.87304688 0.546875 m 2,0,1
 1484.91809091 0.518542559473 1484.91809091 0.518542559473 1407.83203125 40.943359375 c 1,2,3
 1388 -218 1388 -218 1220.94335938 -348.942382812 c 128,-1,4
 1054 -480 1054 -480 749.291015625 -479.88671875 c 0,5,6
 426 -480 426 -480 259.26171875 -328.764648438 c 0,7,8
 93 -178 93 -178 92.90234375 119.11328125 c 0,9,10
 93.0000987202 287.169715777 93.0000987202 287.169715777 171.219726562 515.182617188 c 2,11,-1
 178.897460938 537.563476562 l 1,12,-1
 388.172851562 478.413085938 l 1,13,-1
 379.662109375 453.458007812 l 2,14,15
 315 264 315 264 315.358398438 112.221679688 c 0,16,17
 315 -76 315 -76 421.965820312 -167.454101562 c 128,-1,18
 529 -259 529 -259 752.172851562 -259.268554688 c 0,19,20
 981 -259 981 -259 1089.96679688 -170.306640625 c 0,21,22
 1199 -81 1199 -81 1199.25976562 99.7587890625 c 0,23,24
 1199 189 1199 189 1182.57910156 297.921875 c 0,25,26
 1165.96389166 407.237565964 1165.96389166 407.237565964 1132.984375 535.4296875 c 2,27,-1
 1126.41503906 560.96484375 l 1,28,-1
 1343.12988281 604.583984375 l 1,29,-1
 1347.69335938 579.532226562 l 2,30,31
 1383 384 1383 384 1394.41503906 350.77734375 c 0,32,33
 1408 310 1408 310 1431.20703125 284.383789062 c 0,34,35
 1454 258 1454 258 1487.61621094 245.52734375 c 0,36,37
 1521.84838753 232.681640625 1521.84838753 232.681640625 1566.45898438 232.681640625 c 2,38,-1
 1580.44042969 232.681640625 l 5,39,-1
 1580.44042969 0.5537109375 l 5,40,-1
 1561.87304688 0.546875 l 2,0,1
EndSplineSet
EndChar

StartChar: uniFBE8
Encoding: 64488 64488 120
Width: 686
VWidth: 2418
GlyphClass: 2
Flags: W
AnchorPoint: "Anchor-10" 333.214 1170.44 basechar 0
AnchorPoint: "Anchor-7" 305.758 -364.896 basechar 0
LayerCount: 2
Fore
SplineSet
59.884765625 232.243164062 m 2,0,1
 255.279253684 232.243164061 255.279253684 232.243164061 316.698242188 285.724609375 c 0,2,3
 386 345 386 345 370.940429688 461.032226562 c 0,4,5
 360.208540167 552.227901873 360.208540167 552.227901873 307.619140625 691.1484375 c 2,6,-1
 299.13671875 713.555664062 l 1,7,-1
 498.345703125 798.817382812 l 1,8,-1
 508.841796875 777.62109375 l 2,9,10
 584 626 584 626 593.3984375 439.151367188 c 0,11,12
 605 221 605 221 465.219726562 100.823242188 c 0,13,14
 348 0 348 0 50.93359375 0 c 2,15,-1
 -13.1650390625 0 l 5,16,-1
 -13.1650390625 232.243164062 l 5,17,-1
 59.884765625 232.243164062 l 2,0,1
EndSplineSet
EndChar

StartChar: uniFBE9
Encoding: 64489 64489 121
Width: 742
VWidth: 2418
GlyphClass: 2
Flags: W
AnchorPoint: "Anchor-10" 309.627 1082.58 basechar 0
AnchorPoint: "Anchor-7" 356.851 -109.007 basechar 0
LayerCount: 2
Fore
SplineSet
438.250976562 109.98046875 m 1,0,1
 323 0 323 0 118.732421875 0 c 2,2,-1
 -11.2451171875 0 l 1,3,-1
 -11.2451171875 232.243164062 l 1,4,-1
 67.2978515625 232.243164062 l 2,5,6
 228 232 228 232 283.732421875 285.193359375 c 0,7,8
 318.803622003 318.811756839 318.803622003 318.811756839 328.275390625 402.307617188 c 2,9,-1
 353.275390625 622.688476562 l 1,10,-1
 524.404296875 622.688476562 l 1,11,-1
 551.58984375 402.61328125 l 2,12,13
 566 288 566 288 642.553710938 250.309570312 c 0,14,15
 679.502686758 232.243164062 679.502686758 232.243164062 718.041015625 232.243164062 c 6,16,-1
 753.07421875 232.243164062 l 5,17,-1
 753.07421875 0 l 5,18,-1
 706.124023438 0 l 6,19,20
 553 0 553 0 438.250976562 109.98046875 c 1,0,1
EndSplineSet
EndChar

StartChar: uniFE73
Encoding: 65139 65139 129
Width: 601
VWidth: 2418
GlyphClass: 2
Flags: W
AnchorPoint: "Anchor-10" 222.139 1423.04 basechar 0
AnchorPoint: "Anchor-7" 222.139 -104.613 basechar 0
LayerCount: 2
Fore
SplineSet
333.8125 403.037109375 m 2,0,1
 333.8125 339.8828125 333.8125 339.8828125 390.350585938 283.34375 c 0,2,3
 441.0078125 232.681640625 441.0078125 232.681640625 555.87109375 232.681640625 c 2,4,-1
 647.568359375 232.681640625 l 1,5,-1
 647.568359375 9.3349609375 l 1,6,-1
 491.239257812 9.3349609375 l 2,7,8
 322.8984375 9.3349609375 322.8984375 9.3349609375 213.743164062 118.489257812 c 0,9,10
 162.158203125 170.07421875 162.158203125 170.07421875 136.310546875 238.158203125 c 128,-1,11
 110.463867188 306.243164062 110.463867188 306.243164062 110.463867188 388.935546875 c 2,12,-1
 110.463867188 443.028320312 l 1,13,-1
 333.8125 443.028320312 l 1,14,-1
 333.8125 403.037109375 l 2,0,1
EndSplineSet
EndChar

StartChar: uniFE8E
Encoding: 65166 65166 155
Width: 566
VWidth: 2418
GlyphClass: 2
Flags: W
AnchorPoint: "Anchor-10" 239.479 1602.66 basechar 0
AnchorPoint: "Anchor-7" 259.246 -245.188 basechar 0
LayerCount: 2
Fore
SplineSet
134.392578125 466.998046875 m 2,0,-1
 134.392578125 1483.24902344 l 5,1,-1
 353.34765625 1483.24902344 l 5,2,-1
 353.34765625 481.043945312 l 2,3,4
 353 380 353 380 382.350585938 327.762695312 c 0,5,6
 433.86884996 232.243164062 433.86884996 232.243164062 558.93359375 232.243164062 c 2,7,-1
 601.915039062 232.243164062 l 1,8,-1
 601.915039062 0 l 1,9,-1
 553.608398438 0 l 2,10,11
 317.641678087 -5.69544411633e-14 317.641678087 -5.69544411633e-14 198.122070312 190.569335938 c 0,12,13
 134 292 134 292 134.392578125 466.998046875 c 2,0,-1
EndSplineSet
EndChar

StartChar: uniFEA2
Encoding: 65186 65186 175
Width: 1351
VWidth: 2418
GlyphClass: 2
Flags: W
AnchorPoint: "Anchor-10" 586.107 1277.12 basechar 0
AnchorPoint: "Anchor-7" 450.396 -685.504 basechar 0
LayerCount: 2
Fore
SplineSet
1073.68359375 496.743164062 m 1,0,1
 1075 361 1075 361 1138.40722656 296.6953125 c 0,2,3
 1202.31784687 232.681640625 1202.31784687 232.681640625 1336.35839844 232.681640625 c 2,4,-1
 1361.54492188 232.681640625 l 5,5,-1
 1361.54492188 0.5498046875 l 5,6,-1
 1346.63378906 0.5498046875 l 2,7,8
 1051 1 1051 1 943.6875 214.408203125 c 0,9,10
 891 320 891 320 887.235351562 475.114257812 c 1,11,12
 579 427 579 427 434.725585938 285.676757812 c 0,13,14
 313 167 313 167 313.32421875 8.6171875 c 0,15,16
 313 -326 313 -326 815.262695312 -326.734375 c 0,17,18
 1006.72032348 -326.999612548 1006.72032348 -326.999612548 1158.24707031 -273.5859375 c 2,19,-1
 1183.56542969 -264.661132812 l 1,20,-1
 1239.15527344 -467.30078125 l 1,21,-1
 1219.10742188 -475.874023438 l 2,22,23
 1055 -546 1055 -546 783.276367188 -542.427734375 c 0,24,25
 433 -538 433 -538 262.678710938 -386.010253906 c 0,26,27
 92 -234 92 -234 93.009765625 18.5834960938 c 128,-1,28
 94 271 94 271 309.15625 461.623046875 c 0,29,30
 479 612 479 612 740.557617188 658.100585938 c 1,31,32
 688 685 688 685 665.228515625 697.776855469 c 0,33,34
 643 711 643 711 629.71875 718.0390625 c 0,35,36
 604 732 604 732 578.678017642 743.590446722 c 0,37,38
 553 755 553 755 524.747558594 755.677734375 c 0,39,40
 497 756 497 756 485.004882812 754.11328125 c 0,41,42
 473 752 473 752 460.463867188 747.450195312 c 0,43,44
 367.755589324 714.91422407 367.755589324 714.91422407 276.333984375 594.529296875 c 2,45,-1
 260.375976562 573.515625 l 1,46,-1
 98.970703125 710.40625 l 1,47,-1
 113.416992188 729.287109375 l 2,48,49
 182 819 182 819 226.721679688 862.79296875 c 0,50,51
 346 982 346 982 510.42578125 983.145507812 c 0,52,53
 604 984 604 984 735.224609375 900.69140625 c 0,54,55
 1005.82827215 729.108888017 1005.82827215 729.108888017 1205.72753906 732.248046875 c 2,56,-1
 1232.09472656 732.662109375 l 1,57,-1
 1223.12207031 494.331054688 l 1,58,-1
 1195.171875 498.899414062 l 2,59,60
 1170 503 1170 503 1073.68359375 496.743164062 c 1,0,1
EndSplineSet
EndChar

StartChar: uniFEA3
Encoding: 65187 65187 176
Width: 1384
VWidth: 2418
GlyphClass: 2
Flags: W
AnchorPoint: "Anchor-10" 480.918 1227.81 basechar 0
AnchorPoint: "Anchor-7" 612.707 -252.876 basechar 0
LayerCount: 2
Fore
SplineSet
902.526367188 453.106445312 m 5,0,1
 797 490 797 490 732.068359375 522.174804688 c 4,2,3
 667 554 667 554 654.11328125 560.6484375 c 4,4,5
 641 567 641 567 628.594726562 572.61328125 c 4,6,7
 616 578 616 578 604.630859375 583.286132812 c 4,8,9
 593 588 593 588 582.203125 592.693359375 c 4,10,11
 571 597 571 597 561.374023438 600.826171875 c 4,12,13
 551 605 551 605 542.125 607.711914062 c 4,14,15
 446 640 446 640 375.53125 595.61328125 c 4,16,17
 304.532936097 549.697944994 304.532936097 549.697944994 236.733398438 461.393554688 c 6,18,-1
 221.163085938 441.114257812 l 5,19,-1
 56.21484375 573.737304688 l 5,20,-1
 70.1943359375 592.99609375 l 6,21,22
 129 674 129 674 181.690429688 728.759765625 c 4,23,24
 310 861 310 861 463.469726562 856.577148438 c 4,25,26
 578 853 578 853 803.006835938 731.353515625 c 4,27,28
 1028.08107204 609.95627255 1028.08107204 609.95627255 1282.81054688 564.876953125 c 6,29,-1
 1305.84375 560.80078125 l 5,30,-1
 1286.38085938 382.423828125 l 5,31,-1
 1262.54589844 383.926757812 l 6,32,33
 1173 390 1173 390 997.366210938 271.69921875 c 4,34,35
 821 154 821 154 686.052734375 97.4013671875 c 4,36,37
 456 0 456 0 72.6533203125 0 c 6,38,-1
 -13.6220703125 0 l 1,39,-1
 -13.6220703125 232.243164062 l 1,40,-1
 35.7099609375 232.243164062 l 6,41,42
 358 232 358 232 484.631835938 259.284179688 c 4,43,44
 674 299 674 299 902.526367188 453.106445312 c 5,0,1
EndSplineSet
EndChar

StartChar: uniFEA4
Encoding: 65188 65188 177
Width: 1453
VWidth: 2418
GlyphClass: 2
Flags: W
AnchorPoint: "Anchor-10" 478.339 1245.4 basechar 0
AnchorPoint: "Anchor-7" 582.058 -243.616 basechar 0
LayerCount: 2
Fore
SplineSet
1142.41796875 356.686523438 m 1,0,1
 1174.93903169 233.231445312 1174.93903169 233.231445312 1419.05078125 233.231445312 c 2,2,-1
 1465.171875 233.231445312 l 1,3,-1
 1465.171875 0 l 1,4,-1
 1405.54882812 0 l 2,5,6
 1211 0 1211 0 1114.62792969 68.6279296875 c 0,7,8
 1018 137 1018 137 978.752929688 259.799804688 c 1,9,10
 799 143 799 143 685.830078125 97.3095703125 c 0,11,12
 449 0 449 0 72.6533203125 0 c 2,13,-1
 -13.6220703125 0 l 1,14,-1
 -13.6220703125 232.243164062 l 1,15,-1
 35.7099609375 232.243164062 l 2,16,17
 356 232 356 232 484.659179688 259.2890625 c 0,18,19
 675 299 675 299 902.640625 453.096679688 c 1,20,21
 801 489 801 489 728.5390625 524.59375 c 128,-1,22
 656 560 656 560 630.595703125 571.931640625 c 0,23,24
 531 617 531 617 479.956054688 623.205078125 c 0,25,26
 370.812040771 636.022072419 370.812040771 636.022072419 236.733398438 461.393554688 c 2,27,-1
 221.163085938 441.114257812 l 1,28,-1
 56.21484375 573.737304688 l 1,29,-1
 70.1943359375 592.99609375 l 2,30,31
 129 674 129 674 181.690429688 728.759765625 c 0,32,33
 310 861 310 861 463.469726562 856.577148438 c 0,34,35
 578 853 578 853 803.006835938 731.353515625 c 0,36,37
 1028.08107204 609.95627255 1028.08107204 609.95627255 1282.81054688 564.876953125 c 2,38,-1
 1305.84375 560.80078125 l 1,39,-1
 1286.37695312 382.3828125 l 1,40,-1
 1262.51074219 383.920898438 l 2,41,42
 1211 387 1211 387 1142.41796875 356.686523438 c 1,0,1
EndSplineSet
EndChar

StartChar: uniFEAA
Encoding: 65194 65194 183
Width: 1139
VWidth: 2418
GlyphClass: 2
Flags: W
AnchorPoint: "Anchor-10" 444.434 1330.95 basechar 0
AnchorPoint: "Anchor-7" 404.359 -239.148 basechar 0
LayerCount: 2
Fore
SplineSet
1116.90722656 0.5498046875 m 2,0,1
 978.383012011 0.5498046875 978.383012011 0.5498046875 875.571289062 121.395507812 c 1,2,3
 749.884172837 -0.899912692697 749.884172837 -0.899912692697 437.056640625 -1.0498046875 c 0,4,5
 227.039131647 -1.99086294432 227.039131647 -1.99086294432 93.5634765625 31.2216796875 c 1,6,-1
 93.5634765625 267.1015625 l 1,7,-1
 123.876953125 260.5078125 l 2,8,9
 271 229 271 229 447.36349132 228.504050318 c 0,10,11
 708.210588722 227.77052529 708.210588722 227.77052529 725.551757812 292.828125 c 0,12,13
 731.550505395 315.038221802 731.550505395 315.038221802 716.132937673 358.504826354 c 128,-1,14
 700.715369951 401.971430907 700.715369951 401.971430907 653.083007812 512.323242188 c 2,15,-1
 487.665039062 895.553710938 l 1,16,-1
 689.125976562 995.848632812 l 1,17,-1
 924.0703125 457.125976562 l 2,18,19
 1023.77128295 229.79545235 1023.77128295 229.79545235 1126.65820312 232.263671875 c 2,20,-1
 1154.54296875 232.932617188 l 5,21,-1
 1154.54296875 0.5498046875 l 5,22,-1
 1116.90722656 0.5498046875 l 2,0,1
EndSplineSet
EndChar

StartChar: uniFEAE
Encoding: 65198 65198 187
Width: 894
VWidth: 2418
GlyphClass: 2
Flags: W
AnchorPoint: "Anchor-10" 497.16 916.2 basechar 0
AnchorPoint: "Anchor-7" 329.048 -675.522 basechar 0
LayerCount: 2
Fore
SplineSet
28.9677734375 -469.426757812 m 1,0,-1
 -9.708984375 -254.802734375 l 1,1,-1
 17.529296875 -252.379882812 l 2,2,3
 271 -230 271 -230 393.41796875 -120.052734375 c 128,-1,4
 516 -10 516 -10 517.033203125 182.805664062 c 128,-1,5
 517.999014927 375.803153623 517.999014927 375.803153623 458.6484375 512.46484375 c 2,6,-1
 448.463867188 535.916015625 l 1,7,-1
 650.559570312 618.349609375 l 1,8,-1
 658.212890625 591.525390625 l 2,9,10
 712 404 712 404 719.34471304 377.104809362 c 0,11,12
 727 351 727 351 737.11328125 327.674804688 c 0,13,14
 779.89100047 232.243164062 779.89100047 232.243164062 886.859375 232.243164062 c 2,15,-1
 904.204101562 232.243164062 l 5,16,-1
 904.204101562 0 l 5,17,-1
 866.158203125 0 l 2,18,19
 781 0 781 0 720.922851562 48.669921875 c 1,20,21
 636.966303058 -406.18256036 636.966303058 -406.18256036 52.0439453125 -467.026367188 c 2,22,-1
 28.9677734375 -469.426757812 l 1,0,-1
EndSplineSet
PairPos2: "'kern' Horizontal Kerning lookup 15-1" uniFEE7 dx=-150 dy=0 dh=-150 dv=0 dx=0 dy=0 dh=0 dv=0
PairPos2: "'kern' Horizontal Kerning lookup 15-2" uniFB90 dx=-190 dy=0 dh=-190 dv=0 dx=0 dy=0 dh=0 dv=0
PairPos2: "'kern' Horizontal Kerning lookup 15-2" uniFB8E dx=-190 dy=0 dh=-190 dv=0 dx=0 dy=0 dh=0 dv=0
PairPos2: "'kern' Horizontal Kerning lookup 15-2" uni06A9 dx=-190 dy=0 dh=-190 dv=0 dx=0 dy=0 dh=0 dv=0
PairPos2: "'kern' Horizontal Kerning lookup 15-2" uni064A dx=-50 dy=0 dh=-50 dv=0 dx=0 dy=0 dh=0 dv=0
PairPos2: "'kern' Horizontal Kerning lookup 15-2" afii57414 dx=-50 dy=0 dh=-50 dv=0 dx=0 dy=0 dh=0 dv=0
PairPos2: "'kern' Horizontal Kerning lookup 15-2" uni0649 dx=-50 dy=0 dh=-50 dv=0 dx=0 dy=0 dh=0 dv=0
PairPos2: "'kern' Horizontal Kerning lookup 15-2" uniFEEB dx=-150 dy=0 dh=-150 dv=0 dx=0 dy=0 dh=0 dv=0
PairPos2: "'kern' Horizontal Kerning lookup 15-2" uni0647 dx=-150 dy=0 dh=-150 dv=0 dx=0 dy=0 dh=0 dv=0
PairPos2: "'kern' Horizontal Kerning lookup 15-2" uni0646 dx=-50 dy=0 dh=-50 dv=0 dx=0 dy=0 dh=0 dv=0
PairPos2: "'kern' Horizontal Kerning lookup 15-2" uniFEE3 dx=-150 dy=0 dh=-150 dv=0 dx=0 dy=0 dh=0 dv=0
PairPos2: "'kern' Horizontal Kerning lookup 15-2" uni0645 dx=-150 dy=0 dh=-150 dv=0 dx=0 dy=0 dh=0 dv=0
PairPos2: "'kern' Horizontal Kerning lookup 15-2" uniFEFB dx=-120 dy=0 dh=-120 dv=0 dx=0 dy=0 dh=0 dv=0
PairPos2: "'kern' Horizontal Kerning lookup 15-2" uniFEDF dx=-120 dy=0 dh=-120 dv=0 dx=0 dy=0 dh=0 dv=0
PairPos2: "'kern' Horizontal Kerning lookup 15-2" uni0644 dx=-50 dy=0 dh=-50 dv=0 dx=0 dy=0 dh=0 dv=0
PairPos2: "'kern' Horizontal Kerning lookup 15-2" uniFEDB dx=-190 dy=0 dh=-190 dv=0 dx=0 dy=0 dh=0 dv=0
PairPos2: "'kern' Horizontal Kerning lookup 15-2" uni0643 dx=-120 dy=0 dh=-120 dv=0 dx=0 dy=0 dh=0 dv=0
PairPos2: "'kern' Horizontal Kerning lookup 15-2" uniFED7 dx=-150 dy=0 dh=-150 dv=0 dx=0 dy=0 dh=0 dv=0
PairPos2: "'kern' Horizontal Kerning lookup 15-2" uni0642 dx=-50 dy=0 dh=-50 dv=0 dx=0 dy=0 dh=0 dv=0
PairPos2: "'kern' Horizontal Kerning lookup 15-2" uniFED3 dx=-150 dy=0 dh=-150 dv=0 dx=0 dy=0 dh=0 dv=0
PairPos2: "'kern' Horizontal Kerning lookup 15-2" uni0641 dx=-150 dy=0 dh=-150 dv=0 dx=0 dy=0 dh=0 dv=0
PairPos2: "'kern' Horizontal Kerning lookup 15-2" uniFECF dx=-150 dy=0 dh=-150 dv=0 dx=0 dy=0 dh=0 dv=0
PairPos2: "'kern' Horizontal Kerning lookup 15-2" uniFECB dx=-150 dy=0 dh=-150 dv=0 dx=0 dy=0 dh=0 dv=0
PairPos2: "'kern' Horizontal Kerning lookup 15-2" uniFEC7 dx=-150 dy=0 dh=-150 dv=0 dx=0 dy=0 dh=0 dv=0
PairPos2: "'kern' Horizontal Kerning lookup 15-2" uni0638 dx=-150 dy=0 dh=-150 dv=0 dx=0 dy=0 dh=0 dv=0
PairPos2: "'kern' Horizontal Kerning lookup 15-2" uniFEC3 dx=-150 dy=0 dh=-150 dv=0 dx=0 dy=0 dh=0 dv=0
PairPos2: "'kern' Horizontal Kerning lookup 15-2" uni0637 dx=-150 dy=0 dh=-150 dv=0 dx=0 dy=0 dh=0 dv=0
PairPos2: "'kern' Horizontal Kerning lookup 15-2" uniFEBF dx=-150 dy=0 dh=-150 dv=0 dx=0 dy=0 dh=0 dv=0
PairPos2: "'kern' Horizontal Kerning lookup 15-2" uni0636 dx=-150 dy=0 dh=-150 dv=0 dx=0 dy=0 dh=0 dv=0
PairPos2: "'kern' Horizontal Kerning lookup 15-2" uniFEBB dx=-150 dy=0 dh=-150 dv=0 dx=0 dy=0 dh=0 dv=0
PairPos2: "'kern' Horizontal Kerning lookup 15-2" uni0635 dx=-150 dy=0 dh=-150 dv=0 dx=0 dy=0 dh=0 dv=0
PairPos2: "'kern' Horizontal Kerning lookup 15-2" uniFEB7 dx=-150 dy=0 dh=-150 dv=0 dx=0 dy=0 dh=0 dv=0
PairPos2: "'kern' Horizontal Kerning lookup 15-2" uni0634 dx=-150 dy=0 dh=-150 dv=0 dx=0 dy=0 dh=0 dv=0
PairPos2: "'kern' Horizontal Kerning lookup 15-2" uniFEB3 dx=-150 dy=0 dh=-150 dv=0 dx=0 dy=0 dh=0 dv=0
PairPos2: "'kern' Horizontal Kerning lookup 15-2" uni0633 dx=-150 dy=0 dh=-150 dv=0 dx=0 dy=0 dh=0 dv=0
PairPos2: "'kern' Horizontal Kerning lookup 15-2" uni0630 dx=-150 dy=0 dh=-150 dv=0 dx=0 dy=0 dh=0 dv=0
PairPos2: "'kern' Horizontal Kerning lookup 15-2" uni062F dx=-150 dy=0 dh=-150 dv=0 dx=0 dy=0 dh=0 dv=0
PairPos2: "'kern' Horizontal Kerning lookup 15-2" uniFEA7 dx=-150 dy=0 dh=-150 dv=0 dx=0 dy=0 dh=0 dv=0
PairPos2: "'kern' Horizontal Kerning lookup 15-2" uniFEA3 dx=-150 dy=0 dh=-150 dv=0 dx=0 dy=0 dh=0 dv=0
PairPos2: "'kern' Horizontal Kerning lookup 15-2" uniFE9F dx=-150 dy=0 dh=-150 dv=0 dx=0 dy=0 dh=0 dv=0
PairPos2: "'kern' Horizontal Kerning lookup 15-2" uniFE9B dx=-150 dy=0 dh=-150 dv=0 dx=0 dy=0 dh=0 dv=0
PairPos2: "'kern' Horizontal Kerning lookup 15-2" uni062B dx=-150 dy=0 dh=-150 dv=0 dx=0 dy=0 dh=0 dv=0
PairPos2: "'kern' Horizontal Kerning lookup 15-2" uniFE97 dx=-150 dy=0 dh=-150 dv=0 dx=0 dy=0 dh=0 dv=0
PairPos2: "'kern' Horizontal Kerning lookup 15-2" uni062A dx=-150 dy=0 dh=-150 dv=0 dx=0 dy=0 dh=0 dv=0
PairPos2: "'kern' Horizontal Kerning lookup 15-2" uni0629 dx=-150 dy=0 dh=-150 dv=0 dx=0 dy=0 dh=0 dv=0
PairPos2: "'kern' Horizontal Kerning lookup 15-2" uniFE91 dx=-50 dy=0 dh=-50 dv=0 dx=0 dy=0 dh=0 dv=0
PairPos2: "'kern' Horizontal Kerning lookup 15-2" uni0628 dx=-150 dy=0 dh=-150 dv=0 dx=0 dy=0 dh=0 dv=0
PairPos2: "'kern' Horizontal Kerning lookup 15-2" uni0627 dx=-120 dy=0 dh=-120 dv=0 dx=0 dy=0 dh=0 dv=0
PairPos2: "'kern' Horizontal Kerning lookup 15-2" uni0623 dx=-120 dy=0 dh=-120 dv=0 dx=0 dy=0 dh=0 dv=0
PairPos2: "'kern' Horizontal Kerning lookup 15-2" uni0622 dx=-120 dy=0 dh=-120 dv=0 dx=0 dy=0 dh=0 dv=0
PairPos2: "'kern' Horizontal Kerning lookup 15-2" uni0621 dx=-150 dy=0 dh=-150 dv=0 dx=0 dy=0 dh=0 dv=0
PairPos2: "'kern' Horizontal Kerning lookup 15-2" uniFB94 dx=-190 dy=0 dh=-190 dv=0 dx=0 dy=0 dh=0 dv=0
PairPos2: "'kern' Horizontal Kerning lookup 15-2" uniFB92 dx=-190 dy=0 dh=-190 dv=0 dx=0 dy=0 dh=0 dv=0
PairPos2: "'kern' Horizontal Kerning lookup 15-2" afii57509 dx=-190 dy=0 dh=-190 dv=0 dx=0 dy=0 dh=0 dv=0
PairPos2: "'kern' Horizontal Kerning lookup 15-2" afii57506 dx=-150 dy=0 dh=-150 dv=0 dx=0 dy=0 dh=0 dv=0
PairPos2: "'kern' Horizontal Kerning lookup 15-2" afii57440 dx=-150 dy=0 dh=-150 dv=0 dx=0 dy=0 dh=0 dv=0
PairPos2: "'kern' Horizontal Kerning lookup 15-2" uniFE8B dx=-150 dy=0 dh=-150 dv=0 dx=0 dy=0 dh=0 dv=0
EndChar

StartChar: uniFEB2
Encoding: 65202 65202 191
Width: 2625
VWidth: 2418
GlyphClass: 2
Flags: W
AnchorPoint: "Anchor-10" 716.809 991.43 basechar 0
AnchorPoint: "Anchor-7" 453.981 -684.484 basechar 0
LayerCount: 2
Fore
SplineSet
2566.3984375 0.5498046875 m 2,0,1
 2406.33065306 0.5498046875 2406.33065306 0.5498046875 2320.70800781 117.127929688 c 1,2,3
 2232 -1 2232 -1 2089.64453125 0 c 0,4,5
 1906 1 1906 1 1821.11230469 125.471679688 c 1,6,7
 1744 -1 1744 -1 1592.56347656 -0.51953125 c 0,8,9
 1475 -0 1475 -0 1407.96191406 42.611328125 c 1,10,11
 1388 -217 1388 -217 1221.5234375 -348.928710938 c 0,12,13
 1055 -480 1055 -480 749.252929688 -479.88671875 c 0,14,15
 250.577101963 -478.997462639 250.577101963 -478.997462639 130.407226562 -128.82421875 c 0,16,17
 93 -20 93 -20 93.0400390625 133.565429688 c 128,-1,18
 92.9999556338 287.170016754 92.9999556338 287.170016754 171.21875 515.18359375 c 2,19,-1
 178.934570312 537.67578125 l 1,20,-1
 385.057617188 478.310546875 l 1,21,-1
 376.684570312 453.526367188 l 2,22,23
 316 274 316 274 315.823730469 98.7983398438 c 0,24,25
 315 -260 315 -260 752.319335938 -259.6796875 c 0,26,27
 981 -260 981 -260 1090.00488281 -170.915039062 c 128,-1,28
 1199 -82 1199 -82 1199.07080078 97.9174804688 c 128,-1,29
 1199.00005723 277.854431664 1199.00005723 277.854431664 1132.97363281 535.452148438 c 2,30,-1
 1126.43457031 560.963867188 l 1,31,-1
 1345.98046875 605.203125 l 1,32,-1
 1350.70898438 580.383789062 l 2,33,34
 1357 550 1357 550 1366.39134064 494.356470603 c 0,35,36
 1389 367 1389 367 1402.063139 325.195013096 c 0,37,38
 1431 233 1431 233 1558.94824219 232.91796875 c 0,39,40
 1658 232 1658 232 1693.05761719 293.595703125 c 0,41,42
 1710.92719476 324.872570027 1710.92719476 324.872570027 1715.23535156 374.572265625 c 2,43,-1
 1736.85253906 623.952148438 l 1,44,-1
 1913.44238281 623.952148438 l 1,45,-1
 1938.88769531 369.806640625 l 2,46,47
 1946 297 1946 297 1981.54785156 264.443359375 c 128,-1,48
 2017 232 2017 232 2078.09472656 232.084472656 c 0,49,50
 2139 233 2139 233 2167.75195312 268.510742188 c 0,51,52
 2196.41250724 305.532853939 2196.41250724 305.532853939 2202.88671875 386.399414062 c 2,53,-1
 2221.87988281 623.634765625 l 1,54,-1
 2395.12109375 623.634765625 l 1,55,-1
 2416.5390625 389.248046875 l 2,56,57
 2424 307 2424 307 2468.25097656 270.087402344 c 0,58,59
 2513.38412696 232.681640625 2513.38412696 232.681640625 2597.74511719 232.681640625 c 2,60,-1
 2633.50585938 232.681640625 l 5,61,-1
 2633.50585938 0.5498046875 l 5,62,-1
 2566.3984375 0.5498046875 l 2,0,1
EndSplineSet
EndChar

StartChar: uniFEB3
Encoding: 65203 65203 192
Width: 1741
VWidth: 2418
GlyphClass: 2
Flags: W
AnchorPoint: "Anchor-10" 832.466 1070.51 basechar 0
AnchorPoint: "Anchor-7" 866.645 -268.801 basechar 0
LayerCount: 2
Fore
SplineSet
1367.53320312 258.811523438 m 0,0,1
 1443 325 1443 325 1426.09179688 459.556640625 c 0,2,3
 1415.21004433 551.230471788 1415.21004433 551.230471788 1362.77441406 689.651367188 c 2,4,-1
 1354.28515625 712.061523438 l 1,5,-1
 1553.48828125 797.3203125 l 1,6,-1
 1563.98925781 776.139648438 l 2,7,8
 1638 628 1638 628 1648.54492188 437.791015625 c 0,9,10
 1660 241 1660 241 1544.81738281 110.541015625 c 0,11,12
 1449 1 1449 1 1281.0703125 0.6396484375 c 0,13,14
 1077 0 1077 0 1001.87988281 124.693359375 c 1,15,16
 929 -1 929 -1 734.162109375 -0.0400390625 c 0,17,18
 535 1 535 1 437.633789062 132.143554688 c 1,19,20
 356 0 356 0 163.241210938 0 c 2,21,-1
 -11.42578125 0 l 5,22,-1
 -11.42578125 232.243164062 l 5,23,-1
 134.879882812 232.243164062 l 2,24,25
 226 232 226 232 273.189453125 272.4609375 c 0,26,27
 320.48449949 312.562901728 320.48449949 312.562901728 331.077148438 398.657226562 c 2,28,-1
 358.583007812 622.217773438 l 1,29,-1
 526.439453125 622.217773438 l 1,30,-1
 550.358398438 403.412109375 l 2,31,32
 560 316 560 316 608.137695312 274.05859375 c 0,33,34
 656 233 656 233 749.157226562 232.092773438 c 0,35,36
 813 232 813 232 848.75390625 271.6875 c 0,37,38
 884.765148321 310.745279955 884.765148321 310.745279955 896.28125 399.297851562 c 2,39,-1
 925.375976562 623.020507812 l 1,40,-1
 1093.90332031 623.020507812 l 1,41,-1
 1121.79882812 398.404296875 l 2,42,43
 1133 311 1133 311 1170.42480469 270.969726562 c 128,-1,44
 1208 231 1208 231 1275.265625 231.577148438 c 0,45,46
 1337 232 1337 232 1367.53320312 258.811523438 c 0,0,1
EndSplineSet
EndChar

StartChar: uniFEB4
Encoding: 65204 65204 193
Width: 1797
VWidth: 2412
GlyphClass: 2
Flags: W
AnchorPoint: "Anchor-10" 697.932 1065.02 basechar 0
AnchorPoint: "Anchor-7" 808.335 -240.246 basechar 0
LayerCount: 2
Fore
SplineSet
1731.20117188 0 m 2,0,1
 1575 0 1575 0 1495.03027344 116.9765625 c 1,2,3
 1434 1 1434 1 1256.59667969 1.09765625 c 128,-1,4
 1079 1 1079 1 997.74609375 129.319335938 c 1,5,6
 922 -3 922 -3 732.655761719 1.021484375 c 0,7,8
 543 5 543 5 447.426757812 134.30078125 c 1,9,10
 367 0 367 0 172.30078125 0 c 2,11,-1
 -10.826171875 0 l 1,12,-1
 -10.826171875 232.241210938 l 1,13,-1
 133.334960938 232.2421875 l 2,14,15
 228 232 228 232 276.411132812 271.732421875 c 0,16,17
 324.568113759 310.650966823 324.568113759 310.650966823 333.916992188 395.079101562 c 2,18,-1
 359.00390625 621.634765625 l 1,19,-1
 528.2578125 621.634765625 l 1,20,-1
 555.092773438 405.044921875 l 2,21,22
 576 233 576 233 738.07421875 232.872070312 c 0,23,24
 803 233 803 233 838.931640625 268.141601562 c 0,25,26
 874.446187405 302.430792635 874.446187405 302.430792635 885.09375 381.010742188 c 2,27,-1
 917.698242188 621.634765625 l 1,28,-1
 1081.82714844 621.634765625 l 1,29,-1
 1111.47753906 383.359375 l 2,30,31
 1121 304 1121 304 1147.01377125 275.989544376 c 0,32,33
 1189 232 1189 232 1248.50097656 232.537109375 c 0,34,35
 1303 233 1303 233 1326.90059679 260.589270928 c 0,36,37
 1367.09674435 307.111971134 1367.09674435 307.111971134 1377.16894531 393.435546875 c 2,38,-1
 1403.87695312 622.3359375 l 1,39,-1
 1571.55859375 622.3359375 l 1,40,-1
 1598.60058594 389.999023438 l 2,41,42
 1611 283 1611 283 1684.49804688 249.971679688 c 0,43,44
 1720.50221746 233.231445311 1720.50221746 233.231445311 1777.390625 233.231445312 c 2,45,-1
 1811.61816406 233.231445312 l 5,46,-1
 1811.61816406 0 l 5,47,-1
 1731.20117188 0 l 2,0,1
EndSplineSet
EndChar

StartChar: uniFEBA
Encoding: 65210 65210 199
Width: 2640
VWidth: 2418
GlyphClass: 2
Flags: W
AnchorPoint: "Anchor-10" 539.816 952.991 basechar 0
AnchorPoint: "Anchor-7" 426.364 -609.28 basechar 0
LayerCount: 2
Fore
SplineSet
1598.59179688 243.618164062 m 1,0,-1
 1759.34082031 243.618164062 l 2,1,2
 1834.59863281 243.807617188 1834.59863281 243.807617188 1899.17089844 246.002929688 c 128,-1,3
 1963.74316406 248.19921875 1963.74316406 248.19921875 2017.0546875 252.366210938 c 0,4,5
 2113.91894531 260.623046875 2113.91894531 260.623046875 2161.34863281 295.263671875 c 128,-1,6
 2208.77832031 329.904296875 2208.77832031 329.904296875 2215.22851562 391.331054688 c 0,7,8
 2217.34375 412.04296875 2217.34375 412.04296875 2217.37109375 430.625 c 0,9,10
 2217.45117188 485.658203125 2217.45117188 485.658203125 2200.55566406 520.161132812 c 128,-1,11
 2183.66015625 554.663085938 2183.66015625 554.663085938 2148.03320312 571.314453125 c 128,-1,12
 2112.40527344 587.96484375 2112.40527344 587.96484375 2055.38769531 587.951171875 c 0,13,14
 1868.45117188 587.994140625 1868.45117188 587.994140625 1598.59179688 243.618164062 c 1,0,-1
2418.015625 300.8828125 m 1,15,16
 2480.88365058 232.133789062 2480.88365058 232.133789062 2630.53417969 232.133789062 c 2,17,-1
 2650.75585938 232.133789062 l 5,18,-1
 2650.75585938 0 l 5,19,-1
 2602.87304688 0 l 2,20,21
 2402 0 2402 0 2296.61132812 117.540039062 c 1,22,23
 2146.37809623 -1.11429199255 2146.37809623 -1.11429199255 1728.00195312 -0.828125 c 2,24,-1
 1726.57421875 -0.8271484375 l 2,25,26
 1724 -1 1724 -1 1721.20762971 -0.923048197155 c 128,-1,27
 1718.41525943 -0.846096394309 1718.41525943 -0.846096394309 1703.53417969 -0.7353515625 c 2,28,-1
 1604.59179688 0.0009765625 l 2,29,30
 1464 1 1464 1 1403.46679688 65.1767578125 c 1,31,32
 1390.49136116 -292.329610842 1390.49136116 -292.329610842 1103.99316406 -416.592773438 c 0,33,34
 953.836187233 -481.530572077 953.836187233 -481.530572077 743.3671875 -479.950195312 c 0,35,36
 423 -480 423 -480 258 -329 c 128,-1,37
 93 -178 93 -178 92.90234375 119.115234375 c 0,38,39
 93.0001009491 287.17354555 93.0001009491 287.17354555 171.21875 515.18359375 c 2,40,-1
 178.896484375 537.564453125 l 1,41,-1
 388.094726562 478.435546875 l 1,42,-1
 379.686523438 453.530273438 l 2,43,44
 317.361094262 270.949069536 317.361094262 270.949069536 316.180547131 97.4745347679 c 0,45,46
 313.745738047 -260.306499154 313.745738047 -260.306499154 753.26953125 -259.680664062 c 0,47,48
 982 -260 982 -260 1091 -171 c 128,-1,49
 1200 -82 1200 -82 1199.00071076 101.395424991 c 128,-1,50
 1198.00142151 284.790849982 1198.00142151 284.790849982 1133.00097656 535.383789062 c 2,51,-1
 1126.36914062 560.951171875 l 1,52,-1
 1347.21191406 605.447265625 l 1,53,-1
 1350.72265625 578.94140625 l 1,54,55
 1379.9333297 374.466692096 1379.9333297 374.466692096 1420.92871094 335.341796875 c 1,56,57
 1761 824 1761 824 2079.13183594 824.103515625 c 0,58,59
 2087 824 2087 824 2094.2734375 823.916015625 c 0,60,61
 2268 820 2268 820 2354.52246094 715.921875 c 128,-1,62
 2441 612 2441 612 2436.40234375 418.58203125 c 0,63,64
 2435.69024755 369.765416811 2435.69024755 369.765416811 2418.015625 300.8828125 c 1,15,16
EndSplineSet
EndChar

StartChar: uniFEBB
Encoding: 65211 65211 200
Width: 1620
VWidth: 2418
GlyphClass: 2
Flags: W
AnchorPoint: "Anchor-10" 629.482 1157.67 basechar 0
AnchorPoint: "Anchor-7" 607.643 -220.479 basechar 0
LayerCount: 2
Fore
SplineSet
512.532226562 335.090820312 m 1,0,1
 597 456 597 456 679.90625 546.932617188 c 128,-1,2
 763 638 763 638 844.703125 699.741210938 c 0,3,4
 927 762 927 762 1008.37109375 792.891601562 c 0,5,6
 1090 824 1090 824 1170.375 824.103515625 c 0,7,8
 1175 824 1175 824 1180.45800781 824.018554688 c 0,9,10
 1355 821 1355 821 1442.86425781 717.436523438 c 0,11,12
 1531 614 1531 614 1527.64941406 418.78125 c 0,13,14
 1524 185 1524 185 1327.5859375 78.6103515625 c 0,15,16
 1252 38 1252 38 1126.01464844 18.455078125 c 0,17,18
 1000.31380229 -0.951552869829 1000.31380229 -0.951552869829 819.245117188 -0.828125 c 2,19,-1
 817.8125 -0.8271484375 l 2,20,21
 817 -1 817 -1 813.543945312 -0.841796875 c 0,22,23
 810 -1 810 -1 805.861328125 -0.810546875 c 0,24,25
 805.733013823 -0.816842518568 805.733013823 -0.816842518568 794.77734375 -0.7353515625 c 2,26,-1
 695.78515625 0.0009765625 l 2,27,28
 497 1 497 1 386.067382812 154.78515625 c 1,29,30
 259 0 259 0 63.4609375 0 c 2,31,-1
 -13.6220703125 0 l 5,32,-1
 -13.6220703125 232.243164062 l 5,33,-1
 34.2119140625 232.243164062 l 2,34,35
 142 232 142 232 195.313476562 271.2734375 c 0,36,37
 249.096240786 310.069422913 249.096240786 310.069422913 258.419921875 391.159179688 c 2,38,-1
 285.109375 623.282226562 l 1,39,-1
 452.235351562 623.282226562 l 1,40,-1
 474.889648438 436.421875 l 2,41,42
 483 367 483 367 512.532226562 335.090820312 c 1,0,1
689.811523438 243.618164062 m 1,43,-1
 850.583007812 243.618164062 l 2,44,45
 999.00390625 243.997070312 999.00390625 243.997070312 1107.31347656 252.3671875 c 0,46,47
 1204.53027344 260.624023438 1204.53027344 260.624023438 1252.21972656 295.510742188 c 128,-1,48
 1299.90917969 330.397460938 1299.90917969 330.397460938 1306.47265625 392.334960938 c 0,49,50
 1308.56738281 412.973632812 1308.56738281 412.973632812 1308.57128906 431.501953125 c 0,51,52
 1308.58398438 486.211914062 1308.58398438 486.211914062 1291.68652344 520.515625 c 128,-1,53
 1274.7890625 554.8203125 1274.7890625 554.8203125 1239.1875 571.392578125 c 128,-1,54
 1203.58691406 587.96484375 1203.58691406 587.96484375 1146.63085938 587.951171875 c 0,55,56
 959.469726562 587.994140625 959.469726562 587.994140625 689.811523438 243.618164062 c 1,43,-1
EndSplineSet
EndChar

StartChar: uniFEBC
Encoding: 65212 65212 201
Width: 1728
VWidth: 2418
GlyphClass: 2
Flags: W
AnchorPoint: "Anchor-10" 684.328 1188.16 basechar 0
AnchorPoint: "Anchor-7" 695.919 -255.622 basechar 0
LayerCount: 2
Fore
SplineSet
687.811523438 243.618164062 m 1,0,-1
 848.58203125 243.618164062 l 2,1,2
 927.870117188 243.826171875 927.870117188 243.826171875 992.142578125 246.020507812 c 128,-1,3
 1056.41503906 248.21484375 1056.41503906 248.21484375 1105.21875 252.359375 c 0,4,5
 1202.546875 260.625 1202.546875 260.625 1250.2265625 295.502929688 c 128,-1,6
 1297.90722656 330.380859375 1297.90722656 330.380859375 1304.47265625 392.334960938 c 0,7,8
 1305.51660156 402.625976562 1305.51660156 402.625976562 1306.04296875 412.46875 c 128,-1,9
 1306.56933594 422.311523438 1306.56933594 422.311523438 1306.57128906 431.501953125 c 0,10,11
 1306.58984375 513.18359375 1306.58984375 513.18359375 1268.06933594 550.577148438 c 128,-1,12
 1229.54882812 587.970703125 1229.54882812 587.970703125 1144.63085938 587.951171875 c 0,13,14
 957.469726562 587.994140625 957.469726562 587.994140625 687.811523438 243.618164062 c 1,0,-1
1387.65625 118.99609375 m 1,15,16
 1359 96 1359 96 1325.37988281 78.5 c 0,17,18
 1249 38 1249 38 1122.421875 18.46484375 c 0,19,20
 996.323470265 -0.950196133616 996.323470265 -0.950196133616 817.245117188 -0.828125 c 2,21,-1
 815.8125 -0.8271484375 l 2,22,23
 815 -1 815 -1 811.543945312 -0.841796875 c 0,24,25
 808 -1 808 -1 803.861328125 -0.810546875 c 0,26,27
 804 -1 804 -1 792.77734375 -0.7353515625 c 2,28,-1
 693.78515625 0.0009765625 l 2,29,30
 495 1 495 1 384.077148438 154.772460938 c 1,31,32
 257 0 257 0 64.4609375 0 c 2,33,-1
 -13.6220703125 0 l 1,34,-1
 -13.6220703125 232.243164062 l 1,35,-1
 33.2119140625 232.243164062 l 2,36,37
 143 232 143 232 197.181640625 271.01171875 c 0,38,39
 251.414186601 310.30005418 251.414186601 310.30005418 259.380859375 389.796875 c 2,40,-1
 282.779296875 623.282226562 l 1,41,-1
 450.235351562 623.282226562 l 1,42,-1
 472.889648438 436.421875 l 2,43,44
 477 399 477 399 486.79296875 375.551757812 c 0,45,46
 497 350 497 350 510.532226562 335.090820312 c 1,47,48
 624 497 624 497 733.079101562 604.65234375 c 0,49,50
 842 713 842 713 951.856445312 768.341796875 c 0,51,52
 1063.98210132 825.520734793 1063.98210132 825.520734793 1168.375 824.103515625 c 0,53,54
 1176 824 1176 824 1182.50683594 823.940429688 c 0,55,56
 1356 820 1356 820 1443.38769531 716.219726562 c 0,57,58
 1531.41170717 611.317605929 1531.41170717 611.317605929 1525.64648438 418.609375 c 0,59,60
 1525 397 1525 397 1523.02832031 376.641601562 c 0,61,62
 1521 356 1521 356 1517.24804688 336.568359375 c 0,63,64
 1514 317 1514 317 1508.38867188 298.750976562 c 1,65,66
 1585.37094407 232.681640625 1585.37094407 232.681640625 1717.29296875 232.681640625 c 2,67,-1
 1738.51464844 232.681640625 l 5,68,-1
 1738.51464844 0.5498046875 l 5,69,-1
 1693.76171875 0.5498046875 l 2,70,71
 1490 1 1490 1 1387.65625 118.99609375 c 1,15,16
EndSplineSet
EndChar

StartChar: uniFEC2
Encoding: 65218 65218 207
Width: 1546
VWidth: 2418
GlyphClass: 2
Flags: W
AnchorPoint: "Anchor-7" 591.701 -260.714 basechar 0
AnchorPoint: "Anchor-10" 400.876 1579.38 basechar 0
LayerCount: 2
Fore
SplineSet
1337.01269531 285.978515625 m 1,0,1
 1377.24029237 232.681640625 1377.24029237 232.681640625 1527.41894531 232.681640625 c 2,2,-1
 1555.98730469 232.681640625 l 1,3,-1
 1555.98730469 0.5498046875 l 1,4,-1
 1462.74707031 0.5498046875 l 2,5,6
 1310 1 1310 1 1209.96386719 103.448242188 c 1,7,-1
 1199.29882812 96.3681640625 l 2,8,9
 1048 -4 1048 -4 646.568359375 -0.0908203125 c 0,10,11
 638 0 638 0 628.94921875 0 c 2,12,-1
 92.7392578125 0 l 1,13,-1
 92.7392578125 232.119140625 l 1,14,-1
 259.744140625 232.256835938 l 1,15,16
 285 274 285 274 313.662109375 314.733398438 c 1,17,-1
 313.662109375 1483.81542969 l 5,18,-1
 532.616210938 1483.81542969 l 5,19,-1
 532.616210938 583.912109375 l 1,20,21
 609 663 609 663 684.5078125 716.754882812 c 0,22,23
 760 770 760 770 835.859375 797.483398438 c 0,24,25
 907.755657142 823.46612907 907.755657142 823.46612907 986.786132812 824.83984375 c 0,26,27
 996 825 996 825 1005.20996094 824.59375 c 0,28,29
 1183 820 1183 820 1271.81054688 716.099609375 c 0,30,31
 1361 612 1361 612 1355.14453125 419.189453125 c 0,32,33
 1353 350 1353 350 1337.01269531 285.978515625 c 1,0,1
517.334960938 244.35546875 m 1,34,-1
 678.145507812 244.35546875 l 2,35,36
 885.638671875 244.001953125 885.638671875 244.001953125 957.274414062 251.951171875 c 0,37,38
 1044.60058594 260.77734375 1044.60058594 260.77734375 1086.70605469 295.170898438 c 128,-1,39
 1128.81152344 329.564453125 1128.81152344 329.564453125 1133.92871094 391.577148438 c 0,40,41
 1134.62890625 400.231445312 1134.62890625 400.231445312 1134.9765625 408.536132812 c 128,-1,42
 1135.32421875 416.840820312 1135.32421875 416.840820312 1135.3203125 424.716796875 c 0,43,44
 1135.27148438 510.551757812 1135.27148438 510.551757812 1096.17578125 549.717773438 c 128,-1,45
 1057.08105469 588.8828125 1057.08105469 588.8828125 971.595703125 588.799804688 c 0,46,47
 787.328125 588.977539062 787.328125 588.977539062 517.334960938 244.35546875 c 1,34,-1
EndSplineSet
EndChar

StartChar: uniFEC3
Encoding: 65219 65219 208
Width: 1317
VWidth: 2418
GlyphClass: 2
Flags: W
AnchorPoint: "Anchor-10" 268.745 1585.08 basechar 0
AnchorPoint: "Anchor-7" 452.394 -255.622 basechar 0
LayerCount: 2
Fore
SplineSet
386.599609375 244.357421875 m 5,0,-1
 547.328125 244.357421875 l 6,1,2
 751.125 244.018554688 751.125 244.018554688 827.508789062 251.958007812 c 4,3,4
 912.077148438 260.748046875 912.077148438 260.748046875 954.139648438 295.268554688 c 132,-1,5
 996.202148438 329.790039062 996.202148438 329.790039062 1003.1796875 392.271484375 c 4,6,7
 1005.83789062 415.251953125 1005.83789062 415.251953125 1005.84179688 435.529296875 c 4,8,9
 1005.85351562 515.40234375 1005.85351562 515.40234375 966.690429688 552.142578125 c 132,-1,10
 927.528320312 588.8828125 927.528320312 588.8828125 840.779296875 588.801757812 c 4,11,12
 657.264648438 588.977539062 657.264648438 588.977539062 386.599609375 244.357421875 c 5,0,-1
401.799804688 583.904296875 m 5,13,14
 625 814 625 814 860.208984375 820.841796875 c 4,15,16
 866 821 866 821 871.456054688 820.75 c 4,17,18
 1049 818 1049 818 1138.16210938 715.170898438 c 4,19,20
 1228 613 1228 613 1224.33398438 419.453125 c 4,21,22
 1222 299 1222 299 1173.80273438 212.549804688 c 4,23,24
 1126 126 1126 126 1032.32421875 76.046875 c 4,25,26
 878 -7 878 -7 515.787109375 -0.0888671875 c 4,27,28
 511 0 511 0 506.8125 -0.0205078125 c 4,29,30
 501.541666667 0.001953125 501.541666667 0.001953125 498.1328125 0.001953125 c 6,31,-1
 -21.0771484375 0.001953125 l 1,32,-1
 -21.0771484375 232.118164062 l 1,33,-1
 128.888671875 232.2578125 l 5,34,35
 154 274 154 274 182.845703125 314.766601562 c 5,36,-1
 182.845703125 1483.81738281 l 5,37,-1
 401.799804688 1483.81738281 l 5,38,-1
 401.799804688 583.904296875 l 5,13,14
EndSplineSet
EndChar

StartChar: uniFEC4
Encoding: 65220 65220 209
Width: 1414
VWidth: 2418
GlyphClass: 2
Flags: W
AnchorPoint: "Anchor-10" 286.112 1582.67 basechar 0
AnchorPoint: "Anchor-7" 533.839 -273.193 basechar 0
LayerCount: 2
Fore
SplineSet
386.956054688 244.35546875 m 1,0,-1
 547.7265625 244.35546875 l 2,1,2
 734.735839659 244.004306928 734.735839659 244.004306928 821.066162017 252.461137839 c 0,3,4
 993.826366597 269.384552444 993.826366597 269.384552444 1003.50097656 391.4921875 c 0,5,6
 1012.20774737 502.64669754 1012.20774737 502.64669754 969.392447902 545.76475502 c 128,-1,7
 926.577148438 588.8828125 926.577148438 588.8828125 841.174804688 588.799804688 c 0,8,9
 657.294921875 588.977539062 657.294921875 588.977539062 386.956054688 244.35546875 c 1,0,-1
1079.86425781 102.815429688 m 1,10,11
 927 0 927 0 498.125976562 0 c 2,12,-1
 -16.181640625 0 l 1,13,-1
 -16.181640625 232.119140625 l 1,14,-1
 128.762695312 232.256835938 l 1,15,16
 154 275 154 275 182.838867188 314.883789062 c 1,17,-1
 182.838867188 1483.81542969 l 1,18,-1
 401.791992188 1483.81542969 l 1,19,-1
 401.791992188 583.956054688 l 1,20,21
 639.597381627 831.091634375 639.597381627 831.091634375 875.661132812 820.475585938 c 0,22,23
 1054 815 1054 815 1142 712.5 c 0,24,25
 1238.34006675 600.285717709 1238.34006675 600.285717709 1223.17382812 396.921875 c 0,26,27
 1222 386 1222 386 1221 375 c 0,28,29
 1216.45856354 325.044198895 1216.45856354 325.044198895 1206.09472656 286.076171875 c 1,30,31
 1246.23935822 232.681640625 1246.23935822 232.681640625 1396.59570312 232.681640625 c 2,32,-1
 1424.1640625 232.681640625 l 1,33,-1
 1424.1640625 0.5498046875 l 1,34,-1
 1331.92285156 0.5498046875 l 2,35,36
 1180 1 1180 1 1079.86425781 102.815429688 c 1,10,11
EndSplineSet
EndChar

StartChar: uniFECA
Encoding: 65226 65226 215
Width: 1239
VWidth: 2418
GlyphClass: 2
Flags: W
AnchorPoint: "Anchor-10" 645.28 1186.35 basechar 0
AnchorPoint: "Anchor-7" 445.435 -726.551 basechar 0
LayerCount: 2
Fore
SplineSet
840.0859375 745.3828125 m 1,0,1
 835.910466109 784.060560574 835.910466109 784.060560574 707.961328615 784.055319913 c 128,-1,2
 580.01219112 784.050079252 580.01219112 784.050079252 580.032226562 742.6328125 c 0,3,4
 580.010701041 707.153371245 580.010701041 707.153371245 662.017578125 628.807617188 c 1,5,6
 817.615860967 714.297424502 817.615860967 714.297424502 840.0859375 745.3828125 c 1,0,1
787.688476562 444.060546875 m 1,7,8
 929.213151387 232.681640625 929.213151387 232.681640625 1211.79882812 232.681640625 c 2,9,-1
 1254.86816406 232.681640625 l 5,10,-1
 1254.86816406 0.5498046875 l 5,11,-1
 1230.57128906 0.5498046875 l 2,12,13
 815 1 815 1 602.505859375 341.434570312 c 1,14,15
 312 195 312 195 311.999023438 8.8896484375 c 0,16,17
 312 -146 312 -146 431.387695312 -234.916992188 c 0,18,19
 554 -326 554 -326 778.890625 -325.885742188 c 0,20,21
 961.696065199 -325.999810349 961.696065199 -325.999810349 1052.71777344 -293.768554688 c 2,22,-1
 1078.18359375 -284.750976562 l 1,23,-1
 1133.60058594 -490.657226562 l 1,24,-1
 1113.44335938 -499.106445312 l 2,25,26
 992 -550 992 -550 779.416015625 -547.56640625 c 0,27,28
 435 -544 435 -544 262.109375 -389.4453125 c 0,29,30
 72 -218 72 -218 92.0004882812 16.8149414062 c 0,31,32
 119 331 119 331 462.291015625 505.9375 c 1,33,34
 337 635 337 635 336.8359375 751.6015625 c 0,35,36
 337 946 337 946 604.85546875 985.915039062 c 0,37,38
 654 993 654 993 710.442382812 993.524414062 c 0,39,40
 871 993 871 993 970.372070312 938.313476562 c 0,41,42
 1097 868 1097 868 1086.17382812 743.520507812 c 0,43,44
 1073 595 1073 595 787.688476562 444.060546875 c 1,7,8
EndSplineSet
EndChar

StartChar: uniFECB
Encoding: 65227 65227 216
Width: 1098
VWidth: 2418
GlyphClass: 2
Flags: W
AnchorPoint: "Anchor-10" 466.469 1264.59 basechar 0
AnchorPoint: "Anchor-7" 432.792 -266.055 basechar 0
LayerCount: 2
Fore
SplineSet
828.282226562 588.555664062 m 2,0,1
 726.098632812 665.413085938 726.098632812 665.413085938 603.357421875 671.533203125 c 0,2,3
 547.234375 674.5078125 547.234375 674.5078125 499.83984375 655.038085938 c 128,-1,4
 452.446289062 635.569335938 452.446289062 635.569335938 411.598632812 592.55078125 c 0,5,6
 364.770507812 542.8359375 364.770507812 542.8359375 363.112304688 471.500976562 c 0,7,8
 360.909179688 397.439453125 360.909179688 397.439453125 418.870117188 346.346679688 c 128,-1,9
 476.831054688 295.252929688 476.831054688 295.252929688 603.876953125 266.662109375 c 1,10,-1
 1005.56542969 352.244140625 l 1,11,-1
 1005.56542969 117.345703125 l 1,12,-1
 984.494140625 113.993164062 l 2,13,14
 887.064453125 98.4912109375 887.064453125 98.4912109375 765.899414062 67.5830078125 c 0,15,16
 643.131835938 35.763671875 643.131835938 35.763671875 572.624023438 18.359375 c 0,17,18
 535.21484375 9.021484375 535.21484375 9.021484375 485.305664062 4.5 c 128,-1,19
 435.397460938 -0.0205078125 435.397460938 -0.0205078125 372.004882812 -0.017578125 c 2,20,-1
 -36.42578125 0.0009765625 l 1,21,-1
 -36.42578125 232.240234375 l 1,22,-1
 246.690429688 232.2734375 l 1,23,24
 144.629882812 329.825195312 144.629882812 329.825195312 142.323242188 467.11328125 c 0,25,26
 137.731445312 695.060546875 137.731445312 695.060546875 323.305664062 821.07421875 c 0,27,28
 480.69921875 927.599609375 480.69921875 927.599609375 681.716796875 886.522460938 c 0,29,30
 732.479492188 876.102539062 732.479492188 876.102539062 776.106445312 859.26953125 c 128,-1,31
 819.734375 842.435546875 819.734375 842.435546875 856.684570312 818.75 c 128,-1,32
 893.633789062 795.064453125 893.633789062 795.064453125 922.975585938 764.801757812 c 2,33,-1
 934.731445312 752.677734375 l 1,34,-1
 853.393554688 569.66796875 l 1,35,-1
 828.282226562 588.555664062 l 2,0,1
EndSplineSet
EndChar

StartChar: uniFECC
Encoding: 65228 65228 217
Width: 1023
VWidth: 2418
GlyphClass: 2
Flags: W
AnchorPoint: "Anchor-10" 510.221 1188.02 basechar 0
AnchorPoint: "Anchor-7" 493.747 -266.055 basechar 0
LayerCount: 2
Fore
SplineSet
518.548828125 596.220703125 m 128,-1,1
 388.450195312 596.220703125 388.450195312 596.220703125 388.450195312 554.45703125 c 0,2,3
 388.134853624 514.076094337 388.134853624 514.076094337 518.544921875 440.685546875 c 1,4,5
 585.353515625 478.306640625 585.353515625 478.306640625 617.047851562 508.631835938 c 128,-1,6
 648.7421875 538.95703125 648.7421875 538.95703125 648.647460938 554.478515625 c 0,7,0
 648.647460938 596.220703125 648.647460938 596.220703125 518.548828125 596.220703125 c 128,-1,1
990.553710938 0.5361328125 m 2,8,9
 677.514521216 0.443552883983 677.514521216 0.443552883983 511.61328125 152.017578125 c 1,10,11
 338 0 338 0 44.8740234375 0 c 2,12,-1
 -10.2451171875 0 l 5,13,-1
 -10.2451171875 232.243164062 l 5,14,-1
 19.044921875 232.243164062 l 2,15,16
 239 232 239 232 355.890625 306.939453125 c 1,17,18
 136 423 136 423 135.25390625 543.401367188 c 0,19,20
 135 745 135 745 388.24609375 793.62890625 c 0,21,22
 448 805 448 805 518.861328125 805.4296875 c 0,23,24
 679 805 679 805 778.709960938 750.262695312 c 0,25,26
 914 676 914 676 903.953613281 550.260253906 c 0,27,28
 894 424 894 424 682.604492188 306.884765625 c 1,29,30
 815.664001698 227.201214764 815.664001698 227.201214764 1001.1328125 232.241210938 c 2,31,-1
 1036.78222656 233.209960938 l 1,32,-1
 1036.78222656 0.5498046875 l 1,33,-1
 990.553710938 0.5361328125 l 2,8,9
EndSplineSet
EndChar

StartChar: uniFEDA
Encoding: 65242 65242 231
Width: 2025
VWidth: 2418
GlyphClass: 2
Flags: W
AnchorPoint: "Anchor-10" 657.503 1512 basechar 0
AnchorPoint: "Anchor-7" 878.25 -222.125 basechar 0
LayerCount: 2
Fore
SplineSet
757.37890625 853.11328125 m 2,0,1
 837.650390625 842.684570312 837.650390625 842.684570312 882.333984375 842.684570312 c 0,2,3
 955.44921875 842.684570312 955.44921875 842.684570312 1012.69726562 864.966796875 c 128,-1,4
 1069.9453125 887.249023438 1069.9453125 887.249023438 1069.9453125 920.810546875 c 128,-1,5
 1069.9453125 954.37109375 1069.9453125 954.37109375 992.958984375 966.5 c 128,-1,6
 915.97265625 978.629882812 915.97265625 978.629882812 874.043945312 1024.96386719 c 128,-1,7
 832.115234375 1071.29785156 832.115234375 1071.29785156 833.749023438 1146.50683594 c 0,8,9
 838.466796875 1337.27734375 838.466796875 1337.27734375 1169.6953125 1359.63378906 c 2,10,-1
 1196.37890625 1361.43457031 l 1,11,-1
 1196.37890625 1227.82519531 l 1,12,-1
 1173.25683594 1226.08398438 l 2,13,14
 1038.24316406 1215.9140625 1038.24316406 1215.9140625 984.39453125 1170.375 c 0,15,16
 970.756835938 1158.84082031 970.756835938 1158.84082031 970.756835938 1140.07128906 c 0,17,18
 970.756835938 1097.27929688 970.756835938 1097.27929688 1048.421875 1085.86035156 c 0,19,20
 1206.5703125 1062.609375 1206.5703125 1062.609375 1206.5703125 943.983398438 c 0,21,22
 1206.5703125 816.083007812 1206.5703125 816.083007812 1084.52929688 747.068359375 c 128,-1,23
 962.48828125 678.052734375 962.48828125 678.052734375 750.103515625 712.96484375 c 2,24,-1
 729.158203125 716.407226562 l 1,25,-1
 729.158203125 856.780273438 l 1,26,-1
 757.37890625 853.11328125 l 2,0,1
1822.82421875 470.111328125 m 2,27,28
 1822.82421875 378.455078125 1822.82421875 378.455078125 1797.87304688 301.138671875 c 1,29,30
 1857.27636719 232.681640625 1857.27636719 232.681640625 1977.07421875 232.681640625 c 2,31,-1
 2068.74316406 232.681640625 l 1,32,-1
 2068.74316406 0.5498046875 l 1,33,-1
 1960.4140625 0.5498046875 l 2,34,35
 1783 1 1783 1 1650.17675781 115.435546875 c 1,36,37
 1492 27 1492 27 1195.83398438 7.478515625 c 0,38,39
 1083 0 1083 0 937.734375 0 c 0,40,41
 652 0 652 0 472.93359375 48.548828125 c 128,-1,42
 294 97 294 97 193.1328125 230.30078125 c 0,43,44
 92 364 92 364 91.0078125 553.829101562 c 0,45,46
 91 682.3359375 91 682.3359375 128.309570312 786.698242188 c 2,47,-1
 135.908203125 807.953125 l 1,48,-1
 333.923828125 759.208984375 l 1,49,-1
 329.131835938 735.68359375 l 2,50,51
 313 656 313 656 308.205078125 584.600585938 c 0,52,53
 304 513 304 513 332.927734375 443.83984375 c 0,54,55
 392 305 392 305 602.215820312 258.16796875 c 0,56,57
 739 228 739 228 1106.91113281 234.928710938 c 0,58,59
 1216 237 1216 237 1272.19042969 242.584960938 c 0,60,61
 1422 258 1422 258 1507.85253906 312.842773438 c 0,62,63
 1593.78027344 366.861328125 1593.78027344 366.861328125 1601.34375 455.337890625 c 2,64,-1
 1605.48828125 503.818359375 l 1,65,-1
 1605.48828125 1484.27050781 l 5,66,-1
 1822.82421875 1484.27050781 l 5,67,-1
 1822.82421875 470.111328125 l 2,27,28
EndSplineSet
EndChar

StartChar: uniFEDB
Encoding: 65243 65243 232
Width: 959
VWidth: 2418
GlyphClass: 2
Flags: W
AnchorPoint: "Anchor-10" 233.26 1525.73 basechar 0
AnchorPoint: "Anchor-7" 337.043 -229.264 basechar 0
LayerCount: 2
Fore
SplineSet
709.141601562 169.342773438 m 0,0,1
 602 0 602 0 324.633789062 0 c 2,2,-1
 -13.1650390625 0 l 1,3,-1
 -13.1650390625 232.241210938 l 1,4,-1
 279.28125 232.26953125 l 2,5,6
 528 232 528 232 552.671875 332.938476562 c 0,7,8
 583 459 583 459 338.420898438 648.993164062 c 0,9,10
 237 728 237 728 92.751953125 812.888671875 c 0,11,12
 -2 869 -2 869 -1.96994805209 1004.81315576 c 0,13,14
 -1.99998172798 1140.91719643 -1.99998172798 1140.91719643 132.047851562 1198.96972656 c 2,15,-1
 924.045898438 1541.96289062 l 5,16,-1
 924.045898438 1309.27734375 l 5,17,-1
 223.512695312 1010.61425781 l 1,18,19
 531 787 531 787 602.087890625 710.055664062 c 0,20,21
 869 421 869 421 709.141601562 169.342773438 c 0,0,1
EndSplineSet
EndChar

StartChar: uniFEDC
Encoding: 65244 65244 233
Width: 985
VWidth: 2418
GlyphClass: 2
Flags: W
AnchorPoint: "Anchor-10" 242.046 1494.97 basechar 0
AnchorPoint: "Anchor-7" 354.615 -301.748 basechar 0
LayerCount: 2
Fore
SplineSet
683.814453125 132.166015625 m 1,0,1
 559 0 559 0 324.633789062 0 c 2,2,-1
 -13.1650390625 0 l 1,3,-1
 -13.1650390625 232.241210938 l 1,4,-1
 279.28125 232.26953125 l 2,5,6
 470 232 470 232 527.591796875 290.129882812 c 0,7,8
 563 325 563 325 553.676757813 382.361328125 c 0,9,10
 545 439 545 439 492.2265625 504.565429688 c 0,11,12
 382 642 382 642 92.7451171875 812.892578125 c 0,13,14
 -2 869 -2 869 -2.3427734375 1000.51074219 c 0,15,16
 -3.00227634382 1140.48312945 -3.00227634382 1140.48312945 132.047851562 1198.96972656 c 2,17,-1
 924.045898438 1541.96289062 l 5,18,-1
 924.045898438 1309.27734375 l 5,19,-1
 223.467773438 1010.59472656 l 1,20,21
 536 783 536 783 597.143554688 715.80859375 c 0,22,23
 722 579 722 579 779.572265625 394.352539062 c 0,24,25
 830.0994973 232.681640625 830.0994973 232.681640625 968.250976562 232.681640625 c 2,26,-1
 1001.75976562 232.681640625 l 1,27,-1
 1001.75976562 0.5498046875 l 1,28,-1
 976.212890625 0.5498046875 l 2,29,30
 773 1 773 1 683.814453125 132.166015625 c 1,0,1
EndSplineSet
EndChar

StartChar: uniFEDE
Encoding: 65246 65246 235
Width: 1526
VWidth: 2418
GlyphClass: 2
Flags: W
AnchorPoint: "Anchor-10" 507.594 990.331 basechar 0
AnchorPoint: "Anchor-7" 412.969 -743.57 basechar 0
LayerCount: 2
Fore
SplineSet
314.302734375 40.45703125 m 0,0,1
 315 -133 315 -133 407 -216 c 128,-1,2
 499 -299 499 -299 688.966796875 -298.455078125 c 128,-1,3
 879 -298 879 -298 968.578125 -211.064453125 c 0,4,5
 1058.13381004 -123.869717579 1058.13381004 -123.869717579 1057.90625 55 c 2,6,-1
 1057.43359375 426.5234375 l 1,7,-1
 1057.43359375 1483.08789062 l 1,8,-1
 1275.29003906 1483.08789062 l 1,9,-1
 1275.29003906 462.9375 l 2,10,11
 1274.99750299 282.45948981 1274.99750299 282.45948981 1382.08203125 245.93359375 c 0,12,13
 1421.95796269 232.681640625 1421.95796269 232.681640625 1466.59863281 232.681640625 c 2,14,-1
 1537.13378906 232.681640625 l 5,15,-1
 1537.13378906 0.5498046875 l 5,16,-1
 1482.08789062 0.5498046875 l 2,17,18
 1357 1 1357 1 1274.12792969 51.728515625 c 1,19,20
 1257 -206 1257 -206 1112.15722656 -363.241210938 c 0,21,22
 967 -520 967 -520 674.817382812 -519.479492188 c 0,23,24
 426 -519 426 -519 262.5 -377 c 128,-1,25
 99 -235 99 -235 98.333984375 32.0751953125 c 0,26,27
 98.000650703 180.709849259 98.000650703 180.709849259 152.465820312 320.477539062 c 2,28,-1
 160.234375 340.413085938 l 1,29,-1
 354.634765625 297.653320312 l 1,30,-1
 347.078125 271.943359375 l 2,31,32
 314 159 314 159 314.302734375 40.45703125 c 0,0,1
EndSplineSet
EndChar

StartChar: uniFEDF
Encoding: 65247 65247 236
Width: 594
VWidth: 2418
GlyphClass: 2
Flags: W
AnchorPoint: "Anchor-10" 337.619 1607.34 basechar 0
AnchorPoint: "Anchor-7" 252.823 -247.385 basechar 0
LayerCount: 2
Fore
SplineSet
465.766601562 502.921875 m 2,0,1
 465.766601562 250.748724119 465.766601562 250.748724119 349.469726562 125.543945312 c 0,2,3
 232 0 232 0 78.4013671875 0 c 2,4,-1
 -10.6220703125 0 l 5,5,-1
 -10.6220703125 232.243164062 l 5,6,-1
 24.7783203125 232.243164062 l 2,7,8
 131 232 131 232 189.28515625 303.594726562 c 0,9,10
 214 334 214 334 232.182617188 392.153320312 c 0,11,12
 246.811523438 435.442271853 246.811523438 435.442271853 246.811523438 517.022460938 c 2,13,-1
 246.811523438 1483.30664062 l 1,14,-1
 465.766601562 1483.30664062 l 1,15,-1
 465.766601562 502.921875 l 2,0,1
EndSplineSet
EndChar

StartChar: uniFEE0
Encoding: 65248 65248 237
Width: 753
VWidth: 2418
GlyphClass: 2
Flags: W
AnchorPoint: "Anchor-10" 387.605 1583.99 basechar 0
AnchorPoint: "Anchor-7" 287.674 -245.188 basechar 0
LayerCount: 2
Fore
SplineSet
397.34375 109.784179688 m 1,0,1
 285 0 285 0 108.62890625 0 c 2,2,-1
 -14.7529296875 0 l 1,3,-1
 -14.7529296875 232.243164062 l 1,4,-1
 44.01953125 232.243164062 l 2,5,6
 171 232 171 232 229.518554688 281.23046875 c 0,7,8
 288.012695312 330.010587024 288.012695312 330.010587024 288.012695312 432.967773438 c 2,9,-1
 288.012695312 1483.171875 l 1,10,-1
 506.967773438 1483.171875 l 1,11,-1
 506.967773438 432.979492188 l 2,12,13
 507 329 507 329 556.205078125 280.657226562 c 0,14,15
 604.756147806 232.243164062 604.756147806 232.243164062 711.462890625 232.243164062 c 2,16,-1
 765.211914062 232.243164062 l 5,17,-1
 765.211914062 0 l 5,18,-1
 646.83203125 0 l 2,19,20
 509 0 509 0 397.34375 109.784179688 c 1,0,1
EndSplineSet
EndChar

StartChar: uniFEE2
Encoding: 65250 65250 239
Width: 1264
VWidth: 2151
GlyphClass: 2
Flags: W
AnchorPoint: "Anchor-10" 478.856 1189.66 basechar 0
AnchorPoint: "Anchor-7" 205.563 -648.646 basechar 0
LayerCount: 2
Fore
SplineSet
638.703125 485.927734375 m 1,0,-1
 637.916992188 430.125 l 2,1,2
 634.325195312 183.166015625 634.325195312 183.166015625 756.376953125 168.657226562 c 0,3,4
 819.40234375 161.370117188 819.40234375 161.370117188 853.837890625 191.446289062 c 128,-1,5
 888.2734375 221.521484375 888.2734375 221.521484375 898.517089844 287.001464844 c 128,-1,6
 908.760742188 352.481445312 908.760742188 352.481445312 903.462890625 396.446777344 c 128,-1,7
 898.165039062 440.412109375 898.165039062 440.412109375 884.782226562 454.821289062 c 128,-1,8
 871.399414062 469.231445312 871.399414062 469.231445312 842.782226562 478.538085938 c 0,9,10
 758.677734375 506.729492188 758.677734375 506.729492188 638.703125 485.927734375 c 1,0,-1
439.359375 445.055664062 m 1,11,12
 311.360351562 373.202286519 311.360351562 373.202286519 311.360351562 106.240234375 c 2,13,-1
 311.360351562 -500.440429688 l 1,14,-1
 92.6396484375 -500.440429688 l 1,15,-1
 92.6396484375 121.83984375 l 2,16,17
 93 422 93 422 256.998046875 564.777859072 c 0,18,19
 447 729 447 729 801.041015625 694.696289062 c 0,20,21
 907 684 907 684 973.151367188 651.1015625 c 0,22,23
 1133 571 1133 571 1097.49511719 308.822265625 c 1,24,25
 1148.86578063 232.200195312 1148.86578063 232.200195312 1256.55957031 232.200195312 c 2,26,-1
 1278.3203125 232.200195312 l 5,27,-1
 1278.3203125 0 l 5,28,-1
 1255.51953125 0 l 2,29,30
 1137 0 1137 0 1024.83691406 87.8955078125 c 1,31,32
 932 -49 932 -49 744.177734375 -42.62890625 c 0,33,34
 652 -40 652 -40 576.268554688 12.1826171875 c 0,35,36
 437 108 437 108 439.359375 445.055664062 c 1,11,12
EndSplineSet
EndChar

StartChar: uniFEE3
Encoding: 65251 65251 240
Width: 967
VWidth: 2418
GlyphClass: 2
Flags: W
AnchorPoint: "Anchor-10" 370.291 1024.38 basechar 0
AnchorPoint: "Anchor-7" 376.881 -207.849 basechar 0
LayerCount: 2
Fore
SplineSet
253.2734375 81.99609375 m 1,0,1
 181 0 181 0 38.3056640625 -0 c 2,2,-1
 -11.42578125 0 l 1,3,-1
 -11.42578125 232.243164062 l 1,4,-1
 34.7919921875 232.241210938 l 2,5,6
 110 232 110 232 139.65234375 310.939453125 c 0,7,8
 301 728 301 728 541.459960938 728.188476562 c 4,9,10
 845 728 845 728 873.974609375 327.313476562 c 0,11,12
 888 135 888 135 782.01171875 36.6796875 c 0,13,14
 694 -45 694 -45 584.55078125 -44.6572265625 c 0,15,16
 448 -45 448 -45 253.2734375 81.99609375 c 1,0,1
349.90625 268.875976562 m 1,17,18
 495 173 495 173 556.192871094 175.962890625 c 0,19,20
 618 179 618 179 641.211914062 207.23046875 c 0,21,22
 682 256 682 256 651.307617188 400.043945312 c 0,23,24
 630 502 630 502 548.16015625 501.611328125 c 4,25,26
 436 501 436 501 349.90625 268.875976562 c 1,17,18
EndSplineSet
EndChar

StartChar: uniFEE4
Encoding: 65252 65252 241
Width: 1066
VWidth: 2418
GlyphClass: 2
Flags: W
AnchorPoint: "Anchor-10" 455.252 1142.44 basechar 0
AnchorPoint: "Anchor-7" 505.483 -228.715 basechar 0
LayerCount: 2
Fore
SplineSet
349.90625 268.875976562 m 1,0,1
 495 173 495 173 556.192871094 175.962890625 c 0,2,3
 618 179 618 179 641.211914062 207.23046875 c 0,4,5
 682 256 682 256 651.307617188 400.043945312 c 0,6,7
 630 502 630 502 548.16015625 501.611328125 c 4,8,9
 436 501 436 501 349.90625 268.875976562 c 1,0,1
813.955078125 86.537109375 m 1,10,11
 716 -48 716 -48 568.743164062 -48.0380859375 c 0,12,13
 431 -48 431 -48 262.077148438 91.0673828125 c 1,14,15
 184 0 184 0 38.3056640625 0 c 2,16,-1
 -11.42578125 0 l 1,17,-1
 -11.42578125 232.243164062 l 1,18,-1
 34.759765625 232.241210938 l 2,19,20
 110 232 110 232 139.626953125 310.87109375 c 0,21,22
 298 728 298 728 541.4609375 728.188476562 c 4,23,24
 802 728 802 728 859.9140625 418.702148438 c 0,25,26
 878 322 878 322 925.993164062 277.086914062 c 0,27,28
 972.620231112 232.364257812 972.620231112 232.364257812 1054.20507812 232.364257812 c 2,29,-1
 1074.23730469 232.364257812 l 1,30,-1
 1074.23730469 0.203125 l 1,31,-1
 1054.11230469 0 l 2,32,33
 908 -1 908 -1 813.955078125 86.537109375 c 1,10,11
EndSplineSet
EndChar

StartChar: uniFEEA
Encoding: 65258 65258 247
Width: 1038
VWidth: 2418
GlyphClass: 2
Flags: W
AnchorPoint: "Anchor-10" 662.009 1119.95 basechar 0
AnchorPoint: "Anchor-7" 401.482 -229.264 basechar 0
LayerCount: 2
Fore
SplineSet
654.815429688 354.282226562 m 1,0,-1
 619.03125 619.302734375 l 1,1,2
 460.928710938 589.282226562 460.928710938 589.282226562 386.916992188 544.45703125 c 128,-1,3
 312.905273438 499.6328125 312.905273438 499.6328125 313.448242188 447.119140625 c 0,4,5
 313.66015625 419.844726562 313.66015625 419.844726562 327.708007812 403.26171875 c 128,-1,6
 341.756835938 386.678710938 341.756835938 386.678710938 375.072265625 376.979492188 c 0,7,8
 443.934570312 356.41015625 443.934570312 356.41015625 654.815429688 354.282226562 c 1,0,-1
1032.09472656 0 m 2,9,10
 914 0 914 0 831.000976562 34.0224609375 c 128,-1,11
 748 68 748 68 703.720703125 137.284179688 c 1,12,13
 376 140 376 140 244.534179688 201.295898438 c 0,14,15
 89 273 89 273 89.1962890625 420.108398438 c 0,16,17
 89 526 89 526 148.204101562 607.881835938 c 0,18,19
 207 689 207 689 317.77734375 744.09375 c 0,20,21
 429 799 429 799 591.529296875 829.698242188 c 1,22,-1
 576.377929688 934.73046875 l 1,23,-1
 795.706054688 961.9921875 l 1,24,-1
 866.356445312 380.251953125 l 2,25,26
 876 304 876 304 916.509765625 268.036132812 c 0,27,28
 957.538919394 232.53367394 957.538919394 232.53367394 1036.58984375 232.265625 c 2,29,-1
 1053.00585938 232.209960938 l 5,30,-1
 1053.00585938 0 l 5,31,-1
 1032.09472656 0 l 2,9,10
EndSplineSet
EndChar

StartChar: uniFEEB
Encoding: 65259 65259 248
Width: 1300
VWidth: 2418
GlyphClass: 2
Flags: W
AnchorPoint: "Anchor-10" 451.683 1397.48 basechar 0
AnchorPoint: "Anchor-7" 324.843 -233.598 basechar 0
LayerCount: 2
Fore
SplineSet
445.528320312 274.809570312 m 1,0,1
 517 292 517 292 579.157226562 408.114257812 c 0,2,3
 623 491 623 491 609.072265625 552.580078125 c 0,4,5
 589 639 589 639 503.655273438 642.552734375 c 0,6,7
 423 646 423 646 370.561523438 574.341796875 c 0,8,9
 288 460 288 460 351.083007812 353.912109375 c 0,10,11
 386 296 386 296 445.528320312 274.809570312 c 1,0,1
793.6171875 599.956054688 m 1,12,13
 837.380160284 371.508705786 837.380160284 371.508705786 659.915039062 196.712890625 c 1,14,15
 836.992260019 140.823689161 836.992260019 140.823689161 913.25 192.372070312 c 0,16,17
 961.3671875 224.897460938 961.3671875 224.897460938 981.053710938 305.604492188 c 0,18,19
 1006.37657153 408.16029907 1006.37657153 408.16029907 793.6171875 599.956054688 c 1,12,13
422.713867188 56.322265625 m 1,20,21
 245 0 245 0 -0.98046875 0 c 2,22,-1
 -18.6220703125 0 l 5,23,-1
 -18.6220703125 233.206054688 l 5,24,-1
 178.024414062 232.600585938 l 1,25,26
 96 337 96 337 113.225116364 487.321070806 c 0,27,28
 130 638 130 638 239.09375 741.702148437 c 0,29,30
 348 846 348 846 502.689453125 830.280273438 c 1,31,32
 488.759061578 840.686014067 488.759061578 840.686014067 471.78125 853.09765625 c 2,33,-1
 451.102539062 868.21484375 l 1,34,-1
 581.8984375 1038.2890625 l 1,35,-1
 601.307617188 1025.48535156 l 2,36,37
 750 928 750 928 943.340332031 742.080078125 c 0,38,39
 1137 557 1137 557 1184.24609375 401.423828125 c 0,40,41
 1207 327 1207 327 1187.42675781 247.518554688 c 0,42,43
 1138 46 1138 46 986.607421875 -9.4716796875 c 0,44,45
 766 -91 766 -91 422.713867188 56.322265625 c 1,20,21
EndSplineSet
EndChar

StartChar: uniFEEC
Encoding: 65260 65260 249
Width: 1034
VWidth: 2418
GlyphClass: 2
Flags: W
AnchorPoint: "Anchor-7" 371.824 -638.907 basechar 0
AnchorPoint: "Anchor-10" 434.292 1117.37 basechar 0
LayerCount: 2
Fore
SplineSet
363.03125 232.720703125 m 1,0,-1
 377.893554688 233.045898438 l 2,1,2
 466.333984375 234.811523438 466.333984375 234.811523438 534.490234375 294.94921875 c 0,3,4
 624.05078125 373.3828125 624.05078125 373.3828125 624.665039062 509.984375 c 0,5,6
 624.905273438 616.670898438 624.905273438 616.670898438 567.388671875 632.494140625 c 0,7,8
 555.78125 635.6875 555.78125 635.6875 541.135742188 635.950195312 c 0,9,10
 493.280273438 636.7421875 493.280273438 636.7421875 457.237304688 597.193359375 c 128,-1,11
 421.1953125 557.645507812 421.1953125 557.645507812 396.1640625 465.729492188 c 128,-1,12
 371.1328125 373.814453125 371.1328125 373.814453125 363.03125 232.720703125 c 1,0,-1
158.748046875 233.299804688 m 1,13,14
 175 531 175 531 271.157226562 685.725585938 c 0,15,16
 367 840 367 840 545.940429688 839.73046875 c 0,17,18
 684 839 684 839 754.547851562 752.76953125 c 0,19,20
 825 666 825 666 824 503.854492188 c 0,21,22
 823 321 823 321 718.453125 192.365234375 c 0,23,24
 688 155 688 155 649.418945312 121.147460938 c 0,25,26
 590 69 590 69 519.001953125 39.4248046875 c 0,27,28
 448 9 448 9 364.997070312 1.5498046875 c 1,29,30
 399 -168 399 -168 530.352539062 -249.387695312 c 1,31,32
 576 -14 576 -14 697.0546875 108.458984375 c 0,33,34
 816.315878299 229.320115944 816.315878299 229.320115944 1010.50488281 233.337890625 c 2,35,-1
 1047.2734375 234.098632812 l 1,36,-1
 1047.2734375 0.865234375 l 1,37,-1
 1028.5 0.0048828125 l 2,38,39
 860 -8 860 -8 786.755859375 -105.143554688 c 0,40,41
 709.171794173 -206.774957875 709.171794173 -206.774957875 714.990234375 -418.313476562 c 2,42,-1
 715.354492188 -431.556640625 l 1,43,-1
 575.99609375 -531.8203125 l 1,44,-1
 562.74609375 -525.6875 l 2,45,46
 234 -373 234 -373 163.458984375 0 c 1,47,-1
 -12.537109375 0 l 5,48,-1
 -12.537109375 233.236328125 l 5,49,-1
 158.748046875 233.299804688 l 1,13,14
EndSplineSet
EndChar

StartChar: uniFEEE
Encoding: 65262 65262 251
Width: 904
VWidth: 2418
GlyphClass: 2
Flags: W
AnchorPoint: "Anchor-10" 454.484 1186.36 basechar 0
AnchorPoint: "Anchor-7" 403.917 -648.751 basechar 0
LayerCount: 2
Fore
SplineSet
595.173828125 220.688476562 m 1,0,1
 589.14453125 529.987304688 589.14453125 529.987304688 466.68359375 529.935546875 c 0,2,3
 415.830078125 529.987304688 415.830078125 529.987304688 372.092773438 468.96484375 c 0,4,5
 325.047851562 403.96875 325.047851562 403.96875 325.458984375 335.059570312 c 0,6,7
 325.268554688 279.907226562 325.268554688 279.907226562 362.452148438 251.659179688 c 128,-1,8
 399.634765625 223.411132812 399.634765625 223.411132812 485.451171875 220.305664062 c 0,9,10
 494.350585938 220.002929688 494.350585938 220.002929688 545.71875 220.311523438 c 0,11,12
 576.387695312 220.153320312 576.387695312 220.153320312 595.173828125 220.688476562 c 1,0,1
569.3203125 -0.400390625 m 1,13,14
 260 -8 260 -8 170.618164062 129.181640625 c 0,15,16
 117 212 117 212 116.840820312 331.411132812 c 0,17,18
 117 462 117 462 196.724609375 595.272460938 c 0,19,20
 305 774 305 774 459.711914062 773.6875 c 0,21,22
 637.652548154 773.005166953 637.652548154 773.005166953 743.122070312 563.103515625 c 0,23,24
 799 452 799 452 809.395507812 231.837890625 c 1,25,-1
 915.091796875 232.810546875 l 5,26,-1
 915.091796875 0.5498046875 l 5,27,-1
 800.892578125 0.5498046875 l 1,28,29
 756 -172 756 -172 611.72265625 -298.731445312 c 0,30,31
 466.189211804 -426.833451261 466.189211804 -426.833451261 139.389648438 -465.984375 c 2,32,-1
 116.02734375 -468.783203125 l 1,33,-1
 76.7822265625 -252.911132812 l 1,34,-1
 103.625976562 -250.126953125 l 2,35,36
 464 -213 464 -213 569.3203125 -0.400390625 c 1,13,14
EndSplineSet
EndChar

StartChar: uniFEF0
Encoding: 65264 65264 253
Width: 1503
VWidth: 2418
GlyphClass: 2
Flags: W
AnchorPoint: "Anchor-10" 638.537 627.71 basechar 0
AnchorPoint: "Anchor-7" 413.628 -714.555 basechar 0
LayerCount: 2
Fore
SplineSet
1421.71777344 0.5810546875 m 1,0,1
 1451 -41 1451 -41 1451.48144531 -98.228515625 c 0,2,3
 1451 -274 1451 -274 1193.10253906 -412.306640625 c 0,4,5
 965 -535 965 -535 583.041992188 -499.07421875 c 0,6,7
 92 -453 92 -453 91.7939453125 31.3359375 c 0,8,9
 91.9995137847 197.606732462 91.9995137847 197.606732462 169.052734375 399.298828125 c 2,10,-1
 177.479492188 421.356445312 l 1,11,-1
 385.53515625 355.20703125 l 1,12,-1
 377.78125 331.291015625 l 2,13,14
 320 153 320 153 319.620117188 40.169921875 c 0,15,16
 320 -126 320 -126 420.453125 -207.767578125 c 0,17,18
 521 -289 521 -289 750.252929688 -289.657714844 c 0,19,20
 979 -290 979 -290 1113.22070312 -214.177734375 c 0,21,22
 1247 -138 1247 -138 1247.24804688 -70.5478515625 c 0,23,24
 1247 -29 1247 -29 1190.32324219 0.5478515625 c 1,25,-1
 984.29296875 0.759765625 l 1,26,27
 912 9 912 9 885.239350577 113.092541317 c 0,28,29
 858 217 858 217 918.389648438 232.243164062 c 1,30,-1
 1514.29785156 232.6953125 l 5,31,-1
 1514.29785156 0.5439453125 l 5,32,-1
 1421.71777344 0.5810546875 l 1,0,1
EndSplineSet
EndChar

StartChar: uniFEFB
Encoding: 65275 65275 264
Width: 1257
VWidth: 2418
GlyphClass: 3
Flags: W
AnchorPoint: "Anchor-9" 1001.31 1584.25 baselig 0
AnchorPoint: "Anchor-6" 876.413 -161.723 baselig 0
AnchorPoint: "Anchor-6" 176.077 -220.479 baselig 1
AnchorPoint: "Anchor-9" 129.142 1495.94 baselig 1
LayerCount: 2
Fore
SplineSet
483.6796875 235.450195312 m 1,0,1
 344.069335938 811.715820312 344.069335938 811.715820312 97.7099609375 1296.79492188 c 2,2,-1
 87.2216796875 1317.44628906 l 1,3,-1
 264.788085938 1425.38867188 l 1,4,-1
 277.228515625 1402.03515625 l 2,5,6
 537 914 537 914 683.313476562 273.415039062 c 1,7,8
 791 313 791 313 844.237304688 392.356445312 c 0,9,10
 897.443359375 472.668945312 897.443359375 472.668945312 899.189453125 597.477539062 c 2,11,-1
 911.581054688 1483.171875 l 5,12,-1
 1129.1171875 1483.171875 l 5,13,-1
 1129.00292969 992.944335938 l 2,14,15
 1129 555 1129 555 1099.14355469 426.702148438 c 0,16,17
 1049 212 1049 212 879.3515625 105.359375 c 0,18,19
 710 -2 710 -2 427.8671875 0 c 0,20,21
 318 1 318 1 272.641601562 2.2177734375 c 0,22,23
 227.01171875 4.0390625 227.01171875 4.0390625 210.552734375 9.7275390625 c 2,24,-1
 193.524414062 15.6123046875 l 1,25,-1
 196.013671875 243.981445312 l 1,26,-1
 223.728515625 240.607421875 l 2,27,28
 325 228 325 228 483.6796875 235.450195312 c 1,0,1
EndSplineSet
LCarets2: 1 0
Ligature2: "'rlig' Required Ligatures in Arabic lookup 16 subtable" uniFEDF uniFE8E
EndChar

StartChar: uniFEFC
Encoding: 65276 65276 265
Width: 1384
VWidth: 2418
GlyphClass: 3
Flags: W
AnchorPoint: "Anchor-9" 994.54 1600.61 baselig 0
AnchorPoint: "Anchor-6" 846.762 -186.981 baselig 0
AnchorPoint: "Anchor-6" 148.621 -245.737 baselig 1
AnchorPoint: "Anchor-9" 151.49 1500.8 baselig 1
LayerCount: 2
Fore
SplineSet
1369.41113281 0.5498046875 m 6,0,1
 1064 2 1064 2 997.0234375 338.864257812 c 1,2,3
 962 264 962 264 899.141601562 196.798828125 c 0,4,5
 713 2 713 2 425.190429688 0.0009765625 c 0,6,7
 292.140918464 -0.998940944328 292.140918464 -0.998940944328 216.32421875 10.271484375 c 2,8,-1
 195 13.44140625 l 1,9,-1
 195 244.879882812 l 1,10,-1
 222.48046875 242.140625 l 2,11,12
 334 231 334 231 477.890625 238.26953125 c 1,13,14
 346.108045758 811.529995832 346.108045758 811.529995832 97.74609375 1296.72363281 c 2,15,-1
 87.228515625 1317.27050781 l 1,16,-1
 262.594726562 1425.4765625 l 1,17,-1
 275.168945312 1402.13671875 l 2,18,19
 537 916 537 916 677.931640625 296.317382812 c 1,20,21
 823 365 823 365 876.291992188 563.970703125 c 0,22,23
 910.076019345 690.284225182 910.076019345 690.284225182 910.251953125 1035.25878906 c 2,24,-1
 910.48046875 1483.33691406 l 1,25,-1
 1128.32714844 1483.33691406 l 1,26,-1
 1128.32714844 717.948242188 l 2,27,28
 1128 387 1128 387 1250.89648438 276.669921875 c 0,29,30
 1300.35797098 232.681640625 1300.35797098 232.681640625 1367.98046875 232.681640625 c 2,31,-1
 1399.3671875 232.681640625 l 1,32,-1
 1399.3671875 0.5498046875 l 1,33,-1
 1369.41113281 0.5498046875 l 6,0,1
EndSplineSet
LCarets2: 1 0
Ligature2: "'rlig' Required Ligatures in Arabic lookup 16 subtable" uniFEE0 uniFE8E
EndChar

StartChar: arabic_dot
Encoding: 65536 -1 266
Width: 164
VWidth: 2245
GlyphClass: 2
Flags: W
LayerCount: 2
Fore
SplineSet
141.504790731 178.948269424 m 2,0,-1
 173.379938278 147.073121876 l 2,1,2
 201.813598535 118.366946358 201.813598535 118.366946358 201.412789477 87.0672101459 c 128,-1,3
 201.011980418 55.7674739341 201.011980418 55.7674739341 172.05158988 26.8065375399 c 2,4,-1
 140.188951507 -5.0551238712 l 2,5,6
 112.484991766 -32.5953719244 112.484991766 -32.5953719244 82.7632437873 -33.3494216562 c 128,-1,7
 53.0414958085 -34.1034713879 53.0414958085 -34.1034713879 25.9089770252 -7.51535826305 c 2,8,-1
 -7.28089162702 25.6754867341 l 2,9,10
 -37.0770091733 55.0220199848 -37.0770091733 55.0220199848 -37.4780596823 86.9316042782 c 128,-1,11
 -37.8791101913 118.841188572 -37.8791101913 118.841188572 -8.63166316351 148.184678239 c 2,12,-1
 22.0841806331 178.899546589 l 2,13,14
 50.3663400424 207.600491839 50.3663400424 207.600491839 81.5311620212 207.595877413 c 128,-1,15
 112.695984 207.591262987 112.695984 207.591262987 141.504790731 178.948269424 c 2,0,-1
EndSplineSet
EndChar

StartChar: arabic_2dots
Encoding: 65537 -1 267
Width: 438
VWidth: 2245
GlyphClass: 2
Flags: W
LayerCount: 2
Fore
SplineSet
413.504790731 178.948269424 m 2,0,-1
 445.379938278 147.073121876 l 2,1,2
 473.813598535 118.366946358 473.813598535 118.366946358 473.412789477 87.0672101459 c 128,-1,3
 473.011980418 55.7674739341 473.011980418 55.7674739341 444.05158988 26.8065375399 c 2,4,-1
 412.188951507 -5.0551238712 l 2,5,6
 384.484991766 -32.5953719244 384.484991766 -32.5953719244 354.763243787 -33.3494216562 c 128,-1,7
 325.041495809 -34.1034713879 325.041495809 -34.1034713879 297.908977026 -7.51535826309 c 2,8,-1
 264.719108373 25.6754867341 l 2,9,10
 234.922990826 55.0220199848 234.922990826 55.0220199848 234.521940318 86.9316042783 c 128,-1,11
 234.120889809 118.841188572 234.120889809 118.841188572 263.368336836 148.184678239 c 2,12,-1
 294.084180633 178.899546589 l 2,13,14
 322.366340042 207.600491839 322.366340042 207.600491839 353.531162021 207.595877413 c 128,-1,15
 384.695984 207.591262987 384.695984 207.591262987 413.504790731 178.948269424 c 2,0,-1
141.504790731 178.948269424 m 2,16,-1
 173.379938278 147.073121876 l 2,17,18
 201.813598535 118.366946358 201.813598535 118.366946358 201.412789477 87.0672101459 c 128,-1,19
 201.011980418 55.7674739341 201.011980418 55.7674739341 172.05158988 26.8065375399 c 2,20,-1
 140.188951507 -5.0551238712 l 2,21,22
 112.484991766 -32.5953719244 112.484991766 -32.5953719244 82.7632437873 -33.3494216562 c 128,-1,23
 53.0414958085 -34.1034713879 53.0414958085 -34.1034713879 25.9089770252 -7.51535826305 c 2,24,-1
 -7.28089162702 25.6754867341 l 2,25,26
 -37.0770091733 55.0220199848 -37.0770091733 55.0220199848 -37.4780596823 86.9316042782 c 128,-1,27
 -37.8791101913 118.841188572 -37.8791101913 118.841188572 -8.63166316351 148.184678239 c 2,28,-1
 22.0841806331 178.899546589 l 2,29,30
 50.3663400424 207.600491839 50.3663400424 207.600491839 81.5311620212 207.595877413 c 128,-1,31
 112.695984 207.591262987 112.695984 207.591262987 141.504790731 178.948269424 c 2,16,-1
EndSplineSet
EndChar

StartChar: arabic_3dots
Encoding: 65538 -1 268
Width: 438
VWidth: 2245
GlyphClass: 2
Flags: W
LayerCount: 2
Fore
SplineSet
276.466654274 402.683671504 m 2,0,-1
 308.316459049 370.834843292 l 2,1,2
 319.681293436 359.469789748 319.681293436 359.469789748 326.515040235 347.424158241 c 128,-1,3
 333.348787034 335.378526735 333.348787034 335.378526735 335.436316832 323.144299686 c 128,-1,4
 337.52384663 310.910072637 337.52384663 310.910072637 335.120169924 298.628315076 c 128,-1,5
 332.716493218 286.346557516 332.716493218 286.346557516 325.628093144 274.221098193 c 128,-1,6
 318.53969307 262.09563887 318.53969307 262.09563887 306.999967577 250.555696485 c 2,7,-1
 275.150271092 218.706 l 2,8,9
 247.388109687 190.944385805 247.388109687 190.944385805 217.549409695 190.266455671 c 128,-1,10
 187.710709704 189.588525537 187.710709704 189.588525537 160.581349098 216.51051263 c 2,11,-1
 127.632356307 249.457552317 l 2,12,13
 98.0728600653 279.020316966 98.0728600653 279.020316966 97.6720391757 310.878445795 c 128,-1,14
 97.2712182862 342.736574624 97.2712182862 342.736574624 126.317274886 371.932444414 c 2,15,-1
 157.067415235 402.683561327 l 2,16,17
 185.617323839 431.233469931 185.617323839 431.233469931 216.76535614 431.234229316 c 128,-1,18
 247.913388442 431.2349887 247.913388442 431.2349887 276.466654274 402.683671504 c 2,0,-1
415.34142221 163.574529582 m 2,19,-1
 448.303923548 130.610073939 l 2,20,21
 467.237422257 111.671340635 467.237422257 111.671340635 473.466658845 91.1689509453 c 128,-1,22
 479.695895432 70.6665612557 479.695895432 70.6665612557 472.964370961 50.1234431741 c 128,-1,23
 466.232846491 29.5803250924 466.232846491 29.5803250924 446.986295703 10.3330402351 c 2,24,-1
 415.13731148 -21.5159439734 l 2,25,26
 396.75452833 -39.8972655027 396.75452833 -39.8972655027 377.161456557 -46.4776821003 c 128,-1,27
 357.568384784 -53.0580986978 357.568384784 -53.0580986978 338.021626301 -47.322598346 c 128,-1,28
 318.474867817 -41.5870979942 318.474867817 -41.5870979942 300.56754623 -23.7110360706 c 2,29,-1
 267.620068267 9.23546532875 l 2,30,31
 238.044880907 38.8111970512 238.044880907 38.8111970512 237.643804866 70.6730156923 c 128,-1,32
 237.242728825 102.534834333 237.242728825 102.534834333 266.304719923 131.710905077 c 2,33,-1
 297.055867388 162.462052539 l 2,34,35
 325.450257964 190.85534511 325.450257964 190.85534511 356.275885856 191.186430119 c 128,-1,36
 387.101513748 191.517515127 387.101513748 191.517515127 415.34142221 163.574529582 c 2,19,-1
141.880903191 162.475478059 m 2,37,-1
 173.755073392 130.599353166 l 2,38,39
 202.188578151 101.89339507 202.188578151 101.89339507 201.78776403 70.5936028412 c 128,-1,40
 201.386949909 39.2938106121 201.386949909 39.2938106121 172.42658988 10.3329047274 c 2,41,-1
 140.564025079 -21.5286831141 l 2,42,43
 112.718661612 -49.210420936 112.718661612 -49.210420936 82.898749865 -49.8884446867 c 128,-1,44
 53.0788381177 -50.5664684374 53.0788381177 -50.5664684374 26.0083689228 -23.7114290464 c 2,45,-1
 -7.02132559071 9.31434956035 l 2,46,47
 -35.8329971558 39.204474553 -35.8329971558 39.204474553 -36.2301126772 70.9139264232 c 128,-1,48
 -36.6272281986 102.623378293 -36.6272281986 102.623378293 -8.28973965519 131.676992374 c 2,49,-1
 22.4591116911 162.42584372 l 2,50,51
 50.7417370451 191.127294452 50.7417370451 191.127294452 81.9068606203 191.122938846 c 128,-1,52
 113.071984196 191.118583239 113.071984196 191.118583239 141.880903191 162.475478059 c 2,37,-1
EndSplineSet
EndChar

StartChar: arabic_3dots_a
Encoding: 65539 -1 269
Width: 438
VWidth: 2245
GlyphClass: 2
Flags: W
LayerCount: 2
Fore
SplineSet
276.466654272 -230.180741819 m 2,0,1
 247.916289012 -258.730558898 247.916289012 -258.730558898 216.768294105 -258.731299728 c 128,-1,2
 185.620299198 -258.732040557 185.620299198 -258.732040557 157.067415235 -230.18063164 c 2,3,-1
 126.317331824 -199.430548228 l 2,4,5
 111.844128397 -184.957071634 111.844128397 -184.957071634 104.633407693 -169.452877543 c 128,-1,6
 97.4226869886 -153.948683452 97.4226869886 -153.948683452 97.6319332108 -138.38771661 c 128,-1,7
 97.841179433 -122.826749768 97.841179433 -122.826749768 105.387991784 -107.239462272 c 128,-1,8
 112.934804135 -91.6521747756 112.934804135 -91.6521747756 127.632975914 -76.9540029959 c 2,9,-1
 160.58108711 -44.0068683601 l 2,10,11
 187.573619725 -17.2119938051 187.573619725 -17.2119938051 217.327147847 -17.8102508943 c 128,-1,12
 247.080675968 -18.4085079836 247.080675968 -18.4085079836 274.866658537 -45.9194577572 c 2,13,-1
 306.999967577 -78.0527667976 l 2,14,15
 336.025503778 -107.078302998 336.025503778 -107.078302998 336.429441211 -138.386434319 c 128,-1,16
 336.833378644 -169.694565641 336.833378644 -169.694565641 308.316238317 -198.332134334 c 2,17,-1
 276.466654272 -230.180741819 l 2,0,1
414.880898189 8.46885410644 m 2,18,19
 400.955933625 -5.35883948493 400.955933625 -5.35883948493 386.021027979 -12.224012567 c 128,-1,20
 371.086122332 -19.0891856491 371.086122332 -19.0891856491 356.109109578 -18.8405845083 c 128,-1,21
 341.132096824 -18.5919833676 341.132096824 -18.5919833676 326.143994864 -11.3250298623 c 128,-1,22
 311.155892903 -4.05807635712 311.155892903 -4.05807635712 297.055696485 10.0410480477 c 2,23,-1
 266.300197527 40.796548429 l 2,24,25
 237.252361878 69.9801224396 237.252361878 69.9801224396 237.653514484 101.84109281 c 128,-1,26
 238.05466709 133.70206318 238.05466709 133.70206318 267.620280609 163.2676767 c 2,27,-1
 300.572229407 196.218645146 l 2,28,29
 311.318543793 206.950892524 311.318543793 206.950892524 322.773394479 213.351524949 c 128,-1,30
 334.228245164 219.752157373 334.228245164 219.752157373 345.876939365 221.615747734 c 128,-1,31
 357.525633566 223.479338095 357.525633566 223.479338095 369.250667292 221.081970535 c 128,-1,32
 380.975701017 218.684602975 380.975701017 218.684602975 392.548307392 211.859017514 c 128,-1,33
 404.120913766 205.033432053 404.120913766 205.033432053 415.13766289 194.017545703 c 2,34,-1
 446.986212001 162.168996591 l 2,35,36
 475.808436999 133.347317469 475.808436999 133.347317469 476.32730661 102.180866443 c 128,-1,37
 476.846176221 71.0144154179 476.846176221 71.0144154179 448.721333859 42.308311758 c 2,38,-1
 414.880898189 8.46885410644 l 2,18,19
141.880767536 10.0282933192 m 2,39,40
 113.061763718 -18.6248417905 113.061763718 -18.6248417905 81.9028938686 -18.6278128053 c 128,-1,41
 50.744024019 -18.6307838202 50.744024019 -18.6307838202 22.4599756247 10.0762231392 c 2,42,-1
 -8.52153361037 41.058708508 l 2,43,44
 -37.5194660818 70.4435062431 -37.5194660818 70.4435062431 -37.0457121089 102.263320339 c 128,-1,45
 -36.571958136 134.083134435 -36.571958136 134.083134435 -6.90578812462 163.301178281 c 2,46,-1
 26.0078449226 196.214811327 l 2,47,48
 53.0797451953 223.069648304 53.0797451953 223.069648304 82.8992090568 222.391005563 c 128,-1,49
 112.718672918 221.712362822 112.718672918 221.712362822 140.564025079 194.03063624 c 2,50,-1
 172.426808687 162.168829591 l 2,51,52
 201.384975269 133.210117195 201.384975269 133.210117195 201.787836388 101.912522073 c 128,-1,53
 202.190697507 70.614926951 202.190697507 70.614926951 173.754938278 41.9024640609 c 2,54,-1
 141.880767536 10.0282933192 l 2,39,40
EndSplineSet
EndChar

StartChar: uni066E.fina
Encoding: 65540 -1 270
Width: 1983
VWidth: 2418
GlyphClass: 2
Flags: W
AnchorPoint: "Anchor-10" 784.783 1188.02 basechar 0
AnchorPoint: "Anchor-7" 784.783 -173.254 basechar 0
LayerCount: 2
Fore
SplineSet
937.76953125 0 m 0,0,1
 652 0 652 0 475.689453125 48.0595703125 c 0,2,3
 294 97 294 97 193.180664062 230.689453125 c 0,4,5
 92 364 92 364 91.0078125 553.829101562 c 0,6,7
 90.9999795245 682.335918129 90.9999795245 682.335918129 128.309570312 786.698242188 c 2,8,-1
 135.908203125 807.953125 l 1,9,-1
 333.923828125 759.208984375 l 1,10,-1
 329.131835938 735.68359375 l 2,11,12
 325 714 325 714 324.034179688 709.733398438 c 0,13,14
 322 697 322 697 319.690429688 685.662109375 c 0,15,16
 318 674 318 674 316.102539062 663.532226562 c 0,17,18
 314 653 314 653 313.259765625 643.317382812 c 0,19,20
 312 634 312 634 311.166015625 625.086914062 c 0,21,22
 310 616 310 616 309.809570312 608.821289062 c 0,23,24
 300 466 300 466 371.969726562 379.5625 c 0,25,26
 443 293 443 293 602.212890625 258.168945312 c 0,27,28
 654 247 654 247 750.090820312 240.892578125 c 0,29,30
 846 235 846 235 983.9921875 234.889648438 c 0,31,32
 1335 235 1335 235 1487.70410156 311.302734375 c 0,33,34
 1576.80291584 355.901349072 1576.80291584 355.901349072 1584.04785156 473.0703125 c 2,35,-1
 1594.20214844 637.291015625 l 1,36,-1
 1776.51953125 637.291015625 l 1,37,-1
 1787.94628906 464.6328125 l 2,38,39
 1798 306 1798 306 1858.89941406 264.133789062 c 0,40,41
 1883.59699761 247.221657374 1883.59699761 247.221657374 1910.51855469 240.666015625 c 0,42,43
 1944.34891098 232.681640625 1944.34891098 232.681640625 1978.53613281 232.681640625 c 2,44,-1
 1995.56054688 232.681640625 l 5,45,-1
 1995.56054688 0.5498046875 l 5,46,-1
 1950.02148438 0.5498046875 l 2,47,48
 1841.92970541 1.01316142348 1841.92970541 1.01316142348 1768.51171875 44.978515625 c 128,-1,49
 1695 89 1695 89 1661.31738281 175.611328125 c 1,50,51
 1587 89 1587 89 1453.18847656 47.6982421875 c 0,52,53
 1297 0 1297 0 937.76953125 0 c 0,0,1
EndSplineSet
EndChar

StartChar: uni06A1.fina
Encoding: 65543 -1 273
Width: 2102
VWidth: 2418
GlyphClass: 2
Flags: W
AnchorPoint: "Anchor-10" 676.174 1305.53 basechar 0
AnchorPoint: "Anchor-7" 576.233 -215.536 basechar 0
LayerCount: 2
Fore
SplineSet
1482.19677734 421.724292797 m 0,0,1
 1550.92406091 334.917067615 1550.92406091 334.917067615 1598.54972731 334.917676066 c 128,-1,2
 1646.17539371 334.918284517 1646.17539371 334.918284517 1711.41308594 416.68359375 c 0,3,4
 1748.6484375 463.227539062 1748.6484375 463.227539062 1748.64746094 516.146972656 c 128,-1,5
 1748.64648438 569.06640625 1748.64648438 569.06640625 1705.15185509 611.779869431 c 128,-1,6
 1661.6572258 654.493332612 1661.6572258 654.493332612 1599.51719672 654.493316606 c 128,-1,7
 1537.37716765 654.493300601 1537.37716765 654.493300601 1504.15196273 622.269111238 c 0,8,9
 1449.5546875 569.316753531 1449.5546875 569.316753531 1449.5546875 516.135110969 c 128,-1,10
 1449.5546875 462.953468407 1449.5546875 462.953468407 1482.19677734 421.724292797 c 0,0,1
1942.52929688 0.5498046875 m 2,11,12
 1714.51513007 0.5498046875 1714.51513007 0.5498046875 1592.28515625 107.372070312 c 1,13,14
 1481 48 1481 48 1337.65880335 23.8907910628 c 0,15,16
 1194 0 1194 0 923.045947153 0 c 128,-1,17
 652 0 652 0 473.045947153 48.5 c 128,-1,18
 294 97 294 97 192.506779202 231.149842882 c 0,19,20
 91 365 91 365 91.0078108558 553.883047992 c 0,21,22
 90.9999795202 682.335918117 90.9999795202 682.335918117 128.309570312 786.698242188 c 2,23,-1
 135.908203125 807.953125 l 1,24,-1
 333.923828125 759.208984375 l 1,25,26
 309 635 309 635 308.632895122 575.369233919 c 0,27,28
 309 456 309 456 375.816447561 374.31583502 c 0,29,30
 491 235 491 235 874.699885543 235 c 0,31,32
 1258 235 1258 235 1373.55664062 252.455078125 c 1,33,34
 1240 364 1240 364 1239.61289396 526.759048813 c 0,35,36
 1240 743 1240 743 1446.07226562 838.669921875 c 0,37,38
 1509 868 1509 868 1607.69969823 867.509097508 c 0,39,40
 1773 868 1773 868 1878.50292969 748.775390625 c 0,41,42
 1958 659 1958 659 1958.12279016 510.523779581 c 0,43,44
 1958 363 1958 363 1814.05078125 245.237304688 c 1,45,46
 1925.8343664 232.681640625 1925.8343664 232.681640625 2042.59277344 232.681640625 c 2,47,-1
 2114.59765625 232.681640625 l 5,48,-1
 2114.59765625 0.5498046875 l 5,49,-1
 1942.52929688 0.5498046875 l 2,11,12
EndSplineSet
EndChar

StartChar: uni06A1.init
Encoding: 65544 -1 274
Width: 857
VWidth: 2418
GlyphClass: 2
Flags: W
AnchorPoint: "Anchor-10" 405.049 1359.34 basechar 0
AnchorPoint: "Anchor-7" 367.594 -163.369 basechar 0
LayerCount: 2
Fore
SplineSet
-36.42578125 232.243164062 m 1,0,-1
 100.721679688 232.243164062 l 2,1,2
 328.547851562 232.004882812 328.547851562 232.004882812 410.16015625 262.116210938 c 0,3,4
 499.514648438 294.067382812 499.514648438 294.067382812 532.275390625 334.892578125 c 1,5,6
 502.278320312 330.170898438 502.278320312 330.170898438 471.537109375 327.747070312 c 128,-1,7
 440.794921875 325.32421875 440.794921875 325.32421875 406.770507812 324.936523438 c 0,8,9
 363.225585938 324.426757812 363.225585938 324.426757812 324.616210938 331.268554688 c 128,-1,10
 286.006835938 338.110351562 286.006835938 338.110351562 252.461914062 352.296875 c 128,-1,11
 218.916992188 366.484375 218.916992188 366.484375 190.721679688 388.376953125 c 128,-1,12
 162.526367188 410.26953125 162.526367188 410.26953125 140.389648438 439.5234375 c 0,13,14
 16.341796875 602.364257812 16.341796875 602.364257812 118.434570312 844.779296875 c 0,15,16
 225.204101562 1098.54394531 225.204101562 1098.54394531 411.029296875 1103.69335938 c 0,17,18
 607.487304688 1109.49804688 607.487304688 1109.49804688 711.971679688 857.646484375 c 0,19,20
 764.869140625 731.3359375 764.869140625 731.3359375 768.743164062 583.036132812 c 0,21,22
 771.887695312 482.245117188 771.887695312 482.245117188 755.916015625 399.073242188 c 128,-1,23
 739.944335938 315.901367188 739.944335938 315.901367188 703.833007812 249.430664062 c 128,-1,24
 667.721679688 182.958984375 667.721679688 182.958984375 611.685546875 135.62109375 c 0,25,26
 451.146484375 -0 451.146484375 -0 175.1875 0 c 2,27,-1
 -36.42578125 0 l 1,28,-1
 -36.42578125 232.243164062 l 1,0,-1
556.02734375 555.12890625 m 1,29,30
 543.032226562 862.215820312 543.032226562 862.215820312 409.047851562 858.506835938 c 0,31,32
 382.03515625 857.948242188 382.03515625 857.948242188 356.216796875 834.75390625 c 128,-1,33
 330.3984375 811.559570312 330.3984375 811.559570312 306.418945312 760.75390625 c 0,34,35
 298.526367188 743.805664062 298.526367188 743.805664062 293.29296875 727.127929688 c 128,-1,36
 288.05859375 710.451171875 288.05859375 710.451171875 285.475585938 694.20703125 c 128,-1,37
 282.892578125 677.963867188 282.892578125 677.963867188 282.84765625 661.833984375 c 0,38,39
 282.810546875 657.83984375 282.810546875 657.83984375 282.915039062 654.010742188 c 128,-1,40
 283.020507812 650.182617188 283.020507812 650.182617188 283.260742188 646.56640625 c 128,-1,41
 283.501953125 642.951171875 283.501953125 642.951171875 283.881835938 639.469726562 c 128,-1,42
 284.260742188 635.987304688 284.260742188 635.987304688 284.767578125 632.696289062 c 128,-1,43
 285.2734375 629.405273438 285.2734375 629.405273438 285.915039062 626.216796875 c 0,44,45
 310.264648438 505.201171875 310.264648438 505.201171875 556.02734375 555.12890625 c 1,29,30
EndSplineSet
EndChar

StartChar: uni06A1.medi
Encoding: 65545 -1 275
Width: 1070
VWidth: 2418
GlyphClass: 2
Flags: W
AnchorPoint: "Anchor-10" 535.245 1129.26 basechar 0
AnchorPoint: "Anchor-7" 535.245 -163.369 basechar 0
LayerCount: 2
Fore
SplineSet
387.8671875 512.448242188 m 0,0,1
 387.76953125 488.811523438 387.76953125 488.811523438 394.515625 468.896484375 c 128,-1,2
 401.26171875 448.981445312 401.26171875 448.981445312 415.213867188 431.336914062 c 0,3,4
 489.171875 338.008789062 489.171875 338.008789062 537.427734375 338.083007812 c 0,5,6
 584.389648438 338.008789062 584.389648438 338.008789062 649.627929688 419.774414062 c 0,7,8
 686.86328125 466.318359375 686.86328125 466.318359375 686.986328125 512.466796875 c 0,9,10
 686.861328125 572.157226562 686.861328125 572.157226562 643.359375 614.9765625 c 0,11,12
 599.775390625 657.583984375 599.775390625 657.583984375 537.427734375 657.732421875 c 0,13,14
 475.58984375 657.583984375 475.58984375 657.583984375 431.41015625 614.89453125 c 0,15,16
 409.141601562 593.135742188 409.141601562 593.135742188 398.456054688 567.942382812 c 128,-1,17
 387.76953125 542.748046875 387.76953125 542.748046875 387.8671875 512.448242188 c 0,0,1
534.8671875 113.360351562 m 1,18,19
 355 0 355 0 203.345703125 0 c 2,20,-1
 -14.3515625 0 l 5,21,-1
 -14.3515625 233 l 5,22,-1
 52.55859375 233 l 2,23,24
 234 233 234 233 318.046875 250.413085938 c 1,25,26
 179.072670176 363.129996331 179.072670176 363.129996331 177.834960938 527.270507812 c 0,27,28
 177 638 177 638 229.75 718.016601562 c 0,29,30
 282 798 282 798 384.336914062 841.782226562 c 0,31,32
 449 870 449 870 525.072265625 870.546875 c 0,33,34
 642 872 642 872 719.669921875 828.704101562 c 0,35,36
 895 732 895 732 896.31640625 524.95703125 c 0,37,38
 897 365 897 365 750.80859375 247.172851562 c 1,39,40
 856 233 856 233 1018.54980469 233 c 2,41,-1
 1085.41113281 233 l 1,42,-1
 1085.41113281 0 l 1,43,-1
 868.814453125 0 l 2,44,45
 814 0 814 0 757.59375 12.9287109375 c 0,46,47
 702 26 702 26 645.991210938 50.98828125 c 128,-1,48
 590 76 590 76 534.8671875 113.360351562 c 1,18,19
EndSplineSet
EndChar

StartChar: uni066F.fina
Encoding: 65546 -1 276
Width: 1555
VWidth: 2418
GlyphClass: 2
Flags: W
AnchorPoint: "Anchor-10" 390.318 1011.75 basechar 0
AnchorPoint: "Anchor-7" 499.753 -625.531 basechar 0
LayerCount: 2
Fore
SplineSet
1447.54492188 0.5498046875 m 1,0,1
 1382 -480 1382 -480 759.291015625 -479.88671875 c 0,2,3
 431 -480 431 -480 261.8203125 -328.833984375 c 0,4,5
 93 -178 93 -178 92.90234375 119.11328125 c 0,6,7
 93.0001032788 287.177552812 93.0001032788 287.177552812 171.219726562 515.182617188 c 2,8,-1
 178.876953125 537.502929688 l 1,9,-1
 388.2578125 478.936523438 l 1,10,-1
 379.642578125 453.873046875 l 2,11,12
 315 266 315 266 315.335783863 95.1536713184 c 0,13,14
 316 -76 316 -76 424.88671875 -167.340820312 c 0,15,16
 534 -259 534 -259 759.599609375 -259.141113281 c 0,17,18
 1197 -259 1197 -259 1236.87792969 1.029296875 c 1,19,-1
 1109.59667969 1.16015625 l 1,20,21
 917 4 917 4 827.637695312 125.30078125 c 0,22,23
 705 293 705 293 817.494674943 539.617210376 c 0,24,25
 930 786 930 786 1108.84179688 785.967773438 c 0,26,27
 1306.43521399 786.000235789 1306.43521399 786.000235789 1396.37402344 593.315429688 c 0,28,29
 1453.43058823 470.069904172 1453.43058823 470.069904172 1459.04296875 257.592773438 c 2,30,-1
 1459.69238281 233.006835938 l 1,31,-1
 1567.99902344 232.616210938 l 5,32,-1
 1567.99902344 0.5498046875 l 5,33,-1
 1447.54492188 0.5498046875 l 1,0,1
1246.31445312 234.560546875 m 1,34,35
 1242.90075249 473.972194444 1242.90075249 473.972194444 1171.203125 523.21875 c 0,36,37
 1093.39639015 576.544329283 1093.39639015 576.544329283 1023.9609375 480.092773438 c 0,38,39
 976.996934619 414.925803352 976.996934619 414.925803352 976.986260278 350.562511051 c 128,-1,40
 976.975585938 286.19921875 976.975585938 286.19921875 1013.79101562 260.056640625 c 128,-1,41
 1050.60546875 233.9140625 1050.60546875 233.9140625 1119.14550781 233.942871094 c 128,-1,42
 1187.68554688 233.971679688 1187.68554688 233.971679688 1246.31445312 234.560546875 c 1,34,35
EndSplineSet
EndChar

StartChar: arabic_ring
Encoding: 65549 -1 279
Width: 452
VWidth: 2266
GlyphClass: 2
Flags: W
LayerCount: 2
Fore
SplineSet
294.317382812 196.290039062 m 0,0,1
 303.069335938 205.041015625 303.069335938 205.041015625 308.690429688 214.608398438 c 128,-1,2
 314.311523438 224.17578125 314.311523438 224.17578125 317.078125 235.134765625 c 128,-1,3
 319.84375 246.09375 319.84375 246.09375 319.84375 258.904296875 c 0,4,5
 319.84375 278.064453125 319.84375 278.064453125 313.599609375 293.448242188 c 128,-1,6
 307.356445312 308.83203125 307.356445312 308.83203125 294.19921875 322.223632812 c 0,7,8
 268.736328125 348.141601562 268.736328125 348.141601562 243.2265625 348.141601562 c 0,9,10
 179.0859375 348.141601562 179.0859375 348.141601562 153.73828125 304.21484375 c 0,11,12
 142.46484375 284.676757812 142.46484375 284.676757812 142.46484375 250.866210938 c 0,13,14
 142.46484375 235.688476562 142.46484375 235.688476562 148.471679688 222.310546875 c 128,-1,15
 154.479492188 208.932617188 154.479492188 208.932617188 167.724609375 195.845703125 c 0,16,17
 180.689453125 183.034179688 180.689453125 183.034179688 196.046875 176.899414062 c 128,-1,18
 211.404296875 170.763671875 211.404296875 170.763671875 230.994140625 170.763671875 c 128,-1,19
 250.522460938 170.763671875 250.522460938 170.763671875 265.887695312 176.995117188 c 128,-1,20
 281.25390625 183.225585938 281.25390625 183.225585938 294.317382812 196.290039062 c 0,0,1
489.509765625 259.453125 m 0,21,22
 489.509765625 151.049804688 489.509765625 151.049804688 414.615234375 75.5654296875 c 128,-1,23
 339.639648438 0 339.639648438 0 231.154296875 0 c 128,-1,24
 122.702148438 0 122.702148438 0 47.7109375 75.58203125 c 128,-1,25
 -27.2001953125 151.083007812 -27.2001953125 151.083007812 -27.2001953125 259.453125 c 128,-1,26
 -27.2001953125 367.879882812 -27.2001953125 367.879882812 47.763671875 442.84375 c 128,-1,27
 122.7265625 517.807617188 122.7265625 517.807617188 231.154296875 517.807617188 c 0,28,29
 284.817382812 517.807617188 284.817382812 517.807617188 331.162109375 499.100585938 c 128,-1,30
 377.5078125 480.39453125 377.5078125 480.39453125 415.095703125 443.393554688 c 0,31,32
 452.102539062 405.799804688 452.102539062 405.799804688 470.805664062 359.4609375 c 128,-1,33
 489.509765625 313.123046875 489.509765625 313.123046875 489.509765625 259.453125 c 0,21,22
EndSplineSet
EndChar

StartChar: arabic_gaf_bar
Encoding: 65550 -1 280
Width: 715
VWidth: 2266
GlyphClass: 2
Flags: W
LayerCount: 2
Fore
SplineSet
732.220703125 1812.35351562 m 5,0,-1
 -27.2001953125 1485.25683594 l 5,1,-1
 -27.2001953125 1613.47753906 l 1,2,-1
 732.220703125 1940.57324219 l 1,3,-1
 732.220703125 1812.35351562 l 5,0,-1
EndSplineSet
EndChar

StartChar: uni066E.init.math
Encoding: 65560 -1 290
Width: 934
VWidth: 2418
GlyphClass: 2
Flags: W
LayerCount: 2
Fore
SplineSet
638.524414062 111.685546875 m 0,0,1
 552.828125 9.3349609375 552.828125 9.3349609375 366.676757812 9.3349609375 c 2,2,-1
 -36.42578125 9.3349609375 l 1,3,-1
 -36.42578125 232.681640625 l 1,4,-1
 302.045898438 232.681640625 l 2,5,6
 313.870117188 232.681640625 313.870117188 232.681640625 325.030273438 233.223632812 c 0,7,8
 330.583984375 233.493164062 330.583984375 233.493164062 335.973632812 233.897460938 c 128,-1,9
 341.36328125 234.301757812 341.36328125 234.301757812 346.580078125 234.838867188 c 0,10,11
 356.958984375 235.908203125 356.958984375 235.908203125 366.685546875 237.506835938 c 128,-1,12
 376.329101562 239.091796875 376.329101562 239.091796875 385.340820312 241.200195312 c 128,-1,13
 394.265625 243.288085938 394.265625 243.288085938 402.551757812 245.887695312 c 0,14,15
 416.153320312 250.155273438 416.153320312 250.155273438 427.997070312 255.82421875 c 0,16,17
 439.6171875 261.385742188 439.6171875 261.385742188 449.579101562 268.329101562 c 128,-1,18
 459.389648438 275.166015625 459.389648438 275.166015625 467.567382812 283.344726562 c 0,19,20
 524.10546875 339.880859375 524.10546875 339.880859375 524.10546875 462.967773438 c 2,21,-1
 524.10546875 721.530273438 l 1,22,-1
 747.453125 721.530273438 l 1,23,-1
 747.453125 462.936523438 l 2,24,25
 747.172851562 352.65234375 747.172851562 352.65234375 720.510742188 265.592773438 c 0,26,27
 706.916992188 221.5 706.916992188 221.5 686.412109375 182.963867188 c 128,-1,28
 665.908203125 144.427734375 665.908203125 144.427734375 638.524414062 111.685546875 c 0,0,1
EndSplineSet
EndChar

StartChar: guillemotleft
Encoding: 171 171 291
Width: 1321
VWidth: -7
Flags: W
LayerCount: 2
Fore
SplineSet
1132.89550781 998.485351562 m 5,0,-1
 1132.89550781 727.736328125 l 5,1,-1
 917.544921875 562.784179688 l 6,2,3
 817.765625 486.75390625 817.765625 486.75390625 921.971679688 413.962890625 c 5,4,-1
 1132.89550781 252.963867188 l 5,5,-1
 1132.89550781 -17.7958984375 l 5,6,-1
 777.047851562 259.020507812 l 5,7,8
 481.428710938 490.428710938 481.428710938 490.428710938 779.623046875 723.623046875 c 6,9,-1
 1132.89550781 998.485351562 l 5,0,-1
650.033203125 997.583984375 m 5,10,-1
 650.033203125 727.06640625 l 5,11,-1
 400.055664062 562.642578125 l 6,12,13
 294.771484375 493 294.771484375 493 404.9375 414.135742188 c 6,14,-1
 650.033203125 253.646484375 l 5,15,-1
 650.033203125 -16.91796875 l 5,16,-1
 272.875976562 259.146484375 l 6,17,18
 -35.228515625 484 -35.228515625 484 275.07421875 723.499023438 c 6,19,-1
 650.033203125 997.583984375 l 5,10,-1
EndSplineSet
EndChar

StartChar: guillemotright
Encoding: 187 187 292
Width: 1321
VWidth: -7
Flags: W
LayerCount: 2
Fore
SplineSet
188.875976562 998.485351562 m 5,0,-1
 542.148552203 723.623046875 l 6,1,2
 840.342586795 490.428828264 840.342586795 490.428828264 544.723358664 259.020507812 c 5,3,-1
 188.875976562 -17.7958984375 l 5,4,-1
 188.875976562 252.963867188 l 5,5,-1
 399.799804688 413.962890625 l 5,6,7
 504.005971937 486.754272447 504.005971937 486.754272447 404.2265625 562.784179688 c 6,8,-1
 188.875976562 727.736328125 l 5,9,-1
 188.875976562 998.485351562 l 5,0,-1
671.73845276 997.583984375 m 5,10,-1
 1046.69726562 723.499023438 l 6,11,12
 1357 484 1357 484 1048.89550781 259.146484375 c 6,13,-1
 671.73845276 -16.91796875 l 5,14,-1
 671.73845276 253.646484375 l 5,15,-1
 916.833953891 414.135742188 l 6,16,17
 1027 493 1027 493 921.716308421 562.642578125 c 6,18,-1
 671.73845276 727.06640625 l 5,19,-1
 671.73845276 997.583984375 l 5,10,-1
EndSplineSet
EndChar

